<?xml version="1.0" ?>
<svg height="512" style="background-color: rgb(180, 255, 173, 0.4633246958255768)" version="1.1" width="512" xmlns="http://www.w3.org/2000/svg">
  <defs/>
  <g>
    <path d="M 513.5443115234375 488.27734375 C 549.4274291992188 425.1500244140625 492.735107421875 453.4704284667969 519.871337890625 454.00201416015625 C 502.3357238769531 460.7159729003906 549.7042846679688 450.45465087890625 233.2756805419922 448.3892822265625 C 228.7195587158203 396.2957763671875 209.66305541992188 400.0675048828125 448.64581298828125 428.5475158691406 C 557.6324462890625 417.8240966796875 543.60791015625 382.2431335449219 513.5443115234375 488.27734375" fill="rgb(3, 32, 124)" opacity="0.98159665" stroke="rgb(0, 0, 0)" stroke-linecap="round" stroke-linejoin="round" stroke-opacity="1.0" stroke-width="0"/>
    <path d="M 222.67764282226562 339.570068359375 C 145.21168518066406 351.6128234863281 302.7922058105469 367.92236328125 104.53515625 380.00933837890625 C 64.68183898925781 364.1326599121094 33.405792236328125 412.3215637207031 -42.78584289550781 321.6225280761719 C 276.6473083496094 329.78985595703125 176.85699462890625 357.9286193847656 219.259521484375 336.5211181640625 C 79.16817474365234 339.85394287109375 102.18281555175781 339.84393310546875 222.67764282226562 339.570068359375" fill="rgb(13, 63, 171)" opacity="0.842999" stroke="rgb(0, 0, 0)" stroke-linecap="round" stroke-linejoin="round" stroke-opacity="1.0" stroke-width="0"/>
    <path d="M 276.2196960449219 237.12071228027344 C 168.99713134765625 368.1767883300781 203.78416442871094 397.84649658203125 158.154052734375 305.1200866699219 C -51.10920715332031 307.5022277832031 0.11820654571056366 300.9342956542969 -21.33905601501465 324.488037109375 C -50.49958419799805 247.80662536621094 -50.58820724487305 269.586181640625 141.018798828125 270.0454406738281 C 139.45741271972656 255.3690185546875 143.24549865722656 261.9681091308594 276.2196960449219 237.12071228027344" fill="rgb(6, 0, 43)" opacity="1.0" stroke="rgb(0, 0, 0)" stroke-linecap="round" stroke-linejoin="round" stroke-opacity="1.0" stroke-width="0"/>
    <path d="M 401.11517333984375 252.52073669433594 C 263.76336669921875 307.1849060058594 544.8694458007812 219.69363403320312 551.6704711914062 309.3631286621094 C 36.29960632324219 294.1748962402344 59.64291000366211 277.13665771484375 378.78253173828125 237.2173309326172 C 201.0741729736328 107.51004028320312 517.3544921875 159.85751342773438 507.3411865234375 207.11842346191406 C 391.432861328125 218.7115478515625 342.1427917480469 124.93888854980469 401.11517333984375 252.52073669433594" fill="rgb(5, 0, 42)" opacity="1.0" stroke="rgb(0, 0, 0)" stroke-linecap="round" stroke-linejoin="round" stroke-opacity="1.0" stroke-width="0"/>
    <path d="M 244.85836791992188 82.6183853149414 C 149.3779296875 158.42428588867188 141.2185516357422 418.39764404296875 150.3731689453125 208.9818115234375 C -50.13957214355469 207.98757934570312 -50.381492614746094 221.72084045410156 -14.785698890686035 97.7632827758789 C 37.35436248779297 101.71649169921875 32.523193359375 117.79698944091797 171.95516967773438 159.80746459960938 C 231.97335815429688 38.94218826293945 295.6875 32.755165100097656 244.85836791992188 82.6183853149414" fill="rgb(19, 10, 57)" opacity="0.974326" stroke="rgb(0, 0, 0)" stroke-linecap="round" stroke-linejoin="round" stroke-opacity="1.0" stroke-width="0"/>
    <path d="M 349.6210632324219 328.8601989746094 C 520.410888671875 334.46392822265625 465.3593444824219 358.3638610839844 203.98500061035156 357.0506896972656 C 169.27232360839844 291.93096923828125 224.98849487304688 306.10150146484375 295.33282470703125 315.22784423828125 C 144.44593811035156 295.0538635253906 111.07951354980469 284.48455810546875 336.78924560546875 316.7315368652344 C 563.2000122070312 340.900390625 399.0469665527344 284.22625732421875 349.6210632324219 328.8601989746094" fill="rgb(5, 0, 83)" opacity="0.98518944" stroke="rgb(0, 0, 0)" stroke-linecap="round" stroke-linejoin="round" stroke-opacity="1.0" stroke-width="0"/>
    <path d="M 356.73785400390625 290.0974426269531 C 330.9045104980469 353.6216735839844 331.120849609375 338.0949401855469 283.16607666015625 318.7407531738281 C 255.3121337890625 297.4715576171875 236.54034423828125 305.8397521972656 226.79229736328125 285.35089111328125 C 293.59014892578125 256.16766357421875 302.4059143066406 250.4956817626953 291.9085998535156 262.83734130859375 C 279.99505615234375 272.7266845703125 286.7424011230469 281.4952087402344 356.73785400390625 290.0974426269531" fill="rgb(255, 114, 0)" opacity="1.0" stroke="rgb(0, 0, 0)" stroke-linecap="round" stroke-linejoin="round" stroke-opacity="1.0" stroke-width="0"/>
    <path d="M 397.20654296875 183.09408569335938 C 343.5235900878906 207.4698486328125 357.1310729980469 122.53484344482422 350.3710021972656 189.7313690185547 C 428.45770263671875 311.3778076171875 290.02392578125 189.93663024902344 310.299072265625 73.6621322631836 C 350.2550354003906 176.24192810058594 354.39239501953125 212.2035369873047 348.70758056640625 179.1294403076172 C 541.9957275390625 194.2447967529297 534.0958251953125 189.06997680664062 397.20654296875 183.09408569335938" fill="rgb(120, 205, 233)" opacity="0.9162195" stroke="rgb(0, 0, 0)" stroke-linecap="round" stroke-linejoin="round" stroke-opacity="1.0" stroke-width="0"/>
    <path d="M 34.452632904052734 65.11074829101562 C 86.46173095703125 95.01895904541016 153.25973510742188 122.47023010253906 -4.209671497344971 109.62818908691406 C 42.97050857543945 58.051429748535156 129.97291564941406 107.46240997314453 115.01252746582031 63.560691833496094 C -27.997547149658203 80.04920959472656 -42.49270248413086 24.198837280273438 54.50910186767578 28.509363174438477 C 212.16297912597656 41.77968215942383 280.7580261230469 77.34457397460938 34.452632904052734 65.11074829101562" fill="rgb(75, 240, 218)" opacity="0.072795294" stroke="rgb(0, 0, 0)" stroke-linecap="round" stroke-linejoin="round" stroke-opacity="1.0" stroke-width="0"/>
    <path d="M 243.6012420654297 273.8735656738281 C 255.11514282226562 294.48358154296875 296.9772033691406 308.64508056640625 189.44277954101562 335.2183532714844 C 175.9194793701172 314.4567565917969 162.19271850585938 277.4609375 174.0594482421875 286.8398132324219 C 272.6840515136719 278.2294006347656 266.99127197265625 258.6665954589844 261.64715576171875 291.4374694824219 C 256.04315185546875 293.628662109375 248.2832489013672 273.47021484375 243.6012420654297 273.8735656738281" fill="rgb(255, 250, 0)" opacity="1.0" stroke="rgb(0, 0, 0)" stroke-linecap="round" stroke-linejoin="round" stroke-opacity="1.0" stroke-width="0"/>
    <path d="M 522.2587890625 275.8892822265625 C 523.142578125 284.9704284667969 489.093017578125 277.8789367675781 347.40191650390625 279.218017578125 C 369.557861328125 236.8043975830078 228.5784454345703 267.93121337890625 256.0123291015625 249.76060485839844 C 415.0577697753906 258.3694152832031 392.598876953125 200.85308837890625 381.237060546875 279.71563720703125 C 364.5691833496094 265.6888732910156 368.6134033203125 280.1264953613281 522.2587890625 275.8892822265625" fill="rgb(62, 31, 0)" opacity="0.0" stroke="rgb(0, 0, 0)" stroke-linecap="round" stroke-linejoin="round" stroke-opacity="1.0" stroke-width="0"/>
    <path d="M 325.1953430175781 104.73367309570312 C 251.24916076660156 54.115150451660156 288.7777404785156 1.5684826374053955 271.6250915527344 258.0082702636719 C 250.72975158691406 295.3950500488281 269.5723571777344 158.11737060546875 262.0971374511719 27.35625457763672 C 250.7600555419922 35.555789947509766 282.1491394042969 -0.32918092608451843 282.95916748046875 41.91529846191406 C 281.1071472167969 47.701927185058594 301.8731689453125 50.055625915527344 325.1953430175781 104.73367309570312" fill="rgb(16, 0, 32)" opacity="1.0" stroke="rgb(0, 0, 0)" stroke-linecap="round" stroke-linejoin="round" stroke-opacity="1.0" stroke-width="0"/>
    <path d="M 338.0762023925781 324.6159362792969 C 268.6943054199219 511.84710693359375 246.07083129882812 452.0537109375 239.96446228027344 402.0904235839844 C 113.7957534790039 407.08074951171875 -45.104705810546875 456.4713134765625 -51.20000076293945 368.4344787597656 C 325.9391174316406 361.2667236328125 156.89080810546875 381.40966796875 173.49411010742188 336.8994140625 C 209.9265594482422 380.2691650390625 253.97776794433594 542.7301635742188 338.0762023925781 324.6159362792969" fill="rgb(29, 60, 115)" opacity="0.92075825" stroke="rgb(0, 0, 0)" stroke-linecap="round" stroke-linejoin="round" stroke-opacity="1.0" stroke-width="0"/>
    <path d="M 544.6994018554688 322.6230773925781 C 553.165283203125 393.8840637207031 424.8877258300781 350.53558349609375 472.9211730957031 390.0381164550781 C 406.4598693847656 382.465576171875 385.2786865234375 378.6181335449219 519.80126953125 374.49755859375 C 475.73248291015625 324.8456115722656 443.0094299316406 374.18255615234375 300.28173828125 359.77642822265625 C 472.97698974609375 322.81890869140625 504.1099853515625 323.4976501464844 544.6994018554688 322.6230773925781" fill="rgb(19, 39, 146)" opacity="1.0" stroke="rgb(0, 0, 0)" stroke-linecap="round" stroke-linejoin="round" stroke-opacity="1.0" stroke-width="0"/>
    <path d="M 531.5519409179688 1.403382420539856 C 474.4029235839844 -6.880255699157715 482.3011779785156 -10.30612564086914 485.84619140625 -1.2030458450317383 C 477.10137939453125 -1.0216141939163208 494.1410827636719 -4.6323018074035645 229.92857360839844 -5.457383155822754 C 222.68896484375 5.963490962982178 243.16677856445312 -51.20000076293945 332.2298583984375 -45.43757629394531 C 506.6139221191406 -13.841954231262207 522.6883544921875 2.4114556312561035 531.5519409179688 1.403382420539856" fill="rgb(128, 70, 12)" opacity="0.37154827" stroke="rgb(0, 0, 0)" stroke-linecap="round" stroke-linejoin="round" stroke-opacity="1.0" stroke-width="0"/>
    <path d="M 339.46038818359375 358.63385009765625 C 282.4818115234375 492.0243835449219 341.4456787109375 436.4840087890625 -2.7499125003814697 437.3047790527344 C -37.69284439086914 399.0352783203125 -50.603729248046875 423.5591735839844 212.86962890625 435.0286865234375 C 142.50384521484375 282.13568115234375 137.86447143554688 234.91734313964844 263.5784606933594 480.5154724121094 C 320.84771728515625 318.7389221191406 433.5338134765625 182.75692749023438 339.46038818359375 358.63385009765625" fill="rgb(0, 6, 70)" opacity="0.91674405" stroke="rgb(0, 0, 0)" stroke-linecap="round" stroke-linejoin="round" stroke-opacity="1.0" stroke-width="0"/>
    <path d="M 241.78041076660156 429.6363830566406 C 253.9038848876953 551.3971557617188 215.67982482910156 559.8074340820312 510.1669616699219 543.7470703125 C 563.2000122070312 455.6872253417969 563.2000122070312 478.07293701171875 268.6630859375 484.8983459472656 C 276.087158203125 453.9745788574219 140.7918701171875 453.1478576660156 529.7202758789062 449.2037658691406 C 532.690185546875 451.0445556640625 553.6644897460938 434.9833679199219 241.78041076660156 429.6363830566406" fill="rgb(23, 46, 158)" opacity="0.89133984" stroke="rgb(0, 0, 0)" stroke-linecap="round" stroke-linejoin="round" stroke-opacity="1.0" stroke-width="0"/>
    <path d="M 560.4867553710938 420.78790283203125 C 460.4081726074219 414.02813720703125 385.38818359375 425.64190673828125 215.025634765625 389.43115234375 C 531.7393188476562 398.1584167480469 522.0892333984375 377.6911315917969 337.11090087890625 383.0169677734375 C 540.8501586914062 386.4384460449219 16.86624526977539 373.23846435546875 451.0519104003906 361.5827941894531 C 533.5623168945312 365.7015075683594 479.0647277832031 301.0953674316406 560.4867553710938 420.78790283203125" fill="rgb(25, 41, 145)" opacity="1.0" stroke="rgb(0, 0, 0)" stroke-linecap="round" stroke-linejoin="round" stroke-opacity="1.0" stroke-width="0"/>
    <path d="M 430.19171142578125 151.93162536621094 C 337.0911865234375 158.0860595703125 373.746337890625 145.71917724609375 342.47686767578125 169.90248107910156 C 316.4516296386719 104.16879272460938 308.2343444824219 86.56555938720703 290.49505615234375 74.36815643310547 C 337.1266174316406 90.52407836914062 341.868408203125 130.05694580078125 342.6128845214844 132.70985412597656 C 340.19769287109375 134.11288452148438 374.39361572265625 141.2779541015625 430.19171142578125 151.93162536621094" fill="rgb(6, 3, 31)" opacity="0.9381876" stroke="rgb(0, 0, 0)" stroke-linecap="round" stroke-linejoin="round" stroke-opacity="1.0" stroke-width="0"/>
    <path d="M 313.6700744628906 348.66546630859375 C 330.15679931640625 409.9927673339844 317.35626220703125 419.22357177734375 303.383056640625 452.17718505859375 C 231.08566284179688 450.77142333984375 195.17904663085938 445.3745422363281 171.3751220703125 360.28656005859375 C 204.3845672607422 358.2873229980469 239.6448974609375 365.1774597167969 276.7136535644531 367.1351013183594 C 255.39537048339844 365.3710021972656 286.3935546875 370.2355041503906 313.6700744628906 348.66546630859375" fill="rgb(48, 58, 122)" opacity="0.9589977" stroke="rgb(0, 0, 0)" stroke-linecap="round" stroke-linejoin="round" stroke-opacity="1.0" stroke-width="0"/>
    <path d="M 550.9379272460938 193.59169006347656 C 348.47015380859375 176.109130859375 365.7713928222656 163.9864501953125 348.25030517578125 162.4525604248047 C 350.2491455078125 192.2499237060547 366.6792297363281 195.21995544433594 350.8073425292969 179.1095428466797 C 331.7124938964844 184.40269470214844 392.5140380859375 176.91526794433594 367.35772705078125 205.0519561767578 C 424.7604675292969 214.5902862548828 553.1708374023438 208.03396606445312 550.9379272460938 193.59169006347656" fill="rgb(32, 19, 79)" opacity="0.9921814" stroke="rgb(0, 0, 0)" stroke-linecap="round" stroke-linejoin="round" stroke-opacity="1.0" stroke-width="0"/>
    <path d="M 157.1077117919922 489.1290588378906 C 163.22752380371094 536.3280029296875 144.27752685546875 539.3731689453125 89.5386962890625 537.3580322265625 C 45.478214263916016 546.3900756835938 33.50312042236328 546.7158203125 28.276206970214844 483.49151611328125 C 29.889888763427734 458.7724914550781 22.644269943237305 467.4270935058594 85.44414520263672 471.7026062011719 C 173.97084045410156 480.58807373046875 160.6220245361328 472.2669677734375 157.1077117919922 489.1290588378906" fill="rgb(10, 51, 136)" opacity="0.99577665" stroke="rgb(0, 0, 0)" stroke-linecap="round" stroke-linejoin="round" stroke-opacity="1.0" stroke-width="0"/>
    <path d="M 165.63943481445312 324.8197326660156 C 64.18209838867188 323.41119384765625 66.51020050048828 322.6444396972656 65.2166976928711 321.65478515625 C 92.59886932373047 318.7154541015625 105.88727569580078 306.01806640625 -21.840652465820312 305.7164611816406 C -9.136322021484375 329.9649658203125 24.09483528137207 337.14910888671875 94.89045715332031 310.76275634765625 C 167.31460571289062 307.87884521484375 180.03147888183594 308.2518310546875 165.63943481445312 324.8197326660156" fill="rgb(0, 43, 118)" opacity="0.5063993" stroke="rgb(0, 0, 0)" stroke-linecap="round" stroke-linejoin="round" stroke-opacity="1.0" stroke-width="0"/>
    <path d="M 527.720458984375 495.3955993652344 C 484.8286437988281 563.2000122070312 407.89837646484375 563.079345703125 175.0066680908203 563.1986694335938 C 89.09307861328125 535.4869384765625 132.57583618164062 489.15863037109375 71.12601470947266 492.32342529296875 C 157.62442016601562 488.6952209472656 166.1268310546875 487.3173522949219 186.88197326660156 475.2474670410156 C 166.53927612304688 477.3566589355469 165.80654907226562 494.8138732910156 527.720458984375 495.3955993652344" fill="rgb(0, 73, 193)" opacity="0.99602026" stroke="rgb(0, 0, 0)" stroke-linecap="round" stroke-linejoin="round" stroke-opacity="1.0" stroke-width="0"/>
    <path d="M 290.101318359375 238.0605926513672 C 301.2135314941406 277.99005126953125 325.57672119140625 289.74267578125 278.2932434082031 273.5035705566406 C 253.04774475097656 260.2442626953125 256.7720031738281 255.29188537597656 262.3792419433594 232.1735382080078 C 260.55621337890625 219.50196838378906 249.3002471923828 230.06573486328125 279.32696533203125 244.08326721191406 C 287.2503662109375 239.84735107421875 290.9666442871094 242.6981201171875 290.101318359375 238.0605926513672" fill="rgb(3, 0, 12)" opacity="0.5878493" stroke="rgb(0, 0, 0)" stroke-linecap="round" stroke-linejoin="round" stroke-opacity="1.0" stroke-width="0"/>
    <path d="M 348.7032470703125 354.5509338378906 C 343.3656921386719 384.1130676269531 305.0337829589844 362.32373046875 287.1542663574219 374.63140869140625 C 259.8767395019531 367.7159729003906 182.8910369873047 382.0834655761719 161.76400756835938 354.60308837890625 C 286.4925842285156 330.2977600097656 254.08657836914062 314.5759582519531 267.27520751953125 322.7292175292969 C 274.97503662109375 329.8587341308594 288.07623291015625 340.66015625 348.7032470703125 354.5509338378906" fill="rgb(255, 0, 27)" opacity="1.0" stroke="rgb(0, 0, 0)" stroke-linecap="round" stroke-linejoin="round" stroke-opacity="1.0" stroke-width="0"/>
    <path d="M 45.27488708496094 484.23065185546875 C 44.885597229003906 556.9669799804688 32.190250396728516 549.6993408203125 2.6554083824157715 532.715087890625 C -9.364206314086914 527.7437133789062 -16.68471336364746 520.4232177734375 -15.594155311584473 457.6628723144531 C 14.189738273620605 397.3078308105469 38.41629409790039 440.350341796875 47.8226432800293 466.11126708984375 C 119.02143859863281 481.0439147949219 144.5972137451172 482.8887939453125 45.27488708496094 484.23065185546875" fill="rgb(0, 70, 195)" opacity="1.0" stroke="rgb(0, 0, 0)" stroke-linecap="round" stroke-linejoin="round" stroke-opacity="1.0" stroke-width="0"/>
    <path d="M 275.1412353515625 240.5300750732422 C 268.4742126464844 230.2015838623047 251.2445068359375 212.98333740234375 258.00238037109375 244.33535766601562 C 284.37677001953125 251.30784606933594 257.862548828125 238.86911010742188 270.68609619140625 272.6743469238281 C 345.8323974609375 293.64654541015625 359.3855895996094 291.3428649902344 359.36895751953125 246.0414276123047 C 262.102294921875 242.7688446044922 268.2577209472656 245.4780731201172 275.1412353515625 240.5300750732422" fill="rgb(37, 14, 57)" opacity="0.91491336" stroke="rgb(0, 0, 0)" stroke-linecap="round" stroke-linejoin="round" stroke-opacity="1.0" stroke-width="0"/>
    <path d="M 254.54327392578125 463.2276611328125 C 248.24114990234375 447.1466979980469 269.27850341796875 448.08074951171875 257.56634521484375 446.3639831542969 C 214.3452606201172 458.1123962402344 245.3124542236328 461.8435363769531 228.3017120361328 481.38385009765625 C 198.526611328125 440.30072021484375 239.495361328125 445.4408874511719 266.9942321777344 438.3664855957031 C 262.2511291503906 434.8912048339844 278.34600830078125 447.1874694824219 254.54327392578125 463.2276611328125" fill="rgb(2, 10, 167)" opacity="0.9602581" stroke="rgb(0, 0, 0)" stroke-linecap="round" stroke-linejoin="round" stroke-opacity="1.0" stroke-width="0"/>
    <path d="M 184.72630310058594 392.01080322265625 C 212.75050354003906 392.18426513671875 178.79574584960938 386.031494140625 37.29874038696289 374.7542419433594 C 7.004205703735352 378.1066589355469 20.910175323486328 371.31988525390625 21.36956024169922 379.45513916015625 C 23.15239906311035 373.9961242675781 22.15534019470215 382.6609191894531 26.286434173583984 371.8902282714844 C 27.82592010498047 380.3837585449219 14.106486320495605 394.9513244628906 184.72630310058594 392.01080322265625" fill="rgb(231, 252, 235)" opacity="0.95646375" stroke="rgb(0, 0, 0)" stroke-linecap="round" stroke-linejoin="round" stroke-opacity="1.0" stroke-width="0"/>
    <path d="M 538.62060546875 430.05389404296875 C 526.319091796875 428.38995361328125 498.9576110839844 423.4475402832031 494.5282897949219 414.92071533203125 C 502.5599060058594 411.59014892578125 501.85040283203125 413.4505310058594 498.300537109375 413.03448486328125 C 497.796630859375 413.8049011230469 510.52569580078125 413.44207763671875 528.8932495117188 406.2940979003906 C 515.3621826171875 372.2458190917969 509.4638366699219 386.9155578613281 538.62060546875 430.05389404296875" fill="rgb(1, 25, 187)" opacity="0.9239911" stroke="rgb(0, 0, 0)" stroke-linecap="round" stroke-linejoin="round" stroke-opacity="1.0" stroke-width="0"/>
    <path d="M 539.0775146484375 476.684814453125 C 211.49147033691406 491.4321594238281 196.93409729003906 490.1349792480469 154.7704315185547 483.45184326171875 C 206.42697143554688 443.1071472167969 253.89601135253906 446.2852783203125 -15.591804504394531 445.6257019042969 C -30.082172393798828 466.83782958984375 91.33843994140625 468.75689697265625 268.8682861328125 459.7771301269531 C 344.5270080566406 463.5769348144531 500.24560546875 452.5344543457031 539.0775146484375 476.684814453125" fill="rgb(33, 81, 153)" opacity="0.90365875" stroke="rgb(0, 0, 0)" stroke-linecap="round" stroke-linejoin="round" stroke-opacity="1.0" stroke-width="0"/>
    <path d="M 258.20684814453125 377.14178466796875 C 268.98406982421875 425.3407897949219 266.0495910644531 435.4635314941406 249.67750549316406 435.2979431152344 C 233.940673828125 414.0223083496094 224.05088806152344 403.5731506347656 219.75160217285156 388.94342041015625 C 221.76080322265625 375.990966796875 238.74053955078125 378.02435302734375 255.8312530517578 375.6573791503906 C 257.0760192871094 359.2676696777344 266.5390930175781 374.9015808105469 258.20684814453125 377.14178466796875" fill="rgb(23, 116, 150)" opacity="0.12878068" stroke="rgb(0, 0, 0)" stroke-linecap="round" stroke-linejoin="round" stroke-opacity="1.0" stroke-width="0"/>
    <path d="M 21.521116256713867 447.92413330078125 C 27.865550994873047 475.5394592285156 16.342687606811523 477.3078308105469 23.7650203704834 493.15802001953125 C -12.314435958862305 489.7662658691406 -4.031404972076416 499.77532958984375 -10.594164848327637 461.18572998046875 C -9.734519958496094 441.6421813964844 -6.920775890350342 445.287841796875 18.147932052612305 444.68115234375 C 10.236047744750977 449.9667663574219 10.254817962646484 460.1433410644531 21.521116256713867 447.92413330078125" fill="rgb(52, 73, 167)" opacity="0.0" stroke="rgb(0, 0, 0)" stroke-linecap="round" stroke-linejoin="round" stroke-opacity="1.0" stroke-width="0"/>
    <path d="M 262.7132568359375 467.0311279296875 C 263.5649719238281 491.9677429199219 274.8775329589844 475.4048156738281 254.13572692871094 458.9577941894531 C 223.7666778564453 463.1625671386719 233.20880126953125 473.17425537109375 227.5481719970703 442.7781066894531 C 225.41651916503906 414.7724304199219 222.06243896484375 431.92333984375 261.8681640625 428.42132568359375 C 266.00103759765625 444.0881652832031 258.5265197753906 454.3835144042969 262.7132568359375 467.0311279296875" fill="rgb(4, 56, 151)" opacity="0.84392655" stroke="rgb(0, 0, 0)" stroke-linecap="round" stroke-linejoin="round" stroke-opacity="1.0" stroke-width="0"/>
    <path d="M 210.8542022705078 423.8021240234375 C 220.1699676513672 434.5005187988281 210.15817260742188 420.4375 187.29586791992188 418.52978515625 C 179.85594177246094 419.5564270019531 153.639404296875 421.8633728027344 119.53376770019531 417.3111877441406 C 153.04371643066406 392.3507995605469 147.19822692871094 380.9198303222656 157.41673278808594 402.5888366699219 C 184.7478485107422 401.30352783203125 206.6027069091797 397.46929931640625 210.8542022705078 423.8021240234375" fill="rgb(26, 70, 178)" opacity="1.0" stroke="rgb(0, 0, 0)" stroke-linecap="round" stroke-linejoin="round" stroke-opacity="1.0" stroke-width="0"/>
    <path d="M 353.1337585449219 397.6285400390625 C 338.2152099609375 388.6328430175781 339.8087158203125 406.93670654296875 324.8448181152344 446.1395263671875 C 297.2074279785156 436.760009765625 302.0821533203125 421.8650817871094 309.06707763671875 390.9153137207031 C 296.85150146484375 374.3321838378906 308.19091796875 368.7288818359375 354.62457275390625 362.2159423828125 C 366.45416259765625 367.9941101074219 359.6258544921875 356.63140869140625 353.1337585449219 397.6285400390625" fill="rgb(41, 65, 146)" opacity="0.83138967" stroke="rgb(0, 0, 0)" stroke-linecap="round" stroke-linejoin="round" stroke-opacity="1.0" stroke-width="0"/>
    <path d="M 147.94493103027344 120.3760986328125 C 135.6256561279297 133.7312469482422 123.9921875 138.3958740234375 123.75775909423828 136.81546020507812 C 119.67938995361328 153.52139282226562 102.48535919189453 140.5741424560547 108.74508666992188 103.74311828613281 C 90.72872161865234 94.29537963867188 91.66226959228516 92.02960205078125 106.04462432861328 86.97085571289062 C 128.72802734375 85.26200866699219 151.67120361328125 104.04074096679688 147.94493103027344 120.3760986328125" fill="rgb(1, 9, 83)" opacity="0.98266083" stroke="rgb(0, 0, 0)" stroke-linecap="round" stroke-linejoin="round" stroke-opacity="1.0" stroke-width="0"/>
    <path d="M 115.91307830810547 147.97955322265625 C 124.05047607421875 136.91900634765625 120.11643981933594 139.80670166015625 106.25651550292969 128.84365844726562 C 93.40603637695312 130.59600830078125 83.22603607177734 131.11080932617188 79.080322265625 136.8473663330078 C 76.28074645996094 122.50222778320312 83.16238403320312 105.76519012451172 92.72343444824219 89.46062469482422 C 111.81324768066406 104.31891632080078 112.65689849853516 123.51885223388672 115.91307830810547 147.97955322265625" fill="rgb(0, 1, 50)" opacity="1.0" stroke="rgb(0, 0, 0)" stroke-linecap="round" stroke-linejoin="round" stroke-opacity="1.0" stroke-width="0"/>
    <path d="M 262.00738525390625 422.60968017578125 C 264.8751220703125 426.5367126464844 262.1144104003906 435.9449157714844 263.48529052734375 437.9645690917969 C 245.06222534179688 427.32440185546875 225.79042053222656 436.8106994628906 194.68923950195312 423.2462158203125 C 217.21669006347656 406.6910400390625 239.4362335205078 420.00054931640625 256.3623046875 419.86846923828125 C 260.6722106933594 418.14813232421875 262.7608337402344 428.54498291015625 262.00738525390625 422.60968017578125" fill="rgb(245, 209, 136)" opacity="0.69397277" stroke="rgb(0, 0, 0)" stroke-linecap="round" stroke-linejoin="round" stroke-opacity="1.0" stroke-width="0"/>
    <path d="M 317.88153076171875 429.9851379394531 C 281.6182861328125 430.7649841308594 258.3116760253906 430.789794921875 252.83883666992188 433.8435363769531 C 254.5662384033203 434.56756591796875 254.1168975830078 433.9319763183594 263.07513427734375 441.5982971191406 C 261.68115234375 429.356201171875 260.2288818359375 419.20843505859375 263.2036437988281 414.9576110839844 C 282.6546936035156 418.0157775878906 290.7496337890625 419.94525146484375 317.88153076171875 429.9851379394531" fill="rgb(118, 89, 110)" opacity="0.65748847" stroke="rgb(0, 0, 0)" stroke-linecap="round" stroke-linejoin="round" stroke-opacity="1.0" stroke-width="0"/>
    <path d="M 158.2515411376953 364.76153564453125 C 175.90676879882812 367.485595703125 165.7392120361328 377.563720703125 132.81216430664062 376.05364990234375 C 135.755859375 377.32049560546875 132.6736297607422 366.8380432128906 132.46385192871094 344.7622985839844 C 133.66050720214844 332.57269287109375 133.4804229736328 326.8286437988281 165.4482879638672 333.9088134765625 C 170.92335510253906 329.0597229003906 169.77230834960938 337.059326171875 158.2515411376953 364.76153564453125" fill="rgb(15, 29, 218)" opacity="6.933129e-05" stroke="rgb(0, 0, 0)" stroke-linecap="round" stroke-linejoin="round" stroke-opacity="1.0" stroke-width="0"/>
    <path d="M 430.9949951171875 161.3680419921875 C 423.465576171875 168.8686065673828 435.4276123046875 166.93455505371094 417.9830627441406 165.01844787597656 C 418.71466064453125 162.78323364257812 396.3728942871094 159.84910583496094 386.1572265625 143.7652587890625 C 388.1759948730469 123.70655059814453 400.8256530761719 118.72779083251953 425.0263671875 128.45553588867188 C 434.29522705078125 130.90476989746094 444.7549133300781 144.04336547851562 430.9949951171875 161.3680419921875" fill="rgb(5, 4, 67)" opacity="1.0" stroke="rgb(0, 0, 0)" stroke-linecap="round" stroke-linejoin="round" stroke-opacity="1.0" stroke-width="0"/>
    <path d="M 314.27667236328125 292.2864990234375 C 305.1032409667969 301.8755798339844 290.6891784667969 302.7006530761719 278.04058837890625 300.2000427246094 C 256.75665283203125 316.9020080566406 259.43524169921875 326.8959655761719 269.8495788574219 312.6599426269531 C 263.5766296386719 276.8270568847656 277.3269958496094 280.893798828125 297.3678283691406 277.8959655761719 C 285.15447998046875 293.3551025390625 297.3437805175781 292.0044250488281 314.27667236328125 292.2864990234375" fill="rgb(255, 44, 164)" opacity="0.013346124" stroke="rgb(0, 0, 0)" stroke-linecap="round" stroke-linejoin="round" stroke-opacity="1.0" stroke-width="0"/>
    <path d="M 358.74639892578125 101.20092010498047 C 353.1996154785156 126.01692199707031 347.40899658203125 137.25778198242188 334.708251953125 130.890380859375 C 322.6627502441406 131.08758544921875 322.99285888671875 115.50920867919922 318.2996520996094 106.84943389892578 C 298.8150939941406 73.88854217529297 296.4408874511719 69.23655700683594 332.9132080078125 67.65294647216797 C 345.6450500488281 72.50362396240234 364.5269470214844 80.0810546875 358.74639892578125 101.20092010498047" fill="rgb(9, 2, 80)" opacity="0.927106" stroke="rgb(0, 0, 0)" stroke-linecap="round" stroke-linejoin="round" stroke-opacity="1.0" stroke-width="0"/>
    <path d="M 284.1274719238281 219.02371215820312 C 279.8741149902344 219.80145263671875 276.5495300292969 225.5379180908203 277.6203308105469 228.72035217285156 C 276.4993896484375 224.0930938720703 253.42298889160156 223.23513793945312 235.40867614746094 220.47938537597656 C 232.0699920654297 203.86082458496094 246.8743438720703 210.28500366210938 263.7554016113281 214.65151977539062 C 271.35675048828125 211.96636962890625 282.5247497558594 220.31295776367188 284.1274719238281 219.02371215820312" fill="rgb(38, 136, 64)" opacity="0.0" stroke="rgb(0, 0, 0)" stroke-linecap="round" stroke-linejoin="round" stroke-opacity="1.0" stroke-width="0"/>
    <path d="M 34.0506706237793 89.33733367919922 C 28.288410186767578 103.70021057128906 11.97530460357666 100.9370346069336 13.900371551513672 123.3863754272461 C 3.5794498920440674 126.75244140625 -8.507979393005371 113.49727630615234 5.4143195152282715 107.7340087890625 C 4.491485595703125 83.02067565917969 -4.104140281677246 76.8883285522461 4.7619476318359375 70.20867156982422 C 29.345417022705078 69.02854919433594 34.689754486083984 80.95904541015625 34.0506706237793 89.33733367919922" fill="rgb(52, 36, 97)" opacity="0.88344806" stroke="rgb(0, 0, 0)" stroke-linecap="round" stroke-linejoin="round" stroke-opacity="1.0" stroke-width="0"/>
    <path d="M 43.321868896484375 325.9355773925781 C 46.48603820800781 339.8664855957031 53.08946990966797 331.85302734375 38.726505279541016 329.7267761230469 C 29.027210235595703 335.41070556640625 28.021974563598633 332.25531005859375 28.104928970336914 304.9996337890625 C 19.53409767150879 314.46185302734375 32.05216979980469 314.04150390625 46.019222259521484 316.31982421875 C 54.6059455871582 299.9534606933594 54.612640380859375 309.3379211425781 43.321868896484375 325.9355773925781" fill="rgb(13, 101, 172)" opacity="0.07292408" stroke="rgb(0, 0, 0)" stroke-linecap="round" stroke-linejoin="round" stroke-opacity="1.0" stroke-width="0"/>
    <path d="M 227.89315795898438 461.51580810546875 C 213.96388244628906 474.0926208496094 220.87535095214844 492.5148010253906 209.0191650390625 482.1199951171875 C 195.41990661621094 480.8485107421875 196.81236267089844 471.2896423339844 187.16363525390625 464.9041442871094 C 175.46466064453125 446.0679016113281 180.21820068359375 435.5852966308594 205.9636993408203 440.2773742675781 C 220.89138793945312 442.8020935058594 231.9959259033203 448.6229553222656 227.89315795898438 461.51580810546875" fill="rgb(7, 52, 152)" opacity="0.9924335" stroke="rgb(0, 0, 0)" stroke-linecap="round" stroke-linejoin="round" stroke-opacity="1.0" stroke-width="0"/>
    <path d="M 185.9718780517578 450.0342102050781 C 205.73765563964844 464.62005615234375 199.0279998779297 468.25653076171875 180.3240966796875 472.34710693359375 C 168.71800231933594 465.4996643066406 160.04498291015625 453.5343322753906 144.743408203125 443.1392822265625 C 150.8200225830078 436.8680725097656 154.65890502929688 441.4937744140625 167.88795471191406 443.1703796386719 C 181.44287109375 447.69927978515625 186.0709991455078 443.1712341308594 185.9718780517578 450.0342102050781" fill="rgb(26, 94, 209)" opacity="0.9999691" stroke="rgb(0, 0, 0)" stroke-linecap="round" stroke-linejoin="round" stroke-opacity="1.0" stroke-width="0"/>
    <path d="M 191.2213134765625 236.26559448242188 C 187.92713928222656 255.476318359375 185.91494750976562 263.78240966796875 170.4960479736328 263.5292663574219 C 164.05136108398438 269.39276123046875 164.36956787109375 260.8973083496094 162.52755737304688 239.13894653320312 C 154.67042541503906 232.42587280273438 161.7436981201172 228.05006408691406 181.1524658203125 230.80540466308594 C 175.03590393066406 234.18304443359375 189.84478759765625 235.28599548339844 191.2213134765625 236.26559448242188" fill="rgb(97, 112, 194)" opacity="0.0" stroke="rgb(0, 0, 0)" stroke-linecap="round" stroke-linejoin="round" stroke-opacity="1.0" stroke-width="0"/>
    <path d="M 198.3483428955078 436.9393310546875 C 198.39254760742188 458.23095703125 190.3730010986328 459.6137390136719 170.35504150390625 448.4864501953125 C 154.3682861328125 448.3157043457031 160.64694213867188 438.193115234375 154.10984802246094 423.3567810058594 C 164.108642578125 423.3293151855469 179.78872680664062 425.40435791015625 166.01145935058594 407.86187744140625 C 174.11463928222656 416.66619873046875 185.0824432373047 427.7491455078125 198.3483428955078 436.9393310546875" fill="rgb(184, 253, 140)" opacity="0.017201155" stroke="rgb(0, 0, 0)" stroke-linecap="round" stroke-linejoin="round" stroke-opacity="1.0" stroke-width="0"/>
    <path d="M 243.16603088378906 229.65457153320312 C 201.04554748535156 240.9757537841797 181.1749725341797 240.8267364501953 177.4552459716797 249.31253051757812 C 188.7496795654297 254.9111785888672 174.38327026367188 250.69308471679688 170.9644012451172 244.09063720703125 C 178.57147216796875 233.8111114501953 180.9785919189453 218.56512451171875 184.63572692871094 206.4947509765625 C 207.57533264160156 186.68299865722656 239.74571228027344 190.38485717773438 243.16603088378906 229.65457153320312" fill="rgb(58, 145, 178)" opacity="0.056511838" stroke="rgb(0, 0, 0)" stroke-linecap="round" stroke-linejoin="round" stroke-opacity="1.0" stroke-width="0"/>
    <path d="M 282.2603759765625 254.6028289794922 C 282.9406433105469 253.84591674804688 262.8389587402344 252.0648193359375 280.95794677734375 254.25535583496094 C 274.5799560546875 255.47743225097656 267.4144287109375 254.6282196044922 275.705810546875 251.3441162109375 C 268.54052734375 253.31590270996094 276.7142639160156 244.5860137939453 280.4959716796875 238.46058654785156 C 280.59613037109375 237.7432098388672 279.9565734863281 253.02279663085938 282.2603759765625 254.6028289794922" fill="rgb(41, 0, 0)" opacity="0.0" stroke="rgb(0, 0, 0)" stroke-linecap="round" stroke-linejoin="round" stroke-opacity="1.0" stroke-width="0"/>
    <path d="M 183.1803741455078 358.982177734375 C 189.44947814941406 350.59375 175.61032104492188 355.7125244140625 176.16275024414062 350.6282653808594 C 167.3481903076172 355.05535888671875 158.19854736328125 349.7484436035156 162.44761657714844 343.8806457519531 C 156.11929321289062 337.2735595703125 164.17376708984375 330.08526611328125 168.26544189453125 318.7390441894531 C 176.8028564453125 326.8570861816406 179.58448791503906 339.951171875 183.1803741455078 358.982177734375" fill="rgb(38, 6, 47)" opacity="0.35667944" stroke="rgb(0, 0, 0)" stroke-linecap="round" stroke-linejoin="round" stroke-opacity="1.0" stroke-width="0"/>
    <path d="M 90.02014923095703 447.48504638671875 C 74.40172576904297 453.8331604003906 70.04231262207031 458.98822021484375 68.08686065673828 447.6163635253906 C 63.13404083251953 454.9120178222656 59.5764274597168 444.0365905761719 50.951332092285156 439.9903259277344 C 45.18507385253906 439.6322021484375 48.18896484375 421.8648681640625 53.31917190551758 438.6837463378906 C 69.09062194824219 436.4962463378906 79.58748626708984 438.9546813964844 90.02014923095703 447.48504638671875" fill="rgb(91, 155, 7)" opacity="0.055008847" stroke="rgb(0, 0, 0)" stroke-linecap="round" stroke-linejoin="round" stroke-opacity="1.0" stroke-width="0"/>
    <path d="M 462.2958984375 466.6572265625 C 467.01214599609375 478.0517578125 463.1116027832031 484.37872314453125 434.8251037597656 481.35400390625 C 431.56719970703125 476.2567138671875 429.6216125488281 460.01568603515625 432.57000732421875 447.02850341796875 C 433.00665283203125 447.0582580566406 434.0982666015625 441.306884765625 445.3966064453125 435.63897705078125 C 456.9322204589844 433.7469177246094 457.818359375 439.3773193359375 462.2958984375 466.6572265625" fill="rgb(77, 84, 168)" opacity="0.0" stroke="rgb(0, 0, 0)" stroke-linecap="round" stroke-linejoin="round" stroke-opacity="1.0" stroke-width="0"/>
    <path d="M 108.3388900756836 140.54624938964844 C 99.02792358398438 145.3035125732422 82.52752685546875 148.18873596191406 79.6386947631836 153.15333557128906 C 80.05318450927734 145.50181579589844 76.14241790771484 134.53636169433594 66.12077331542969 127.49835968017578 C 50.93000411987305 117.4080810546875 56.52855682373047 111.44100189208984 80.39518737792969 109.6999282836914 C 82.25597381591797 113.29669189453125 92.25297546386719 124.5161361694336 108.3388900756836 140.54624938964844" fill="rgb(90, 184, 229)" opacity="1.0" stroke="rgb(0, 0, 0)" stroke-linecap="round" stroke-linejoin="round" stroke-opacity="1.0" stroke-width="0"/>
    <path d="M 237.7755889892578 66.00520324707031 C 219.71250915527344 82.89636993408203 211.50453186035156 91.78128051757812 201.35922241210938 111.98059844970703 C 183.1189727783203 112.0147933959961 178.0088348388672 102.51225280761719 170.1822052001953 90.20700073242188 C 172.73434448242188 53.661094665527344 178.6112518310547 36.785526275634766 214.00511169433594 19.139795303344727 C 252.961181640625 27.987751007080078 260.543701171875 46.75331497192383 237.7755889892578 66.00520324707031" fill="rgb(38, 181, 223)" opacity="0.23868425" stroke="rgb(0, 0, 0)" stroke-linecap="round" stroke-linejoin="round" stroke-opacity="1.0" stroke-width="0"/>
    <path d="M 455.3388671875 354.0272216796875 C 464.557861328125 376.7790832519531 453.2762756347656 383.2727966308594 441.54449462890625 380.8759460449219 C 430.8490905761719 381.32281494140625 423.9338073730469 370.66552734375 406.34088134765625 361.92449951171875 C 423.397705078125 362.1388244628906 437.19061279296875 358.08941650390625 438.5885314941406 346.8550720214844 C 452.52191162109375 343.2262878417969 450.8099365234375 347.30029296875 455.3388671875 354.0272216796875" fill="rgb(125, 120, 26)" opacity="0.015518252" stroke="rgb(0, 0, 0)" stroke-linecap="round" stroke-linejoin="round" stroke-opacity="1.0" stroke-width="0"/>
    <path d="M 39.18947219848633 130.70420837402344 C 49.84414291381836 137.45945739746094 47.30323028564453 138.1514892578125 28.27548599243164 133.1558837890625 C 23.916643142700195 130.12579345703125 12.763249397277832 121.356201171875 10.338574409484863 109.04872131347656 C -1.6903042793273926 106.64533996582031 8.86811637878418 114.34832763671875 20.99869155883789 109.30612182617188 C 22.516225814819336 111.44203186035156 31.096111297607422 119.71771240234375 39.18947219848633 130.70420837402344" fill="rgb(10, 18, 52)" opacity="0.04590927" stroke="rgb(0, 0, 0)" stroke-linecap="round" stroke-linejoin="round" stroke-opacity="1.0" stroke-width="0"/>
    <path d="M 400.8845520019531 106.30184936523438 C 402.1339416503906 124.10291290283203 390.02825927734375 136.63223266601562 371.2443542480469 145.56263732910156 C 351.8910217285156 131.38536071777344 346.2197265625 122.27059173583984 355.661376953125 107.99481964111328 C 362.750732421875 102.17866516113281 367.6307373046875 96.26803588867188 370.8580322265625 82.01400756835938 C 382.41851806640625 88.09651184082031 396.2352600097656 94.27325439453125 400.8845520019531 106.30184936523438" fill="rgb(156, 205, 252)" opacity="0.03611051" stroke="rgb(0, 0, 0)" stroke-linecap="round" stroke-linejoin="round" stroke-opacity="1.0" stroke-width="0"/>
    <path d="M 38.445987701416016 483.7178955078125 C 50.687782287597656 492.5543212890625 45.83993148803711 496.700439453125 31.62542724609375 495.7220764160156 C 23.46377944946289 482.12786865234375 12.983509063720703 475.72052001953125 16.06251335144043 470.3161926269531 C 12.882855415344238 463.13031005859375 16.991455078125 449.8119812011719 40.013248443603516 442.0132751464844 C 37.4395637512207 460.1431579589844 36.03007507324219 473.0641784667969 38.445987701416016 483.7178955078125" fill="rgb(24, 65, 250)" opacity="0.14282987" stroke="rgb(0, 0, 0)" stroke-linecap="round" stroke-linejoin="round" stroke-opacity="1.0" stroke-width="0"/>
    <path d="M 147.88177490234375 251.6600341796875 C 159.6365966796875 269.53118896484375 160.66517639160156 275.3358154296875 136.2304229736328 267.3667907714844 C 130.38174438476562 258.15625 120.11949157714844 249.51214599609375 115.72630310058594 240.93270874023438 C 113.6541976928711 227.8043212890625 123.33052062988281 221.1337432861328 132.88226318359375 218.01829528808594 C 144.91717529296875 227.3212890625 146.06903076171875 233.65187072753906 147.88177490234375 251.6600341796875" fill="rgb(189, 246, 174)" opacity="0.08557353" stroke="rgb(0, 0, 0)" stroke-linecap="round" stroke-linejoin="round" stroke-opacity="1.0" stroke-width="0"/>
  </g>
</svg>
