<?xml version="1.0" ?>
<svg height="512" style="background-color: rgb(255, 228, 128, 0.21396641433238983)" version="1.1" width="512" xmlns="http://www.w3.org/2000/svg">
  <defs/>
  <g>
    <path d="M 533.2921752929688 452.5184631347656 C 547.3841552734375 517.6007080078125 549.248779296875 525.60107421875 393.56689453125 531.0963745117188 C 327.9168701171875 557.0165405273438 305.8582763671875 553.8141479492188 185.624755859375 441.32354736328125 C 273.83270263671875 344.8516540527344 380.6940002441406 367.48699951171875 488.6285400390625 321.0843811035156 C 558.4470825195312 329.6527404785156 561.1321411132812 344.7058410644531 533.2921752929688 452.5184631347656" fill="rgb(13, 10, 167)" opacity="0.99188864" stroke="rgb(0, 0, 0)" stroke-linecap="round" stroke-linejoin="round" stroke-opacity="1.0" stroke-width="0"/>
    <path d="M 244.34390258789062 360.7047424316406 C 134.80038452148438 420.67578125 286.9119567871094 444.5079345703125 304.7804260253906 512.4036865234375 C -44.651954650878906 528.3927001953125 -48.165767669677734 517.2427978515625 -40.955081939697266 478.3226013183594 C -14.521895408630371 211.37890625 -0.2553139626979828 204.9003448486328 38.173728942871094 277.5963439941406 C 102.05551147460938 323.7829895019531 109.28238677978516 315.1951904296875 244.34390258789062 360.7047424316406" fill="rgb(21, 21, 245)" opacity="1.0" stroke="rgb(0, 0, 0)" stroke-linecap="round" stroke-linejoin="round" stroke-opacity="1.0" stroke-width="0"/>
    <path d="M 84.77157592773438 260.55059814453125 C 79.03487396240234 235.67654418945312 98.14230346679688 270.2242736816406 95.43208312988281 274.853759765625 C 100.13671875 275.6632995605469 42.66625213623047 307.62274169921875 -25.82283592224121 225.92544555664062 C -22.158727645874023 149.67349243164062 10.27489948272705 144.8519287109375 64.37059020996094 183.8956756591797 C 74.19841766357422 277.1548767089844 102.86842346191406 256.5989990234375 84.77157592773438 260.55059814453125" fill="rgb(122, 79, 255)" opacity="0.57481945" stroke="rgb(0, 0, 0)" stroke-linecap="round" stroke-linejoin="round" stroke-opacity="1.0" stroke-width="0"/>
    <path d="M 266.5680236816406 -14.078341484069824 C 236.00238037109375 175.3951416015625 188.0576934814453 135.3030548095703 -0.18789449334144592 199.02923583984375 C -33.7485466003418 217.76109313964844 -29.48307991027832 201.79559326171875 -17.92658042907715 148.86439514160156 C -16.62432861328125 -18.87202262878418 -10.865315437316895 -24.613622665405273 31.51451873779297 -18.21005630493164 C 196.42433166503906 -23.14659881591797 220.8636474609375 -34.640926361083984 266.5680236816406 -14.078341484069824" fill="rgb(44, 11, 255)" opacity="0.9531546" stroke="rgb(0, 0, 0)" stroke-linecap="round" stroke-linejoin="round" stroke-opacity="1.0" stroke-width="0"/>
    <path d="M 553.6897583007812 125.3773422241211 C 472.363037109375 292.6092529296875 445.6101379394531 289.41015625 328.82586669921875 327.6320495605469 C 254.0465087890625 385.0885925292969 235.4784698486328 341.41156005859375 278.76812744140625 106.80220031738281 C 207.18252563476562 34.942100524902344 191.4930877685547 7.371971607208252 441.2323303222656 -17.026161193847656 C 563.2000122070312 -2.1856372356414795 563.2000122070312 13.303318977355957 553.6897583007812 125.3773422241211" fill="rgb(255, 117, 12)" opacity="0.423732" stroke="rgb(0, 0, 0)" stroke-linecap="round" stroke-linejoin="round" stroke-opacity="1.0" stroke-width="0"/>
    <path d="M 334.4956970214844 106.26660919189453 C 238.3155975341797 316.6086120605469 225.5964813232422 283.9743347167969 236.40370178222656 170.3197021484375 C 68.60648345947266 230.8152313232422 100.93462371826172 163.33213806152344 64.33026885986328 130.60304260253906 C 72.6506118774414 129.89324951171875 97.60459899902344 101.62223052978516 303.01824951171875 21.35496711730957 C 304.69342041015625 -18.365215301513672 292.5549011230469 -11.967917442321777 334.4956970214844 106.26660919189453" fill="rgb(195, 91, 0)" opacity="1.0" stroke="rgb(0, 0, 0)" stroke-linecap="round" stroke-linejoin="round" stroke-opacity="1.0" stroke-width="0"/>
    <path d="M 428.3356018066406 337.3843688964844 C 444.0644836425781 411.946044921875 433.09088134765625 400.7314758300781 325.8916320800781 490.23846435546875 C 311.60906982421875 396.4612731933594 290.94775390625 409.8110046386719 298.3447570800781 380.31890869140625 C 218.81228637695312 202.35350036621094 212.16368103027344 71.33106231689453 198.0069122314453 101.79734802246094 C 474.0771179199219 164.63888549804688 462.12481689453125 226.39906311035156 428.3356018066406 337.3843688964844" fill="rgb(156, 114, 0)" opacity="1.0" stroke="rgb(0, 0, 0)" stroke-linecap="round" stroke-linejoin="round" stroke-opacity="1.0" stroke-width="0"/>
    <path d="M 428.6061096191406 220.5316925048828 C 353.8737487792969 238.91152954101562 378.4253845214844 213.5391387939453 337.8943786621094 198.76332092285156 C 345.0019226074219 264.947021484375 293.3623962402344 193.146728515625 245.77304077148438 136.8731231689453 C 185.8311309814453 122.44557189941406 309.73876953125 90.97566986083984 366.25115966796875 127.42781066894531 C 454.1646423339844 178.05563354492188 352.0476379394531 161.6352081298828 428.6061096191406 220.5316925048828" fill="rgb(182, 122, 0)" opacity="0.77622044" stroke="rgb(0, 0, 0)" stroke-linecap="round" stroke-linejoin="round" stroke-opacity="1.0" stroke-width="0"/>
    <path d="M 266.71392822265625 273.83563232421875 C 244.61607360839844 265.8656921386719 209.96031188964844 162.506103515625 281.90301513671875 407.382080078125 C 206.33448791503906 296.74395751953125 86.75468444824219 321.0349426269531 72.72866821289062 286.6265869140625 C 33.138221740722656 54.5186653137207 130.00753784179688 277.54632568359375 204.2471466064453 159.33322143554688 C 309.9814147949219 248.5342254638672 158.7722625732422 202.79302978515625 266.71392822265625 273.83563232421875" fill="rgb(255, 254, 96)" opacity="0.31812906" stroke="rgb(0, 0, 0)" stroke-linecap="round" stroke-linejoin="round" stroke-opacity="1.0" stroke-width="0"/>
    <path d="M 391.7215881347656 281.2864685058594 C 411.27911376953125 250.9738006591797 464.5380859375 284.381591796875 406.48223876953125 272.0533142089844 C 340.5944519042969 243.379150390625 348.17840576171875 272.6102600097656 372.1245422363281 257.680419921875 C 293.8550109863281 228.6440887451172 287.6847839355469 236.8341827392578 428.6599426269531 210.08163452148438 C 352.8099670410156 253.57357788085938 509.6253662109375 242.84817504882812 391.7215881347656 281.2864685058594" fill="rgb(232, 62, 0)" opacity="0.14426126" stroke="rgb(0, 0, 0)" stroke-linecap="round" stroke-linejoin="round" stroke-opacity="1.0" stroke-width="0"/>
    <path d="M 327.5398864746094 116.35929107666016 C 280.66876220703125 171.71664428710938 321.7237548828125 103.91436004638672 242.61932373046875 129.7220916748047 C 241.53909301757812 188.22235107421875 186.97659301757812 193.28895568847656 152.52517700195312 100.73941040039062 C 190.94161987304688 48.52241516113281 193.58084106445312 29.372045516967773 259.6251525878906 0.504827082157135 C 329.32568359375 8.319982528686523 327.76385498046875 30.948848724365234 327.5398864746094 116.35929107666016" fill="rgb(32, 9, 242)" opacity="0.9980797" stroke="rgb(0, 0, 0)" stroke-linecap="round" stroke-linejoin="round" stroke-opacity="1.0" stroke-width="0"/>
    <path d="M 219.36337280273438 341.65130615234375 C 198.93479919433594 356.8403015136719 189.1044921875 398.5975341796875 167.9910888671875 372.951171875 C 153.19076538085938 393.7089538574219 132.9633026123047 367.0874938964844 162.00247192382812 363.52471923828125 C 191.10169982910156 374.5944519042969 158.11073303222656 246.2049102783203 200.03468322753906 272.8116149902344 C 338.45843505859375 379.56488037109375 355.1472473144531 395.5967102050781 219.36337280273438 341.65130615234375" fill="rgb(255, 251, 210)" opacity="1.0" stroke="rgb(0, 0, 0)" stroke-linecap="round" stroke-linejoin="round" stroke-opacity="1.0" stroke-width="0"/>
    <path d="M 530.38720703125 82.84906005859375 C 558.6380004882812 176.59727478027344 556.27099609375 234.0840606689453 367.4457702636719 216.3067169189453 C 392.880126953125 116.00253295898438 326.4441223144531 147.76324462890625 294.15570068359375 -28.344074249267578 C 401.4630126953125 -25.179859161376953 418.7160949707031 -24.191287994384766 476.8222961425781 -23.146240234375 C 536.4163818359375 -5.945523738861084 523.91015625 20.166061401367188 530.38720703125 82.84906005859375" fill="rgb(38, 15, 193)" opacity="1.0" stroke="rgb(0, 0, 0)" stroke-linecap="round" stroke-linejoin="round" stroke-opacity="1.0" stroke-width="0"/>
    <path d="M 468.8483581542969 338.71392822265625 C 474.5964660644531 359.85284423828125 457.8230895996094 373.95843505859375 442.7301330566406 385.3352966308594 C 420.0691833496094 413.0577087402344 408.7120666503906 407.49755859375 385.9884033203125 327.0647277832031 C 481.75653076171875 337.8976135253906 361.385986328125 264.8617248535156 410.29302978515625 300.5439147949219 C 488.9957275390625 277.7305603027344 483.4141540527344 295.53118896484375 468.8483581542969 338.71392822265625" fill="rgb(14, 13, 188)" opacity="1.0" stroke="rgb(0, 0, 0)" stroke-linecap="round" stroke-linejoin="round" stroke-opacity="1.0" stroke-width="0"/>
    <path d="M 362.8587341308594 413.7218322753906 C 351.19256591796875 497.2129821777344 338.52154541015625 512.49560546875 290.712646484375 508.8765563964844 C 236.7259521484375 431.5523681640625 221.5341033935547 439.5791931152344 223.8168487548828 425.91748046875 C 200.56405639648438 389.1014099121094 206.4541015625 376.0762023925781 320.4306945800781 398.9432067871094 C 358.24969482421875 350.22088623046875 348.60638427734375 346.3824462890625 362.8587341308594 413.7218322753906" fill="rgb(0, 12, 194)" opacity="0.962403" stroke="rgb(0, 0, 0)" stroke-linecap="round" stroke-linejoin="round" stroke-opacity="1.0" stroke-width="0"/>
    <path d="M 254.98753356933594 266.42645263671875 C 217.2598114013672 309.53143310546875 231.3406982421875 248.97474670410156 246.83480834960938 328.61163330078125 C 204.50926208496094 293.3569641113281 183.71051025390625 290.96331787109375 195.20643615722656 275.8647766113281 C 193.84976196289062 205.5039520263672 185.82464599609375 223.47547912597656 255.1566162109375 227.796142578125 C 249.39122009277344 260.3454895019531 188.57461547851562 246.9640350341797 254.98753356933594 266.42645263671875" fill="rgb(255, 244, 193)" opacity="0.60834116" stroke="rgb(0, 0, 0)" stroke-linecap="round" stroke-linejoin="round" stroke-opacity="1.0" stroke-width="0"/>
    <path d="M 458.412109375 436.0667419433594 C 437.7540283203125 507.2349548339844 433.8336486816406 517.8501586914062 343.4434814453125 560.5658569335938 C 283.33453369140625 547.1394653320312 264.3661804199219 530.4782104492188 276.85333251953125 461.7984619140625 C 325.8283386230469 406.2504577636719 339.9465637207031 404.0252685546875 372.16351318359375 369.2639465332031 C 459.65447998046875 359.6900939941406 457.8808288574219 371.6470947265625 458.412109375 436.0667419433594" fill="rgb(20, 28, 207)" opacity="0.9801327" stroke="rgb(0, 0, 0)" stroke-linecap="round" stroke-linejoin="round" stroke-opacity="1.0" stroke-width="0"/>
    <path d="M 224.84498596191406 23.849687576293945 C 207.21102905273438 -8.158583641052246 186.396728515625 28.74323844909668 186.72227478027344 34.394737243652344 C 211.9456329345703 34.683040618896484 196.749267578125 14.767400741577148 155.15953063964844 64.54010009765625 C 207.7479248046875 82.47477722167969 222.3076934814453 40.26588439941406 223.9929656982422 36.174434661865234 C 212.51016235351562 26.483922958374023 221.61203002929688 46.01512145996094 224.84498596191406 23.849687576293945" fill="rgb(96, 25, 193)" opacity="0.0672922" stroke="rgb(0, 0, 0)" stroke-linecap="round" stroke-linejoin="round" stroke-opacity="1.0" stroke-width="0"/>
    <path d="M 400.38665771484375 151.68470764160156 C 327.6336975097656 162.2489776611328 348.2953796386719 194.7882537841797 346.63153076171875 140.36886596679688 C 300.22418212890625 168.138427734375 330.2601013183594 176.22906494140625 311.2559509277344 118.94377899169922 C 310.5569763183594 91.29470825195312 315.5881652832031 98.00629425048828 310.2298278808594 78.72544860839844 C 339.7529296875 70.31607055664062 384.72723388671875 65.53588104248047 400.38665771484375 151.68470764160156" fill="rgb(42, 21, 222)" opacity="0.9187148" stroke="rgb(0, 0, 0)" stroke-linecap="round" stroke-linejoin="round" stroke-opacity="1.0" stroke-width="0"/>
    <path d="M 324.3103332519531 377.1292724609375 C 353.71807861328125 433.0235290527344 293.1595153808594 399.8157653808594 240.87269592285156 405.9554443359375 C 214.56216430664062 437.2362976074219 190.35874938964844 415.5945129394531 210.80087280273438 382.1939392089844 C 268.0319519042969 410.3544921875 271.2979431152344 361.81561279296875 275.7848815917969 363.2215881347656 C 288.8125305175781 365.698974609375 322.6741027832031 374.539794921875 324.3103332519531 377.1292724609375" fill="rgb(0, 11, 209)" opacity="1.0" stroke="rgb(0, 0, 0)" stroke-linecap="round" stroke-linejoin="round" stroke-opacity="1.0" stroke-width="0"/>
    <path d="M 404.8268127441406 187.31533813476562 C 377.15887451171875 233.3696746826172 337.5724182128906 189.3782501220703 431.0555725097656 223.25030517578125 C 328.2930908203125 246.44200134277344 322.7289733886719 223.39169311523438 355.79150390625 196.52056884765625 C 409.88934326171875 175.2774200439453 328.0314636230469 208.3831787109375 375.4646301269531 185.38558959960938 C 364.8349609375 188.119140625 339.89776611328125 178.81394958496094 404.8268127441406 187.31533813476562" fill="rgb(171, 124, 0)" opacity="0.99816555" stroke="rgb(0, 0, 0)" stroke-linecap="round" stroke-linejoin="round" stroke-opacity="1.0" stroke-width="0"/>
    <path d="M 550.4822998046875 275.1358947753906 C 545.8423461914062 324.69219970703125 522.9703369140625 354.82061767578125 463.03082275390625 326.4850158691406 C 383.5827331542969 221.00540161132812 481.99578857421875 275.2885437011719 399.4702453613281 235.52044677734375 C 455.78033447265625 195.590087890625 378.1567687988281 246.57962036132812 414.6595153808594 161.58123779296875 C 482.5838928222656 149.59190368652344 529.7860717773438 160.8630828857422 550.4822998046875 275.1358947753906" fill="rgb(29, 24, 188)" opacity="0.99562156" stroke="rgb(0, 0, 0)" stroke-linecap="round" stroke-linejoin="round" stroke-opacity="1.0" stroke-width="0"/>
    <path d="M 117.85928344726562 258.90008544921875 C 96.53392028808594 269.41973876953125 59.3680305480957 285.02386474609375 76.46048736572266 312.0051574707031 C 151.08883666992188 324.80548095703125 169.66268920898438 334.9080810546875 139.53712463378906 252.25128173828125 C 103.32742309570312 272.44903564453125 128.86241149902344 267.5299987792969 109.99354553222656 260.3166198730469 C 97.63028717041016 266.333251953125 108.7870864868164 285.5671691894531 117.85928344726562 258.90008544921875" fill="rgb(254, 230, 187)" opacity="1.0" stroke="rgb(0, 0, 0)" stroke-linecap="round" stroke-linejoin="round" stroke-opacity="1.0" stroke-width="0"/>
    <path d="M 87.28829956054688 307.8813171386719 C 91.09585571289062 308.578125 89.79812622070312 307.1775207519531 90.44673919677734 301.5873718261719 C 85.88998413085938 297.3852233886719 90.22731018066406 302.02642822265625 90.89900970458984 305.3077392578125 C 59.85084533691406 323.27435302734375 47.26795959472656 294.53399658203125 64.01567077636719 284.93896484375 C 90.51363372802734 291.338623046875 84.5121841430664 311.745849609375 87.28829956054688 307.8813171386719" fill="rgb(0, 10, 0)" opacity="1.0" stroke="rgb(0, 0, 0)" stroke-linecap="round" stroke-linejoin="round" stroke-opacity="1.0" stroke-width="0"/>
    <path d="M 90.93628692626953 263.2167663574219 C 94.7131118774414 271.11651611328125 101.31546020507812 270.200439453125 88.22114562988281 282.6573791503906 C 31.738359451293945 299.7137756347656 -8.039231300354004 298.29388427734375 -19.7254581451416 211.4233856201172 C 33.70794677734375 152.00430297851562 64.34439086914062 142.5066680908203 68.51730346679688 180.6231689453125 C 53.40563201904297 180.27911376953125 90.86201477050781 245.48843383789062 90.93628692626953 263.2167663574219" fill="rgb(20, 33, 251)" opacity="1.0" stroke="rgb(0, 0, 0)" stroke-linecap="round" stroke-linejoin="round" stroke-opacity="1.0" stroke-width="0"/>
    <path d="M 193.72003173828125 106.25047302246094 C 164.35723876953125 172.26937866210938 174.27154541015625 214.34078979492188 113.99596405029297 192.9627227783203 C 66.93311309814453 175.52272033691406 40.947750091552734 176.7828369140625 35.131919860839844 146.6822052001953 C 53.066287994384766 87.70157623291016 60.42356872558594 75.43838500976562 123.46198272705078 54.477149963378906 C 171.1083526611328 50.81482696533203 201.35313415527344 62.284183502197266 193.72003173828125 106.25047302246094" fill="rgb(29, 29, 255)" opacity="0.96720725" stroke="rgb(0, 0, 0)" stroke-linecap="round" stroke-linejoin="round" stroke-opacity="1.0" stroke-width="0"/>
    <path d="M 239.60586547851562 152.63067626953125 C 252.7390899658203 168.6871795654297 237.53146362304688 192.21942138671875 170.6811981201172 157.28338623046875 C 227.72012329101562 197.20823669433594 185.79124450683594 99.4278335571289 225.1339569091797 154.2905731201172 C 233.3426971435547 168.64608764648438 229.68603515625 172.64918518066406 240.6147003173828 123.0636978149414 C 271.267333984375 138.76266479492188 286.84552001953125 208.468017578125 239.60586547851562 152.63067626953125" fill="rgb(198, 126, 2)" opacity="1.0" stroke="rgb(0, 0, 0)" stroke-linecap="round" stroke-linejoin="round" stroke-opacity="1.0" stroke-width="0"/>
    <path d="M 292.5286560058594 314.77197265625 C 287.9349060058594 330.046142578125 283.53204345703125 333.7595520019531 310.93145751953125 341.25823974609375 C 285.23858642578125 347.706787109375 281.3316650390625 344.556396484375 285.59442138671875 326.95135498046875 C 277.6762390136719 327.98480224609375 277.2032165527344 317.82806396484375 276.7255859375 321.89019775390625 C 272.6063537597656 323.8373718261719 276.0037536621094 323.7392883300781 292.5286560058594 314.77197265625" fill="rgb(239, 66, 64)" opacity="0.24944921" stroke="rgb(0, 0, 0)" stroke-linecap="round" stroke-linejoin="round" stroke-opacity="1.0" stroke-width="0"/>
    <path d="M 172.0834503173828 181.39254760742188 C 177.63790893554688 199.54139709472656 174.95941162109375 197.8131561279297 157.77667236328125 210.6479949951172 C 150.05026245117188 189.3401336669922 160.54246520996094 197.4145050048828 131.95457458496094 204.00692749023438 C 130.7202606201172 209.9803466796875 140.5400848388672 183.40951538085938 138.833740234375 163.56988525390625 C 147.59226989746094 162.6844940185547 160.93411254882812 174.17672729492188 172.0834503173828 181.39254760742188" fill="rgb(190, 117, 0)" opacity="0.999774" stroke="rgb(0, 0, 0)" stroke-linecap="round" stroke-linejoin="round" stroke-opacity="1.0" stroke-width="0"/>
    <path d="M 167.32989501953125 270.1025695800781 C 158.0311737060547 270.775146484375 158.075927734375 274.8840026855469 151.32125854492188 271.0586853027344 C 155.49623107910156 273.8463439941406 153.08949279785156 270.6471862792969 158.0184326171875 271.99200439453125 C 148.4003143310547 270.05401611328125 141.60116577148438 269.04815673828125 147.36700439453125 257.5499572753906 C 163.5027618408203 240.55369567871094 177.4059600830078 268.15704345703125 167.32989501953125 270.1025695800781" fill="rgb(2, 6, 5)" opacity="0.9919754" stroke="rgb(0, 0, 0)" stroke-linecap="round" stroke-linejoin="round" stroke-opacity="1.0" stroke-width="0"/>
    <path d="M 308.738525390625 134.91761779785156 C 278.2822265625 163.05557250976562 300.71051025390625 165.33529663085938 278.10955810546875 123.34902954101562 C 249.6480712890625 173.47984313964844 274.1276550292969 165.27928161621094 240.8675079345703 123.0608139038086 C 267.5975036621094 116.09429168701172 278.87890625 127.08026123046875 283.9603576660156 120.85496520996094 C 284.1500244140625 125.8760757446289 280.1449890136719 117.05389404296875 308.738525390625 134.91761779785156" fill="rgb(9, 19, 245)" opacity="0.97226465" stroke="rgb(0, 0, 0)" stroke-linecap="round" stroke-linejoin="round" stroke-opacity="1.0" stroke-width="0"/>
    <path d="M 456.5703430175781 288.62255859375 C 448.82232666015625 289.9267272949219 460.32476806640625 287.6812744140625 440.48199462890625 287.07672119140625 C 435.9242858886719 291.6696472167969 434.308837890625 279.07025146484375 410.3634338378906 266.24102783203125 C 419.1393127441406 263.7520446777344 424.5242614746094 250.8174285888672 458.5496826171875 255.211181640625 C 458.8936462402344 242.8297882080078 452.00946044921875 261.48101806640625 456.5703430175781 288.62255859375" fill="rgb(20, 27, 178)" opacity="1.0" stroke="rgb(0, 0, 0)" stroke-linecap="round" stroke-linejoin="round" stroke-opacity="1.0" stroke-width="0"/>
    <path d="M 302.2062683105469 -16.60407829284668 C 303.76043701171875 11.781847953796387 305.6849365234375 24.753597259521484 295.70855712890625 29.507362365722656 C 269.033447265625 30.761777877807617 251.19027709960938 24.968040466308594 253.2561798095703 9.275901794433594 C 254.1020965576172 -19.282629013061523 261.0196228027344 -21.433143615722656 277.43145751953125 -17.34920883178711 C 295.49578857421875 -15.7031831741333 303.53582763671875 -10.257596015930176 302.2062683105469 -16.60407829284668" fill="rgb(33, 11, 240)" opacity="1.0" stroke="rgb(0, 0, 0)" stroke-linecap="round" stroke-linejoin="round" stroke-opacity="1.0" stroke-width="0"/>
    <path d="M 242.93299865722656 390.1351318359375 C 245.8440399169922 389.7319030761719 244.69766235351562 398.7358093261719 252.95481872558594 398.78662109375 C 233.89132690429688 403.49169921875 212.45761108398438 401.39935302734375 236.73342895507812 393.3634033203125 C 223.75572204589844 387.1001281738281 233.966064453125 379.8925476074219 240.3369598388672 381.6957092285156 C 243.35391235351562 391.93817138671875 250.9734649658203 394.6471252441406 242.93299865722656 390.1351318359375" fill="rgb(2, 0, 236)" opacity="1.0" stroke="rgb(0, 0, 0)" stroke-linecap="round" stroke-linejoin="round" stroke-opacity="1.0" stroke-width="0"/>
    <path d="M 275.0798645019531 449.497314453125 C 272.2838134765625 472.7168884277344 265.4141845703125 494.85693359375 243.09210205078125 496.5235595703125 C 219.41966247558594 482.4096374511719 217.9873046875 477.5313415527344 222.82406616210938 458.1728210449219 C 222.56301879882812 443.2012634277344 225.54608154296875 428.5180358886719 243.83229064941406 418.8121337890625 C 269.6437683105469 416.9938659667969 256.47052001953125 436.4878845214844 275.0798645019531 449.497314453125" fill="rgb(7, 37, 228)" opacity="0.0" stroke="rgb(0, 0, 0)" stroke-linecap="round" stroke-linejoin="round" stroke-opacity="1.0" stroke-width="0"/>
    <path d="M 343.3543701171875 239.5215301513672 C 333.3236083984375 245.7165069580078 337.4093017578125 256.425048828125 335.9703063964844 281.01702880859375 C 313.3307189941406 286.3937683105469 317.82476806640625 278.1184997558594 315.8258972167969 231.60760498046875 C 316.82159423828125 225.59243774414062 331.1383972167969 222.24838256835938 346.0491943359375 217.53915405273438 C 343.4175720214844 214.80821228027344 344.1618347167969 213.1427459716797 343.3543701171875 239.5215301513672" fill="rgb(210, 94, 4)" opacity="0.0014832558" stroke="rgb(0, 0, 0)" stroke-linecap="round" stroke-linejoin="round" stroke-opacity="1.0" stroke-width="0"/>
    <path d="M 434.1353759765625 325.44775390625 C 388.6421813964844 337.78314208984375 397.59814453125 316.5581970214844 422.1315002441406 354.9830322265625 C 379.8219909667969 360.66839599609375 369.8858337402344 351.7186279296875 373.21087646484375 314.5946350097656 C 389.8670654296875 316.53472900390625 397.1431884765625 311.6239013671875 399.4527893066406 290.0160217285156 C 410.48968505859375 308.0840148925781 421.8812255859375 309.5140686035156 434.1353759765625 325.44775390625" fill="rgb(177, 139, 0)" opacity="1.0" stroke="rgb(0, 0, 0)" stroke-linecap="round" stroke-linejoin="round" stroke-opacity="1.0" stroke-width="0"/>
    <path d="M 257.7903747558594 265.8236083984375 C 265.2882995605469 286.08282470703125 273.810546875 301.8475646972656 257.28509521484375 299.6192932128906 C 244.5713348388672 288.0663757324219 234.4031219482422 278.1514587402344 238.27964782714844 283.7333984375 C 238.23101806640625 279.7535095214844 236.3356475830078 279.5859069824219 237.47547912597656 282.8631896972656 C 257.0894470214844 270.6769104003906 254.40863037109375 258.45806884765625 257.7903747558594 265.8236083984375" fill="rgb(195, 121, 45)" opacity="0.9527799" stroke="rgb(0, 0, 0)" stroke-linecap="round" stroke-linejoin="round" stroke-opacity="1.0" stroke-width="0"/>
    <path d="M 284.7322692871094 221.1935577392578 C 288.2309265136719 228.52462768554688 276.7235412597656 237.90859985351562 266.2090148925781 236.88470458984375 C 266.47137451171875 238.32977294921875 264.7755432128906 225.99143981933594 262.6982727050781 216.61204528808594 C 261.1573181152344 205.65713500976562 255.5590057373047 206.53843688964844 294.1209716796875 210.61508178710938 C 282.30267333984375 207.15625 289.0423278808594 207.68121337890625 284.7322692871094 221.1935577392578" fill="rgb(190, 138, 13)" opacity="0.0002871896" stroke="rgb(0, 0, 0)" stroke-linecap="round" stroke-linejoin="round" stroke-opacity="1.0" stroke-width="0"/>
    <path d="M 491.7462158203125 26.34320068359375 C 460.9180603027344 15.434904098510742 469.2057189941406 9.946173667907715 474.8770751953125 19.979707717895508 C 466.1210632324219 24.609270095825195 451.7705993652344 10.336254119873047 452.0476989746094 -1.3594286441802979 C 441.04022216796875 -8.519362449645996 448.7852478027344 -17.98151397705078 463.7939758300781 -17.82341766357422 C 476.3305358886719 -15.67957878112793 488.6680908203125 -11.24758529663086 491.7462158203125 26.34320068359375" fill="rgb(140, 0, 105)" opacity="0.06774698" stroke="rgb(0, 0, 0)" stroke-linecap="round" stroke-linejoin="round" stroke-opacity="1.0" stroke-width="0"/>
    <path d="M 372.8643493652344 218.40533447265625 C 372.2005920410156 233.5886993408203 358.6222839355469 236.7821502685547 354.785888671875 243.59722900390625 C 329.0426025390625 232.04779052734375 324.952880859375 241.75889587402344 345.04583740234375 242.77200317382812 C 343.6078186035156 198.26036071777344 341.44708251953125 203.08554077148438 338.0397033691406 207.45606994628906 C 367.1181945800781 207.89205932617188 392.3488464355469 209.0115966796875 372.8643493652344 218.40533447265625" fill="rgb(145, 143, 17)" opacity="0.019601138" stroke="rgb(0, 0, 0)" stroke-linecap="round" stroke-linejoin="round" stroke-opacity="1.0" stroke-width="0"/>
    <path d="M 217.88162231445312 224.8608856201172 C 217.2930145263672 261.0543518066406 220.960205078125 260.44769287109375 212.51919555664062 245.05020141601562 C 202.631591796875 237.00869750976562 199.53770446777344 220.5647430419922 171.6188507080078 225.51463317871094 C 176.67225646972656 227.23684692382812 178.6925811767578 219.76429748535156 184.58633422851562 210.5252685546875 C 216.12533569335938 193.2471923828125 212.81539916992188 196.06085205078125 217.88162231445312 224.8608856201172" fill="rgb(129, 16, 255)" opacity="0.9621691" stroke="rgb(0, 0, 0)" stroke-linecap="round" stroke-linejoin="round" stroke-opacity="1.0" stroke-width="0"/>
    <path d="M 283.97650146484375 265.5544128417969 C 299.14837646484375 267.3475341796875 293.130859375 279.8296813964844 280.7631530761719 278.4200744628906 C 258.1336975097656 272.15570068359375 253.10137939453125 280.7428894042969 264.7682189941406 275.56005859375 C 267.5785827636719 250.05799865722656 275.1630554199219 247.85740661621094 288.3933410644531 251.54214477539062 C 273.1219482421875 230.29759216308594 279.06817626953125 246.61134338378906 283.97650146484375 265.5544128417969" fill="rgb(84, 138, 45)" opacity="0.0" stroke="rgb(0, 0, 0)" stroke-linecap="round" stroke-linejoin="round" stroke-opacity="1.0" stroke-width="0"/>
    <path d="M 453.4360656738281 453.5012512207031 C 461.0679931640625 474.6969299316406 455.4210510253906 487.1466979980469 440.1773681640625 489.5148620605469 C 440.76300048828125 468.0902099609375 434.6705017089844 454.19219970703125 428.2372131347656 445.1708679199219 C 428.8348083496094 448.6014099121094 439.7511291503906 446.0093078613281 440.11041259765625 427.5514831542969 C 445.73077392578125 443.65716552734375 453.4759826660156 453.3047180175781 453.4360656738281 453.5012512207031" fill="rgb(38, 9, 204)" opacity="0.030281795" stroke="rgb(0, 0, 0)" stroke-linecap="round" stroke-linejoin="round" stroke-opacity="1.0" stroke-width="0"/>
    <path d="M 147.64878845214844 240.11097717285156 C 154.4597930908203 251.3702392578125 146.35476684570312 255.89028930664062 135.09689331054688 259.3971252441406 C 126.59786224365234 259.51336669921875 125.93326568603516 244.7412109375 135.1818084716797 251.10818481445312 C 137.13206481933594 254.29766845703125 138.83261108398438 241.00466918945312 139.69149780273438 231.0941162109375 C 140.57347106933594 231.16441345214844 151.50436401367188 236.3563232421875 147.64878845214844 240.11097717285156" fill="rgb(255, 232, 245)" opacity="0.06579932" stroke="rgb(0, 0, 0)" stroke-linecap="round" stroke-linejoin="round" stroke-opacity="1.0" stroke-width="0"/>
    <path d="M 88.86146545410156 109.88713073730469 C 87.54196166992188 115.60213470458984 80.61883544921875 127.35206604003906 74.88264465332031 132.52798461914062 C 67.07843017578125 120.37261199951172 57.138671875 112.35783386230469 59.22956466674805 114.69175720214844 C 61.890525817871094 108.06328582763672 72.0501708984375 95.93887329101562 72.23013305664062 90.17929077148438 C 72.20806884765625 96.33382415771484 84.37577056884766 102.45451354980469 88.86146545410156 109.88713073730469" fill="rgb(3, 52, 200)" opacity="0.006706667" stroke="rgb(0, 0, 0)" stroke-linecap="round" stroke-linejoin="round" stroke-opacity="1.0" stroke-width="0"/>
    <path d="M 468.82470703125 244.1598663330078 C 472.733154296875 257.35333251953125 472.486083984375 269.83905029296875 452.38861083984375 265.8423767089844 C 428.14520263671875 261.5641174316406 423.5745849609375 260.9722595214844 434.1341552734375 255.9990234375 C 447.2823486328125 242.59298706054688 452.6847229003906 237.5681610107422 443.1036376953125 226.79225158691406 C 453.9556579589844 227.80088806152344 464.7441101074219 232.97406005859375 468.82470703125 244.1598663330078" fill="rgb(33, 39, 223)" opacity="0.07257939" stroke="rgb(0, 0, 0)" stroke-linecap="round" stroke-linejoin="round" stroke-opacity="1.0" stroke-width="0"/>
    <path d="M 370.3525695800781 390.2637023925781 C 361.0779724121094 394.8530578613281 349.5330505371094 399.0580749511719 343.6169128417969 395.9205322265625 C 338.1797790527344 398.34375 332.4388122558594 385.1739807128906 334.7446594238281 389.1644287109375 C 339.2213439941406 387.1747131347656 346.8871765136719 381.37677001953125 352.1900634765625 363.92828369140625 C 353.767822265625 358.6705627441406 365.3954772949219 373.08013916015625 370.3525695800781 390.2637023925781" fill="rgb(11, 48, 134)" opacity="0.0" stroke="rgb(0, 0, 0)" stroke-linecap="round" stroke-linejoin="round" stroke-opacity="1.0" stroke-width="0"/>
    <path d="M 366.3021545410156 210.94252014160156 C 371.0713806152344 207.57537841796875 367.4870910644531 214.20819091796875 358.0618896484375 211.7337188720703 C 349.36761474609375 210.80271911621094 335.7520751953125 213.73753356933594 340.6633605957031 205.24217224121094 C 338.0298156738281 179.6976776123047 340.8714294433594 185.3853759765625 354.851318359375 184.0499267578125 C 357.85028076171875 181.84133911132812 362.7125244140625 196.29884338378906 366.3021545410156 210.94252014160156" fill="rgb(154, 97, 5)" opacity="0.18911852" stroke="rgb(0, 0, 0)" stroke-linecap="round" stroke-linejoin="round" stroke-opacity="1.0" stroke-width="0"/>
    <path d="M 465.65594482421875 44.98032760620117 C 463.3080749511719 62.830665588378906 463.1103210449219 79.81554412841797 450.9100646972656 74.84185028076172 C 438.1370544433594 63.85658645629883 429.854736328125 57.348506927490234 427.10040283203125 38.02116012573242 C 433.423828125 40.30693817138672 446.389404296875 37.264007568359375 450.43060302734375 35.056636810302734 C 443.49871826171875 39.44831466674805 452.698974609375 47.4595832824707 465.65594482421875 44.98032760620117" fill="rgb(89, 33, 209)" opacity="0.00034978866" stroke="rgb(0, 0, 0)" stroke-linecap="round" stroke-linejoin="round" stroke-opacity="1.0" stroke-width="0"/>
    <path d="M 313.90283203125 173.43885803222656 C 322.3571472167969 190.1145782470703 319.0071105957031 192.6154327392578 301.0285949707031 190.9424285888672 C 291.12689208984375 179.3273162841797 281.708740234375 175.13502502441406 284.6110534667969 170.02098083496094 C 287.0993347167969 165.1332244873047 289.90814208984375 161.10427856445312 299.1101379394531 170.03672790527344 C 312.62591552734375 163.28350830078125 316.9201965332031 164.03628540039062 313.90283203125 173.43885803222656" fill="rgb(107, 147, 35)" opacity="0.117548816" stroke="rgb(0, 0, 0)" stroke-linecap="round" stroke-linejoin="round" stroke-opacity="1.0" stroke-width="0"/>
    <path d="M 477.4115295410156 493.7471008300781 C 486.15496826171875 513.9266967773438 477.26177978515625 518.2719116210938 459.9088439941406 525.04931640625 C 432.797607421875 522.5897827148438 420.5041809082031 518.4718627929688 424.081298828125 499.9388427734375 C 439.9927062988281 482.4169006347656 442.6802062988281 471.8514404296875 451.6403503417969 478.8916015625 C 454.72747802734375 493.26446533203125 466.92559814453125 492.72283935546875 477.4115295410156 493.7471008300781" fill="rgb(4, 37, 215)" opacity="0.13932845" stroke="rgb(0, 0, 0)" stroke-linecap="round" stroke-linejoin="round" stroke-opacity="1.0" stroke-width="0"/>
    <path d="M 146.75408935546875 43.2108039855957 C 135.07833862304688 31.027257919311523 129.37796020507812 34.205265045166016 138.73707580566406 47.46474838256836 C 128.50888061523438 45.63420104980469 122.16439819335938 35.31675338745117 121.78070831298828 34.70841979980469 C 128.58059692382812 39.57503890991211 132.3865203857422 34.53712463378906 121.87640380859375 26.294498443603516 C 132.19308471679688 25.597373962402344 141.36892700195312 33.11415481567383 146.75408935546875 43.2108039855957" fill="rgb(37, 15, 203)" opacity="0.047475927" stroke="rgb(0, 0, 0)" stroke-linecap="round" stroke-linejoin="round" stroke-opacity="1.0" stroke-width="0"/>
    <path d="M 204.88209533691406 336.8733825683594 C 207.14695739746094 353.0191955566406 193.357421875 355.80828857421875 204.27084350585938 349.37310791015625 C 192.9152069091797 347.3244323730469 186.69468688964844 337.71124267578125 168.76258850097656 338.25341796875 C 170.34890747070312 328.82403564453125 169.37066650390625 311.2152099609375 174.22515869140625 320.4783630371094 C 209.9834747314453 320.7645568847656 215.32870483398438 318.6302185058594 204.88209533691406 336.8733825683594" fill="rgb(250, 249, 194)" opacity="0.030114654" stroke="rgb(0, 0, 0)" stroke-linecap="round" stroke-linejoin="round" stroke-opacity="1.0" stroke-width="0"/>
    <path d="M 50.932003021240234 330.60064697265625 C 46.793399810791016 327.27191162109375 41.49884796142578 335.4204406738281 39.9351921081543 337.7872619628906 C 30.20983123779297 330.73834228515625 19.54267120361328 324.2673645019531 21.36253547668457 321.1959533691406 C 27.152149200439453 318.958984375 29.527036666870117 306.99041748046875 36.5549201965332 304.3269958496094 C 33.36603927612305 311.25726318359375 43.49686050415039 315.3929443359375 50.932003021240234 330.60064697265625" fill="rgb(38, 0, 240)" opacity="0.058974937" stroke="rgb(0, 0, 0)" stroke-linecap="round" stroke-linejoin="round" stroke-opacity="1.0" stroke-width="0"/>
    <path d="M 425.33551025390625 436.16839599609375 C 416.2809753417969 448.65460205078125 408.07354736328125 460.2803039550781 398.345947265625 467.5039978027344 C 386.9198913574219 461.8275146484375 381.1194152832031 455.43865966796875 386.4718322753906 451.6153564453125 C 385.8583984375 437.6476135253906 392.19549560546875 427.4427185058594 405.5867004394531 415.479736328125 C 413.0094909667969 418.0260009765625 417.55169677734375 430.96331787109375 425.33551025390625 436.16839599609375" fill="rgb(40, 30, 202)" opacity="0.07291316" stroke="rgb(0, 0, 0)" stroke-linecap="round" stroke-linejoin="round" stroke-opacity="1.0" stroke-width="0"/>
    <path d="M 140.44171142578125 281.42999267578125 C 140.33251953125 277.76031494140625 140.2032470703125 290.64093017578125 132.55592346191406 288.1746520996094 C 120.76315307617188 293.3941650390625 114.86071014404297 286.6332092285156 112.46820068359375 279.70068359375 C 120.33869934082031 268.88104248046875 121.44036865234375 257.4242248535156 121.81092071533203 255.4252166748047 C 132.30380249023438 264.6563415527344 139.03782653808594 276.3475341796875 140.44171142578125 281.42999267578125" fill="rgb(255, 197, 255)" opacity="0.114603356" stroke="rgb(0, 0, 0)" stroke-linecap="round" stroke-linejoin="round" stroke-opacity="1.0" stroke-width="0"/>
    <path d="M 125.72915649414062 444.7706298828125 C 118.59748840332031 444.7519226074219 115.79222106933594 457.39007568359375 120.32656860351562 456.40618896484375 C 117.14546203613281 451.9245300292969 106.7087631225586 446.0916748046875 94.51495361328125 443.0187683105469 C 95.55236053466797 437.4803466796875 108.76932525634766 435.3437805175781 116.93830871582031 420.6640319824219 C 126.09916687011719 428.1564025878906 132.70896911621094 435.0380859375 125.72915649414062 444.7706298828125" fill="rgb(48, 47, 240)" opacity="0.00583221" stroke="rgb(0, 0, 0)" stroke-linecap="round" stroke-linejoin="round" stroke-opacity="1.0" stroke-width="0"/>
    <path d="M 275.5801696777344 46.77084732055664 C 274.69891357421875 55.603206634521484 259.2987976074219 60.7126579284668 251.83279418945312 67.6590347290039 C 246.88548278808594 52.571380615234375 236.511962890625 46.80881881713867 233.0889892578125 40.751373291015625 C 234.50889587402344 39.01241683959961 243.21678161621094 36.87166976928711 237.57521057128906 30.887805938720703 C 246.57266235351562 37.89185333251953 265.2097473144531 35.369483947753906 275.5801696777344 46.77084732055664" fill="rgb(78, 14, 178)" opacity="0.071402445" stroke="rgb(0, 0, 0)" stroke-linecap="round" stroke-linejoin="round" stroke-opacity="1.0" stroke-width="0"/>
    <path d="M 128.8718719482422 333.7813720703125 C 122.47955322265625 346.1219177246094 116.73552703857422 353.6797790527344 108.48133087158203 358.7368469238281 C 104.12042999267578 351.7388916015625 96.85353088378906 343.6476135253906 98.42438507080078 344.2313537597656 C 103.15853881835938 342.2672424316406 108.63123321533203 328.8865051269531 107.40744018554688 323.5046081542969 C 120.0207290649414 322.237548828125 129.440185546875 328.18670654296875 128.8718719482422 333.7813720703125" fill="rgb(21, 20, 252)" opacity="0.017194523" stroke="rgb(0, 0, 0)" stroke-linecap="round" stroke-linejoin="round" stroke-opacity="1.0" stroke-width="0"/>
    <path d="M 507.9835205078125 213.27549743652344 C 501.6156921386719 222.81068420410156 495.9604187011719 230.10494995117188 494.889892578125 237.60354614257812 C 485.8096618652344 229.260498046875 472.5321044921875 226.1162109375 474.9079284667969 216.98573303222656 C 477.468505859375 216.99136352539062 488.1946105957031 210.01873779296875 488.8423767089844 194.12686157226562 C 496.6553649902344 203.13629150390625 502.0830993652344 212.90121459960938 507.9835205078125 213.27549743652344" fill="rgb(51, 43, 213)" opacity="0.0" stroke="rgb(0, 0, 0)" stroke-linecap="round" stroke-linejoin="round" stroke-opacity="1.0" stroke-width="0"/>
    <path d="M 447.036376953125 250.35777282714844 C 441.0391845703125 271.97857666015625 448.3144836425781 281.8947448730469 428.4367980957031 270.74981689453125 C 421.810546875 280.2378845214844 413.4245910644531 270.4916076660156 420.6252136230469 268.512451171875 C 422.2403259277344 250.76324462890625 416.77679443359375 236.6969451904297 422.7857666015625 244.95130920410156 C 440.1225891113281 244.79469299316406 450.9649963378906 253.15676879882812 447.036376953125 250.35777282714844" fill="rgb(47, 66, 254)" opacity="0.11571313" stroke="rgb(0, 0, 0)" stroke-linecap="round" stroke-linejoin="round" stroke-opacity="1.0" stroke-width="0"/>
    <path d="M 506.4835510253906 61.44207000732422 C 501.7652282714844 71.66281127929688 492.20086669921875 81.72271728515625 487.64337158203125 79.14598846435547 C 481.2887878417969 80.37086486816406 475.9507141113281 69.5014877319336 473.7774963378906 68.29821014404297 C 484.0408935546875 73.39017486572266 490.8678894042969 63.95314407348633 487.6678466796875 52.03477478027344 C 490.2140808105469 54.229515075683594 506.27294921875 55.76521301269531 506.4835510253906 61.44207000732422" fill="rgb(79, 21, 191)" opacity="0.10635348" stroke="rgb(0, 0, 0)" stroke-linecap="round" stroke-linejoin="round" stroke-opacity="1.0" stroke-width="0"/>
    <path d="M 52.37232971191406 189.37940979003906 C 46.217159271240234 202.61070251464844 38.80825424194336 209.69187927246094 36.18087387084961 206.8591766357422 C 30.603971481323242 202.8566436767578 18.399677276611328 195.9932403564453 15.27938175201416 197.44813537597656 C 24.85371208190918 198.6865234375 35.00686264038086 191.0664520263672 39.05921173095703 171.77914428710938 C 39.58599853515625 175.2511444091797 50.79304504394531 182.4628448486328 52.37232971191406 189.37940979003906" fill="rgb(7, 25, 231)" opacity="0.031911675" stroke="rgb(0, 0, 0)" stroke-linecap="round" stroke-linejoin="round" stroke-opacity="1.0" stroke-width="0"/>
  </g>
</svg>
