<?xml version="1.0" ?>
<svg height="512" style="background-color: rgb(255, 249, 212, 0.25266700983047485)" version="1.1" width="512" xmlns="http://www.w3.org/2000/svg">
  <defs/>
  <g>
    <path d="M 516.2159423828125 410.059326171875 C 490.4336242675781 421.6736755371094 563.2000122070312 485.1186218261719 468.16766357421875 482.3370056152344 C 269.37127685546875 424.1065368652344 242.83627319335938 379.24285888671875 495.4632568359375 419.289794921875 C 305.91693115234375 354.9497375488281 321.4256286621094 431.3648681640625 441.4693908691406 414.125732421875 C 474.9024353027344 428.1167297363281 523.7412719726562 404.97015380859375 516.2159423828125 410.059326171875" fill="rgb(45, 94, 177)" opacity="0.83097047" stroke="rgb(0, 0, 0)" stroke-linecap="round" stroke-linejoin="round" stroke-opacity="1.0" stroke-width="0"/>
    <path d="M 292.724365234375 417.5770263671875 C 139.85101318359375 435.0231018066406 254.09725952148438 426.3130798339844 94.6186294555664 428.1583251953125 C 58.81983947753906 398.572021484375 35.947303771972656 450.04925537109375 -2.8976492881774902 315.8540954589844 C 70.05890655517578 299.6947021484375 -34.45109176635742 263.0552062988281 138.51853942871094 294.3779296875 C 326.0480041503906 306.3649597167969 278.52935791015625 244.23147583007812 292.724365234375 417.5770263671875" fill="rgb(214, 92, 0)" opacity="0.9289323" stroke="rgb(0, 0, 0)" stroke-linecap="round" stroke-linejoin="round" stroke-opacity="1.0" stroke-width="0"/>
    <path d="M 313.1581115722656 278.1751708984375 C 348.9277648925781 327.6018371582031 260.5870666503906 317.66644287109375 172.27137756347656 330.49078369140625 C 140.12417602539062 297.7484130859375 153.10231018066406 304.05706787109375 157.55886840820312 258.982666015625 C 150.753173828125 231.5609130859375 154.18162536621094 236.84756469726562 150.29669189453125 190.47662353515625 C 153.32456970214844 251.7739715576172 141.40426635742188 313.5417785644531 313.1581115722656 278.1751708984375" fill="rgb(0, 0, 2)" opacity="1.0" stroke="rgb(0, 0, 0)" stroke-linecap="round" stroke-linejoin="round" stroke-opacity="1.0" stroke-width="0"/>
    <path d="M 223.6829833984375 68.13896942138672 C -14.7025728225708 76.07283020019531 88.43698120117188 48.83496856689453 170.64459228515625 93.26652526855469 C 54.872074127197266 157.77511596679688 60.34110641479492 94.89965057373047 9.389827728271484 151.6212615966797 C -25.3089542388916 141.45713806152344 -50.83448791503906 13.950316429138184 41.24248504638672 -42.878944396972656 C 154.05001831054688 -48.67940139770508 202.6597442626953 -16.16569709777832 223.6829833984375 68.13896942138672" fill="rgb(2, 138, 125)" opacity="0.6034802" stroke="rgb(0, 0, 0)" stroke-linecap="round" stroke-linejoin="round" stroke-opacity="1.0" stroke-width="0"/>
    <path d="M 290.6130065917969 152.5490264892578 C 180.61355590820312 107.52766418457031 148.2301025390625 188.12994384765625 155.16404724121094 246.22991943359375 C 151.33572387695312 247.45877075195312 2.4563398361206055 281.80859375 -22.01957130432129 167.59616088867188 C 161.1857452392578 61.63786697387695 101.1166000366211 35.17304992675781 188.697998046875 80.69849395751953 C 296.862060546875 -51.20000076293945 408.2989501953125 231.92874145507812 290.6130065917969 152.5490264892578" fill="rgb(8, 184, 162)" opacity="0.71771747" stroke="rgb(0, 0, 0)" stroke-linecap="round" stroke-linejoin="round" stroke-opacity="1.0" stroke-width="0"/>
    <path d="M 541.3246459960938 259.3231201171875 C 506.5919189453125 467.28790283203125 460.0613708496094 407.6954650878906 302.896484375 392.68817138671875 C 560.4845581054688 418.4001159667969 31.05674934387207 461.308837890625 210.17489624023438 315.0108642578125 C 456.2460021972656 168.84657287597656 206.3776092529297 324.10498046875 386.6080017089844 295.24560546875 C 395.3333435058594 279.6994323730469 320.2451477050781 290.9809875488281 541.3246459960938 259.3231201171875" fill="rgb(223, 93, 0)" opacity="0.9704332" stroke="rgb(0, 0, 0)" stroke-linecap="round" stroke-linejoin="round" stroke-opacity="1.0" stroke-width="0"/>
    <path d="M 511.057373046875 129.8179168701172 C 563.0690307617188 177.5006561279297 526.6174926757812 206.2907257080078 548.0736694335938 257.4447021484375 C 531.4657592773438 267.1150207519531 537.24462890625 268.84393310546875 386.332763671875 281.0566711425781 C 299.16900634765625 219.74354553222656 322.134765625 128.5140380859375 504.11224365234375 59.9388427734375 C 487.6963806152344 105.59274291992188 535.043212890625 163.7857666015625 511.057373046875 129.8179168701172" fill="rgb(81, 114, 85)" opacity="0.8050532" stroke="rgb(0, 0, 0)" stroke-linecap="round" stroke-linejoin="round" stroke-opacity="1.0" stroke-width="0"/>
    <path d="M 375.84649658203125 322.0143127441406 C 347.0449523925781 233.0264434814453 318.2287902832031 279.05078125 169.56903076171875 359.7602233886719 C 316.2133483886719 378.7861022949219 300.773193359375 291.47406005859375 288.7771301269531 318.017578125 C 297.1400146484375 296.2383117675781 316.1679992675781 237.4583740234375 341.9262390136719 191.12074279785156 C 283.41998291015625 326.7261962890625 250.95350646972656 324.80792236328125 375.84649658203125 322.0143127441406" fill="rgb(0, 0, 7)" opacity="1.0" stroke="rgb(0, 0, 0)" stroke-linecap="round" stroke-linejoin="round" stroke-opacity="1.0" stroke-width="0"/>
    <path d="M 348.0306091308594 173.7106170654297 C 347.3923645019531 237.58334350585938 375.3604736328125 234.5902099609375 324.03253173828125 228.6206512451172 C 323.6028137207031 220.22573852539062 329.3070068359375 253.49636840820312 320.716796875 203.9693603515625 C 277.59210205078125 118.4402084350586 231.47650146484375 149.17002868652344 237.23426818847656 105.59481048583984 C 504.8642578125 122.10627746582031 469.8939208984375 -14.950897216796875 348.0306091308594 173.7106170654297" fill="rgb(0, 0, 9)" opacity="1.0" stroke="rgb(0, 0, 0)" stroke-linecap="round" stroke-linejoin="round" stroke-opacity="1.0" stroke-width="0"/>
    <path d="M 118.32561492919922 75.21930694580078 C 100.2053451538086 89.7652816772461 106.45783996582031 46.23179626464844 60.7437629699707 84.33856964111328 C 65.39048767089844 80.22759246826172 57.30186080932617 86.49329376220703 60.89534378051758 85.22615051269531 C 87.95984649658203 36.02799606323242 98.88883209228516 58.90242385864258 115.78300476074219 68.22525787353516 C 111.284423828125 58.32386016845703 157.6965789794922 44.488525390625 118.32561492919922 75.21930694580078" fill="rgb(52, 174, 98)" opacity="0.99815905" stroke="rgb(0, 0, 0)" stroke-linecap="round" stroke-linejoin="round" stroke-opacity="1.0" stroke-width="0"/>
    <path d="M 221.0807647705078 259.37493896484375 C 260.7918701171875 260.9671325683594 282.9711608886719 228.73538208007812 247.88221740722656 252.57691955566406 C 223.5825653076172 232.26026916503906 235.0552978515625 243.54371643066406 216.32901000976562 241.7402801513672 C 251.91253662109375 247.54421997070312 185.1179962158203 237.44692993164062 247.43893432617188 224.63467407226562 C 255.3549041748047 224.91754150390625 251.35928344726562 238.55523681640625 221.0807647705078 259.37493896484375" fill="rgb(4, 1, 10)" opacity="0.98348635" stroke="rgb(0, 0, 0)" stroke-linecap="round" stroke-linejoin="round" stroke-opacity="1.0" stroke-width="0"/>
    <path d="M 409.09539794921875 349.0979309082031 C 153.9818115234375 437.9704895019531 158.38404846191406 308.3311767578125 202.1304473876953 390.29571533203125 C 105.92890167236328 389.1733093261719 55.665775299072266 322.1057434082031 185.20558166503906 378.4097595214844 C 138.39903259277344 360.3126525878906 117.869140625 377.5281677246094 90.64707946777344 328.8279724121094 C 298.24578857421875 342.9404602050781 319.4072265625 339.83740234375 409.09539794921875 349.0979309082031" fill="rgb(226, 99, 0)" opacity="0.6984026" stroke="rgb(0, 0, 0)" stroke-linecap="round" stroke-linejoin="round" stroke-opacity="1.0" stroke-width="0"/>
    <path d="M 528.7064819335938 28.60013771057129 C 496.425048828125 56.534393310546875 483.236572265625 144.662353515625 419.8188171386719 82.42837524414062 C 505.61639404296875 132.2230987548828 462.0865478515625 45.793880462646484 448.58306884765625 57.390220642089844 C 434.41461181640625 62.45860290527344 408.00665283203125 28.12592124938965 425.0389709472656 16.6717529296875 C 485.13165283203125 -35.409812927246094 519.8800659179688 24.311731338500977 528.7064819335938 28.60013771057129" fill="rgb(77, 222, 10)" opacity="0.239462" stroke="rgb(0, 0, 0)" stroke-linecap="round" stroke-linejoin="round" stroke-opacity="1.0" stroke-width="0"/>
    <path d="M 458.50787353515625 48.24159622192383 C 378.8529968261719 33.88780212402344 411.634033203125 105.58637237548828 367.2503967285156 67.38390350341797 C 375.0036926269531 70.98027801513672 358.12811279296875 39.500144958496094 291.12939453125 65.89698791503906 C 346.9177551269531 -51.20000076293945 384.8567199707031 28.145286560058594 376.43768310546875 13.133865356445312 C 371.2157287597656 13.949834823608398 415.351318359375 -43.72837448120117 458.50787353515625 48.24159622192383" fill="rgb(89, 228, 95)" opacity="0.4123552" stroke="rgb(0, 0, 0)" stroke-linecap="round" stroke-linejoin="round" stroke-opacity="1.0" stroke-width="0"/>
    <path d="M 501.7650451660156 431.46875 C 429.1647644042969 437.125244140625 426.0096435546875 426.1502990722656 429.5586853027344 425.8785400390625 C 468.61480712890625 463.285888671875 461.19085693359375 419.74420166015625 366.7190856933594 436.6122131347656 C 305.37713623046875 398.5576477050781 388.265380859375 400.63629150390625 441.7355041503906 402.12725830078125 C 459.5547790527344 405.0475158691406 495.8705139160156 404.83056640625 501.7650451660156 431.46875" fill="rgb(31, 122, 186)" opacity="0.98805434" stroke="rgb(0, 0, 0)" stroke-linecap="round" stroke-linejoin="round" stroke-opacity="1.0" stroke-width="0"/>
    <path d="M 236.5139923095703 483.3730163574219 C 484.4406433105469 435.8779602050781 181.4470977783203 510.5550537109375 0.1238490641117096 457.60223388671875 C 66.98909759521484 390.2763671875 259.11328125 375.47222900390625 238.93690490722656 454.2367248535156 C 340.5545349121094 357.91424560546875 137.64462280273438 447.3780212402344 62.695186614990234 341.8664245605469 C 138.974609375 457.8245849609375 386.82843017578125 336.9947814941406 236.5139923095703 483.3730163574219" fill="rgb(13, 125, 214)" opacity="0.8780708" stroke="rgb(0, 0, 0)" stroke-linecap="round" stroke-linejoin="round" stroke-opacity="1.0" stroke-width="0"/>
    <path d="M 526.0291748046875 478.3431091308594 C 439.3119812011719 561.7508544921875 379.8067321777344 505.59197998046875 379.47235107421875 502.4833068847656 C 347.9302978515625 483.6355895996094 259.8233947753906 418.0412292480469 344.2431335449219 465.1201171875 C 357.1023864746094 456.71807861328125 387.83636474609375 472.54815673828125 335.4468688964844 440.2994689941406 C 451.2699279785156 429.9310302734375 360.9953918457031 487.99053955078125 526.0291748046875 478.3431091308594" fill="rgb(46, 191, 149)" opacity="0.8472991" stroke="rgb(0, 0, 0)" stroke-linecap="round" stroke-linejoin="round" stroke-opacity="1.0" stroke-width="0"/>
    <path d="M 530.6680908203125 382.2451477050781 C 523.4390258789062 477.6250305175781 502.56768798828125 456.505126953125 446.34271240234375 414.2109069824219 C 380.1148681640625 412.1542663574219 432.2936706542969 409.11346435546875 462.921630859375 403.20703125 C 435.14508056640625 403.1206359863281 437.1851806640625 401.5611572265625 442.86871337890625 410.766357421875 C 428.10809326171875 389.5242004394531 481.2493591308594 365.8045654296875 530.6680908203125 382.2451477050781" fill="rgb(3, 147, 193)" opacity="0.29303166" stroke="rgb(0, 0, 0)" stroke-linecap="round" stroke-linejoin="round" stroke-opacity="1.0" stroke-width="0"/>
    <path d="M 64.39257049560547 409.5657653808594 C 102.80743408203125 417.4245910644531 120.03426361083984 444.7757873535156 86.48721313476562 443.7491760253906 C -21.064754486083984 464.2606506347656 -51.20000076293945 451.2671813964844 0.464143842458725 354.4772033691406 C 58.8840446472168 392.0205993652344 36.990386962890625 404.6505432128906 34.236793518066406 401.9977722167969 C 46.51087188720703 406.8736267089844 38.68930435180664 414.9590759277344 64.39257049560547 409.5657653808594" fill="rgb(75, 212, 235)" opacity="0.9150702" stroke="rgb(0, 0, 0)" stroke-linecap="round" stroke-linejoin="round" stroke-opacity="1.0" stroke-width="0"/>
    <path d="M 433.2172546386719 86.77012634277344 C 388.552734375 139.21844482421875 375.749755859375 148.33602905273438 330.29901123046875 151.6690216064453 C 307.29345703125 173.32940673828125 345.60400390625 128.2444305419922 284.1746520996094 122.682373046875 C 294.654541015625 89.8089599609375 281.12646484375 46.620975494384766 321.986083984375 44.052982330322266 C 352.47015380859375 75.82670593261719 394.7713317871094 17.31522560119629 433.2172546386719 86.77012634277344" fill="rgb(131, 233, 135)" opacity="0.9972106" stroke="rgb(0, 0, 0)" stroke-linecap="round" stroke-linejoin="round" stroke-opacity="1.0" stroke-width="0"/>
    <path d="M 413.1059265136719 130.32577514648438 C 415.6430358886719 242.8961944580078 397.7384948730469 186.308837890625 364.1589660644531 237.1061248779297 C 276.74407958984375 253.39024353027344 346.8544006347656 244.94752502441406 315.32666015625 187.68553161621094 C 302.3870849609375 170.7421875 290.2348327636719 191.2339324951172 423.8675231933594 54.11396408081055 C 560.7490234375 63.261104583740234 501.7336730957031 103.16722106933594 413.1059265136719 130.32577514648438" fill="rgb(98, 197, 114)" opacity="0.9861821" stroke="rgb(0, 0, 0)" stroke-linecap="round" stroke-linejoin="round" stroke-opacity="1.0" stroke-width="0"/>
    <path d="M 466.3966979980469 224.79917907714844 C 463.748046875 228.5371856689453 462.05810546875 220.2428741455078 491.334228515625 277.5006408691406 C 437.07843017578125 307.60614013671875 389.3028564453125 328.8393859863281 376.5777282714844 288.8070983886719 C 437.95550537109375 236.76832580566406 450.2931213378906 254.3059539794922 457.6418151855469 235.1587371826172 C 453.2737121582031 228.47256469726562 449.77557373046875 227.28968811035156 466.3966979980469 224.79917907714844" fill="rgb(95, 178, 110)" opacity="1.0" stroke="rgb(0, 0, 0)" stroke-linecap="round" stroke-linejoin="round" stroke-opacity="1.0" stroke-width="0"/>
    <path d="M 162.58811950683594 53.51099395751953 C 179.1253662109375 64.49852752685547 175.8444061279297 86.15483856201172 157.87603759765625 63.04905700683594 C 135.41026306152344 49.851318359375 100.867919921875 74.49687194824219 127.21165466308594 58.334312438964844 C 139.00442504882812 48.124176025390625 140.0829620361328 44.96041488647461 167.16671752929688 63.37101745605469 C 183.6937255859375 73.16844177246094 170.55189514160156 57.383575439453125 162.58811950683594 53.51099395751953" fill="rgb(66, 176, 100)" opacity="0.6979457" stroke="rgb(0, 0, 0)" stroke-linecap="round" stroke-linejoin="round" stroke-opacity="1.0" stroke-width="0"/>
    <path d="M 141.4032440185547 513.9177856445312 C 106.18250274658203 531.007080078125 75.35192108154297 509.82818603515625 105.23323822021484 504.909423828125 C 76.30162048339844 507.5595397949219 79.10702514648438 504.18353271484375 9.631200790405273 505.02374267578125 C -51.20000076293945 483.1620178222656 15.963709831237793 449.7760925292969 86.87332153320312 467.9755859375 C 129.53030395507812 487.7003173828125 132.74473571777344 467.1128234863281 141.4032440185547 513.9177856445312" fill="rgb(26, 183, 226)" opacity="0.67304415" stroke="rgb(0, 0, 0)" stroke-linecap="round" stroke-linejoin="round" stroke-opacity="1.0" stroke-width="0"/>
    <path d="M 300.01416015625 198.52377319335938 C 297.98004150390625 191.18917846679688 325.17864990234375 231.9857177734375 283.75567626953125 243.5242919921875 C 258.1064453125 217.58541870117188 242.95762634277344 207.38429260253906 244.14845275878906 193.16656494140625 C 250.26739501953125 168.0175323486328 281.9577941894531 177.77865600585938 267.1221923828125 172.8208465576172 C 278.1086120605469 175.2935333251953 292.0266418457031 183.19979858398438 300.01416015625 198.52377319335938" fill="rgb(0, 0, 10)" opacity="1.0" stroke="rgb(0, 0, 0)" stroke-linecap="round" stroke-linejoin="round" stroke-opacity="1.0" stroke-width="0"/>
    <path d="M 188.02285766601562 329.0262145996094 C 32.45684051513672 341.93267822265625 53.19955825805664 313.9433288574219 97.72541809082031 347.109619140625 C 42.7850456237793 309.11224365234375 46.156673431396484 335.7912292480469 11.53754711151123 313.5980224609375 C 69.82865142822266 336.648681640625 72.91577911376953 317.5343322753906 77.0365219116211 326.6212158203125 C 279.1380615234375 331.125732421875 182.45420837402344 320.3805236816406 188.02285766601562 329.0262145996094" fill="rgb(252, 235, 25)" opacity="0.82302123" stroke="rgb(0, 0, 0)" stroke-linecap="round" stroke-linejoin="round" stroke-opacity="1.0" stroke-width="0"/>
    <path d="M 276.9785461425781 476.9114685058594 C 178.94021606445312 462.1244201660156 209.4510040283203 520.9474487304688 171.51145935058594 503.01983642578125 C 167.387451171875 501.7642822265625 149.09828186035156 538.09912109375 132.88705444335938 493.76007080078125 C 131.29383850097656 472.1086730957031 145.282470703125 451.10675048828125 184.72447204589844 463.0665283203125 C 227.12721252441406 496.267578125 240.71255493164062 433.0206604003906 276.9785461425781 476.9114685058594" fill="rgb(7, 69, 134)" opacity="0.8051238" stroke="rgb(0, 0, 0)" stroke-linecap="round" stroke-linejoin="round" stroke-opacity="1.0" stroke-width="0"/>
    <path d="M 121.33149719238281 118.09497833251953 C 119.67073059082031 127.1928482055664 111.39369201660156 139.93997192382812 98.48675537109375 134.38291931152344 C 87.76232147216797 132.8181915283203 93.0652084350586 138.1347198486328 69.5676498413086 138.73947143554688 C 74.6121597290039 132.1517333984375 73.44927978515625 138.22264099121094 67.88703155517578 132.8809356689453 C 98.35588836669922 127.21424102783203 101.23138427734375 134.78213500976562 121.33149719238281 118.09497833251953" fill="rgb(189, 226, 230)" opacity="0.17840013" stroke="rgb(0, 0, 0)" stroke-linecap="round" stroke-linejoin="round" stroke-opacity="1.0" stroke-width="0"/>
    <path d="M 261.0868225097656 214.29588317871094 C 273.2138366699219 245.3580780029297 289.9971923828125 238.30484008789062 271.19921875 244.17880249023438 C 260.3204650878906 252.4606475830078 262.1592102050781 242.2200164794922 264.0218200683594 229.26303100585938 C 270.72344970703125 223.03941345214844 240.9005584716797 204.88490295410156 272.97784423828125 195.92420959472656 C 291.85528564453125 202.08995056152344 288.0679931640625 216.25515747070312 261.0868225097656 214.29588317871094" fill="rgb(255, 255, 255)" opacity="1.0" stroke="rgb(0, 0, 0)" stroke-linecap="round" stroke-linejoin="round" stroke-opacity="1.0" stroke-width="0"/>
    <path d="M 217.85275268554688 141.77993774414062 C 193.04855346679688 144.2955780029297 150.6773681640625 178.65960693359375 205.93312072753906 139.17665100097656 C 299.0279541015625 134.27481079101562 228.02230834960938 125.80196380615234 185.9903564453125 149.8139190673828 C 188.22557067871094 150.029052734375 166.3686065673828 120.43090057373047 138.21510314941406 156.4973907470703 C 146.7996368408203 226.9853515625 167.52532958984375 144.65646362304688 217.85275268554688 141.77993774414062" fill="rgb(0, 0, 4)" opacity="1.0" stroke="rgb(0, 0, 0)" stroke-linecap="round" stroke-linejoin="round" stroke-opacity="1.0" stroke-width="0"/>
    <path d="M 294.6129150390625 215.36459350585938 C 299.08795166015625 232.55184936523438 298.1980285644531 236.560302734375 286.70391845703125 234.40414428710938 C 279.0709533691406 233.66110229492188 278.8544616699219 233.48899841308594 260.41815185546875 208.22335815429688 C 276.4776916503906 193.94935607910156 279.0759582519531 206.75503540039062 271.0594177246094 215.5641632080078 C 300.8532409667969 201.7691192626953 296.08697509765625 232.5513458251953 294.6129150390625 215.36459350585938" fill="rgb(0, 0, 11)" opacity="0.79582477" stroke="rgb(0, 0, 0)" stroke-linecap="round" stroke-linejoin="round" stroke-opacity="1.0" stroke-width="0"/>
    <path d="M 351.4765930175781 436.0724182128906 C 426.4474792480469 528.4769897460938 280.4564514160156 432.7314453125 282.5892333984375 476.35345458984375 C 243.66949462890625 476.80511474609375 262.308349609375 450.2117614746094 332.4082946777344 458.4405517578125 C 297.41876220703125 457.62701416015625 263.44635009765625 389.62640380859375 321.9507751464844 416.3470764160156 C 273.6871643066406 399.6957092285156 505.347412109375 388.4068298339844 351.4765930175781 436.0724182128906" fill="rgb(33, 123, 181)" opacity="1.0" stroke="rgb(0, 0, 0)" stroke-linecap="round" stroke-linejoin="round" stroke-opacity="1.0" stroke-width="0"/>
    <path d="M 292.66650390625 455.0996398925781 C 360.911376953125 437.3002624511719 311.593994140625 501.9584655761719 252.42498779296875 463.4264221191406 C 276.2602233886719 467.9284973144531 135.89376831054688 499.3799743652344 261.0899658203125 431.3178405761719 C 132.8647918701172 379.302001953125 251.9610595703125 412.4344787597656 317.3837890625 420.9000549316406 C 250.68048095703125 460.18060302734375 236.84130859375 417.612548828125 292.66650390625 455.0996398925781" fill="rgb(24, 127, 164)" opacity="1.0" stroke="rgb(0, 0, 0)" stroke-linecap="round" stroke-linejoin="round" stroke-opacity="1.0" stroke-width="0"/>
    <path d="M 152.39686584472656 179.63458251953125 C 154.50479125976562 194.57818603515625 155.56471252441406 218.07330322265625 155.4137725830078 211.6881866455078 C 151.1084747314453 197.69967651367188 155.32394409179688 196.76490783691406 152.01095581054688 214.05519104003906 C 161.47409057617188 207.0833740234375 144.66281127929688 167.4881134033203 168.0753936767578 170.18238830566406 C 159.96514892578125 187.83291625976562 160.5334014892578 202.11058044433594 152.39686584472656 179.63458251953125" fill="rgb(10, 0, 27)" opacity="0.8889252" stroke="rgb(0, 0, 0)" stroke-linecap="round" stroke-linejoin="round" stroke-opacity="1.0" stroke-width="0"/>
    <path d="M 90.53850555419922 250.3062744140625 C -21.15031623840332 250.6182098388672 -38.70838165283203 271.1208801269531 12.253483772277832 316.51434326171875 C 176.08493041992188 319.0076904296875 158.96786499023438 345.693359375 154.11477661132812 260.8988342285156 C 104.17686462402344 249.53451538085938 109.15789031982422 255.70455932617188 113.69395446777344 265.8287353515625 C 105.15397644042969 256.1346130371094 123.83256530761719 250.4233856201172 90.53850555419922 250.3062744140625" fill="rgb(83, 228, 222)" opacity="0.99664265" stroke="rgb(0, 0, 0)" stroke-linecap="round" stroke-linejoin="round" stroke-opacity="1.0" stroke-width="0"/>
    <path d="M 301.5401611328125 424.1943359375 C 310.2991638183594 401.2853088378906 269.8890380859375 394.86212158203125 276.15545654296875 431.8126220703125 C 216.45883178710938 446.1802978515625 232.95797729492188 463.5732421875 228.14968872070312 407.6451110839844 C 276.2252197265625 419.05169677734375 257.2542724609375 440.3691101074219 271.6545715332031 404.3210754394531 C 287.911865234375 403.5248718261719 283.8299560546875 423.708740234375 301.5401611328125 424.1943359375" fill="rgb(80, 117, 147)" opacity="0.67755365" stroke="rgb(0, 0, 0)" stroke-linecap="round" stroke-linejoin="round" stroke-opacity="1.0" stroke-width="0"/>
    <path d="M 266.4874572753906 488.08734130859375 C 247.44589233398438 515.3763427734375 226.13587951660156 510.5260314941406 194.635498046875 501.7193603515625 C 184.4815673828125 503.60919189453125 168.3551025390625 499.09332275390625 170.0674591064453 501.4333190917969 C 186.20541381835938 493.18853759765625 202.37745666503906 485.44281005859375 198.2721710205078 491.39501953125 C 198.88955688476562 477.2738037109375 200.08792114257812 462.1097106933594 266.4874572753906 488.08734130859375" fill="rgb(139, 244, 243)" opacity="0.86006606" stroke="rgb(0, 0, 0)" stroke-linecap="round" stroke-linejoin="round" stroke-opacity="1.0" stroke-width="0"/>
    <path d="M 435.9751281738281 475.1016540527344 C 398.1933288574219 467.39508056640625 407.1330261230469 477.042236328125 375.0948181152344 474.29620361328125 C 390.5381774902344 461.4641418457031 374.1697082519531 461.8243408203125 356.49444580078125 458.42498779296875 C 360.32342529296875 418.40478515625 376.8583068847656 434.17730712890625 397.26947021484375 456.1554870605469 C 443.5108642578125 476.6839904785156 431.0045471191406 482.5103759765625 435.9751281738281 475.1016540527344" fill="rgb(18, 174, 194)" opacity="0.59189826" stroke="rgb(0, 0, 0)" stroke-linecap="round" stroke-linejoin="round" stroke-opacity="1.0" stroke-width="0"/>
    <path d="M 298.307861328125 123.10919189453125 C 290.97613525390625 127.889892578125 275.2310485839844 122.01229858398438 269.62457275390625 146.77520751953125 C 209.3497772216797 131.90968322753906 210.40756225585938 154.6046142578125 232.65933227539062 94.19635772705078 C 269.3449401855469 90.17839813232422 283.4383239746094 90.50347137451172 271.44818115234375 92.36241912841797 C 275.81964111328125 98.15884399414062 284.7091369628906 103.30259704589844 298.307861328125 123.10919189453125" fill="rgb(95, 232, 171)" opacity="1.0" stroke="rgb(0, 0, 0)" stroke-linecap="round" stroke-linejoin="round" stroke-opacity="1.0" stroke-width="0"/>
    <path d="M 401.60101318359375 504.5148010253906 C 372.2198181152344 540.9812622070312 349.8274841308594 540.2814331054688 282.54058837890625 541.0211791992188 C 249.59054565429688 525.5121459960938 228.44790649414062 526.5073852539062 220.57989501953125 519.4545288085938 C 263.52471923828125 441.63238525390625 264.23583984375 428.75048828125 281.7481689453125 433.49298095703125 C 341.4523010253906 428.30462646484375 357.2502746582031 423.5807800292969 401.60101318359375 504.5148010253906" fill="rgb(56, 205, 236)" opacity="0.789226" stroke="rgb(0, 0, 0)" stroke-linecap="round" stroke-linejoin="round" stroke-opacity="1.0" stroke-width="0"/>
    <path d="M 531.27099609375 72.80563354492188 C 560.1030883789062 136.7250213623047 547.510498046875 131.88360595703125 477.4019470214844 138.02919006347656 C 445.7056579589844 121.04804229736328 440.7403869628906 122.27605438232422 435.54718017578125 69.7293701171875 C 453.8765563964844 41.91019058227539 470.9024658203125 34.65958786010742 479.82470703125 47.68855667114258 C 496.0267028808594 37.82676315307617 502.0457763671875 35.49858856201172 531.27099609375 72.80563354492188" fill="rgb(136, 159, 88)" opacity="1.0" stroke="rgb(0, 0, 0)" stroke-linecap="round" stroke-linejoin="round" stroke-opacity="1.0" stroke-width="0"/>
    <path d="M 399.7325134277344 261.4442443847656 C 412.438720703125 320.1302185058594 378.6925048828125 327.6611328125 362.3677978515625 294.2429504394531 C 313.9306335449219 298.06292724609375 309.52716064453125 284.2838134765625 303.1922912597656 262.9864196777344 C 319.4786376953125 244.40245056152344 319.1483154296875 226.74432373046875 321.0254211425781 237.48416137695312 C 346.7464904785156 254.10833740234375 368.77606201171875 241.05398559570312 399.7325134277344 261.4442443847656" fill="rgb(73, 209, 184)" opacity="0.98859066" stroke="rgb(0, 0, 0)" stroke-linecap="round" stroke-linejoin="round" stroke-opacity="1.0" stroke-width="0"/>
    <path d="M 294.7345275878906 470.0278015136719 C 287.70904541015625 494.0606689453125 282.1814880371094 496.1414794921875 247.11593627929688 491.2427062988281 C 230.42654418945312 475.97265625 201.49388122558594 476.4984130859375 194.10137939453125 469.7830505371094 C 240.3032684326172 453.3778991699219 241.0926971435547 440.6813659667969 241.9557647705078 424.6461181640625 C 265.65606689453125 425.89337158203125 283.0948791503906 433.4193420410156 294.7345275878906 470.0278015136719" fill="rgb(53, 102, 149)" opacity="0.9304053" stroke="rgb(0, 0, 0)" stroke-linecap="round" stroke-linejoin="round" stroke-opacity="1.0" stroke-width="0"/>
    <path d="M 388.6546325683594 232.6851043701172 C 363.36834716796875 247.3260498046875 354.62310791015625 249.79782104492188 361.436279296875 246.2276153564453 C 333.793701171875 260.3070068359375 314.13580322265625 283.49102783203125 295.185791015625 268.7196960449219 C 322.5678405761719 246.23739624023438 343.842529296875 240.16412353515625 360.79339599609375 225.81613159179688 C 367.6295471191406 203.0215606689453 388.5307922363281 208.63641357421875 388.6546325683594 232.6851043701172" fill="rgb(255, 110, 0)" opacity="1.0" stroke="rgb(0, 0, 0)" stroke-linecap="round" stroke-linejoin="round" stroke-opacity="1.0" stroke-width="0"/>
    <path d="M 475.50616455078125 412.4548034667969 C 481.2865905761719 430.43341064453125 479.42413330078125 431.4161376953125 463.0184020996094 432.7152099609375 C 447.7902526855469 429.2314147949219 446.7708435058594 432.58453369140625 445.8082580566406 416.3713073730469 C 439.29180908203125 398.0390625 450.3476867675781 408.8235168457031 441.07000732421875 402.748779296875 C 450.5269775390625 399.761474609375 460.87542724609375 408.63140869140625 475.50616455078125 412.4548034667969" fill="rgb(23, 120, 161)" opacity="0.087161794" stroke="rgb(0, 0, 0)" stroke-linecap="round" stroke-linejoin="round" stroke-opacity="1.0" stroke-width="0"/>
    <path d="M 325.333251953125 414.90576171875 C 331.6039733886719 443.4052429199219 311.8158874511719 434.20550537109375 285.6101379394531 430.2809753417969 C 268.59368896484375 433.8984680175781 271.65155029296875 428.1061096191406 256.4346618652344 414.28936767578125 C 247.14459228515625 403.93084716796875 253.5559539794922 409.27142333984375 252.25477600097656 405.8370361328125 C 284.49627685546875 401.671875 297.48114013671875 402.3565979003906 325.333251953125 414.90576171875" fill="rgb(20, 110, 192)" opacity="0.85934234" stroke="rgb(0, 0, 0)" stroke-linecap="round" stroke-linejoin="round" stroke-opacity="1.0" stroke-width="0"/>
    <path d="M 356.0849609375 391.0362548828125 C 368.80010986328125 405.3896484375 360.34344482421875 402.2574157714844 322.5746154785156 408.11602783203125 C 304.7578125 424.0963439941406 317.41668701171875 415.7988586425781 312.9996337890625 365.030029296875 C 307.26470947265625 348.9679870605469 301.53167724609375 372.6066589355469 311.8740234375 381.3874816894531 C 342.9978942871094 365.3023986816406 364.5252685546875 383.7429504394531 356.0849609375 391.0362548828125" fill="rgb(139, 122, 0)" opacity="0.18347536" stroke="rgb(0, 0, 0)" stroke-linecap="round" stroke-linejoin="round" stroke-opacity="1.0" stroke-width="0"/>
    <path d="M 162.5957489013672 364.662353515625 C 142.32986450195312 393.6752014160156 140.08697509765625 405.5409851074219 81.15035247802734 431.6948547363281 C 31.372488021850586 379.43353271484375 49.888465881347656 388.70758056640625 87.87963104248047 355.3937683105469 C 88.34209442138672 355.8240661621094 91.24958801269531 358.5805358886719 89.64375305175781 356.894287109375 C 119.1635513305664 346.1307373046875 150.87774658203125 335.7478942871094 162.5957489013672 364.662353515625" fill="rgb(247, 225, 0)" opacity="0.9514142" stroke="rgb(0, 0, 0)" stroke-linecap="round" stroke-linejoin="round" stroke-opacity="1.0" stroke-width="0"/>
    <path d="M 439.3350830078125 73.03282928466797 C 441.3000183105469 90.4061050415039 438.5507507324219 82.57677459716797 416.89373779296875 74.06648254394531 C 419.5331115722656 82.26886749267578 414.8114318847656 71.86161041259766 397.426513671875 55.30997848510742 C 383.74609375 54.82223892211914 394.8577575683594 39.44935989379883 432.32806396484375 37.38583755493164 C 449.2600402832031 54.43881607055664 447.81646728515625 54.57289123535156 439.3350830078125 73.03282928466797" fill="rgb(143, 255, 144)" opacity="0.5415263" stroke="rgb(0, 0, 0)" stroke-linecap="round" stroke-linejoin="round" stroke-opacity="1.0" stroke-width="0"/>
    <path d="M 225.62925720214844 88.37089538574219 C 195.98695373535156 95.53111267089844 177.54476928710938 97.7725601196289 172.4114227294922 104.84535217285156 C 162.84039306640625 109.6021728515625 156.81764221191406 111.69060516357422 155.8059844970703 85.4832763671875 C 149.81063842773438 65.88487243652344 159.27256774902344 64.83851623535156 183.24014282226562 66.0728988647461 C 203.54209899902344 58.671268463134766 210.63478088378906 63.30934143066406 225.62925720214844 88.37089538574219" fill="rgb(73, 207, 191)" opacity="0.78884304" stroke="rgb(0, 0, 0)" stroke-linecap="round" stroke-linejoin="round" stroke-opacity="1.0" stroke-width="0"/>
    <path d="M 118.69861602783203 126.82588958740234 C 110.37734985351562 128.9750518798828 98.07472229003906 132.6337127685547 99.6332015991211 139.88038635253906 C 106.3849868774414 136.3521270751953 96.43148040771484 129.08255004882812 72.25487518310547 126.76657104492188 C 87.46311950683594 123.3086166381836 99.66703033447266 119.839111328125 98.24674224853516 107.0457534790039 C 103.3045425415039 117.92935943603516 114.7326431274414 123.92232513427734 118.69861602783203 126.82588958740234" fill="rgb(92, 160, 185)" opacity="0.0" stroke="rgb(0, 0, 0)" stroke-linecap="round" stroke-linejoin="round" stroke-opacity="1.0" stroke-width="0"/>
    <path d="M 283.8282165527344 425.58990478515625 C 287.12371826171875 441.6995544433594 268.1167907714844 434.65472412109375 242.81785583496094 435.2216491699219 C 236.0987548828125 429.89739990234375 221.0424041748047 427.91461181640625 222.4351806640625 426.5198974609375 C 217.26974487304688 406.47357177734375 233.91845703125 398.749267578125 240.90188598632812 404.8345642089844 C 258.5912780761719 412.2548828125 282.49725341796875 405.91796875 283.8282165527344 425.58990478515625" fill="rgb(19, 99, 183)" opacity="0.9256686" stroke="rgb(0, 0, 0)" stroke-linecap="round" stroke-linejoin="round" stroke-opacity="1.0" stroke-width="0"/>
    <path d="M 521.577392578125 505.03851318359375 C 517.7371215820312 515.3799438476562 511.0849914550781 522.3508911132812 485.1025695800781 532.3228149414062 C 461.9519348144531 529.5286865234375 450.0263977050781 518.9071655273438 454.7909240722656 510.80218505859375 C 476.2708435058594 493.5307922363281 484.5980529785156 484.0345458984375 497.53192138671875 477.8743591308594 C 524.0394287109375 471.0475158691406 526.2539672851562 485.5484924316406 521.577392578125 505.03851318359375" fill="rgb(72, 232, 231)" opacity="1.0" stroke="rgb(0, 0, 0)" stroke-linecap="round" stroke-linejoin="round" stroke-opacity="1.0" stroke-width="0"/>
    <path d="M 435.2471008300781 306.613525390625 C 409.6363830566406 318.3123474121094 391.87103271484375 321.109130859375 384.58599853515625 327.6937561035156 C 398.3558044433594 332.45355224609375 391.22467041015625 331.949951171875 355.6819763183594 324.3497009277344 C 410.07958984375 316.1204833984375 407.42303466796875 307.9659423828125 405.150390625 306.57623291015625 C 404.6113586425781 312.674560546875 410.0628662109375 300.26910400390625 435.2471008300781 306.613525390625" fill="rgb(152, 18, 23)" opacity="0.8103247" stroke="rgb(0, 0, 0)" stroke-linecap="round" stroke-linejoin="round" stroke-opacity="1.0" stroke-width="0"/>
    <path d="M 291.01129150390625 437.3282165527344 C 292.3908996582031 449.2278747558594 280.3595886230469 455.5425720214844 281.0281677246094 446.0179443359375 C 260.6731262207031 448.8004150390625 248.8596649169922 445.4695739746094 254.7356414794922 437.1838073730469 C 253.14480590820312 407.2204895019531 245.31533813476562 398.75958251953125 266.427490234375 405.2665710449219 C 284.5262756347656 403.73272705078125 298.01580810546875 418.7865295410156 291.01129150390625 437.3282165527344" fill="rgb(7, 116, 181)" opacity="0.42422134" stroke="rgb(0, 0, 0)" stroke-linecap="round" stroke-linejoin="round" stroke-opacity="1.0" stroke-width="0"/>
    <path d="M 161.6119384765625 365.1685485839844 C 169.9683380126953 374.74566650390625 173.4303436279297 375.53302001953125 140.91917419433594 372.9101867675781 C 129.6411895751953 376.48980712890625 138.17880249023438 372.23822021484375 147.59188842773438 365.9185485839844 C 146.35275268554688 350.8897705078125 151.73272705078125 349.37957763671875 170.04852294921875 340.30780029296875 C 171.52450561523438 319.8229064941406 163.99192810058594 344.4826965332031 161.6119384765625 365.1685485839844" fill="rgb(253, 186, 13)" opacity="0.2544245" stroke="rgb(0, 0, 0)" stroke-linecap="round" stroke-linejoin="round" stroke-opacity="1.0" stroke-width="0"/>
    <path d="M 275.40484619140625 290.1521301269531 C 257.7809753417969 294.7369079589844 248.91273498535156 303.9765319824219 256.78125 300.3687744140625 C 267.32867431640625 302.6771545410156 256.53033447265625 299.9275817871094 239.9243621826172 291.1162414550781 C 238.44384765625 289.2291564941406 253.1904754638672 290.3515319824219 267.4938049316406 291.15435791015625 C 268.9604797363281 286.4626159667969 282.4262390136719 287.94744873046875 275.40484619140625 290.1521301269531" fill="rgb(179, 146, 0)" opacity="0.0" stroke="rgb(0, 0, 0)" stroke-linecap="round" stroke-linejoin="round" stroke-opacity="1.0" stroke-width="0"/>
    <path d="M 56.298500061035156 141.91738891601562 C 59.48832321166992 138.33253479003906 43.94879150390625 138.55807495117188 34.751190185546875 132.72840881347656 C 34.18937301635742 147.73593139648438 16.24119758605957 145.4478302001953 21.841400146484375 143.00390625 C 32.82538986206055 122.88678741455078 38.86061477661133 115.60209655761719 35.26011276245117 125.7453842163086 C 49.088314056396484 121.30988311767578 64.15827178955078 127.90179443359375 56.298500061035156 141.91738891601562" fill="rgb(61, 179, 137)" opacity="0.9932835" stroke="rgb(0, 0, 0)" stroke-linecap="round" stroke-linejoin="round" stroke-opacity="1.0" stroke-width="0"/>
    <path d="M 453.4739685058594 149.2456512451172 C 448.6371154785156 163.93601989746094 439.135498046875 162.57656860351562 425.5865783691406 162.79989624023438 C 416.8174743652344 159.5612335205078 411.2586364746094 152.46127319335938 407.5418395996094 144.1121368408203 C 409.3164978027344 138.06614685058594 416.9605712890625 125.83842468261719 421.9385681152344 124.0604019165039 C 434.6730041503906 127.84171295166016 444.74151611328125 134.2041778564453 453.4739685058594 149.2456512451172" fill="rgb(77, 151, 76)" opacity="0.11592859" stroke="rgb(0, 0, 0)" stroke-linecap="round" stroke-linejoin="round" stroke-opacity="1.0" stroke-width="0"/>
    <path d="M 105.35431671142578 139.92129516601562 C 93.83895874023438 145.7395782470703 82.7140884399414 151.00270080566406 85.52407836914062 146.4954376220703 C 77.52561950683594 145.4770050048828 67.35615539550781 139.30589294433594 61.342002868652344 141.829833984375 C 62.00167465209961 132.70071411132812 69.49014282226562 123.12379455566406 78.79532623291016 118.86082458496094 C 82.35934448242188 126.00936126708984 92.91702270507812 130.39614868164062 105.35431671142578 139.92129516601562" fill="rgb(73, 210, 146)" opacity="0.5473244" stroke="rgb(0, 0, 0)" stroke-linecap="round" stroke-linejoin="round" stroke-opacity="1.0" stroke-width="0"/>
    <path d="M 526.9014892578125 31.34490394592285 C 521.849609375 48.620887756347656 514.8326416015625 61.05866622924805 516.8411254882812 49.52301788330078 C 502.8035888671875 46.827091217041016 484.6605224609375 45.302650451660156 484.3144836425781 47.04181671142578 C 489.5020446777344 28.05545997619629 493.0321044921875 16.03276252746582 493.96527099609375 22.97173309326172 C 511.2720642089844 20.858661651611328 522.6187744140625 24.70200538635254 526.9014892578125 31.34490394592285" fill="rgb(131, 223, 52)" opacity="0.25714177" stroke="rgb(0, 0, 0)" stroke-linecap="round" stroke-linejoin="round" stroke-opacity="1.0" stroke-width="0"/>
    <path d="M 296.2152099609375 285.6328430175781 C 291.14715576171875 296.7222595214844 291.4831237792969 315.7823791503906 294.23583984375 310.6813659667969 C 285.87554931640625 302.7497253417969 271.4732666015625 300.4136962890625 266.06207275390625 287.92718505859375 C 253.5282745361328 283.8865661621094 268.48736572265625 287.6120300292969 275.9494934082031 285.64453125 C 286.31524658203125 284.0184326171875 295.9781799316406 294.64117431640625 296.2152099609375 285.6328430175781" fill="rgb(127, 108, 37)" opacity="0.2947417" stroke="rgb(0, 0, 0)" stroke-linecap="round" stroke-linejoin="round" stroke-opacity="1.0" stroke-width="0"/>
    <path d="M 351.5726013183594 109.4686050415039 C 346.8490295410156 116.18222045898438 339.9107666015625 125.23486328125 329.43389892578125 115.91492462158203 C 317.93487548828125 131.18820190429688 312.5037841796875 119.30300903320312 313.59869384765625 108.468505859375 C 313.4031677246094 95.96791076660156 313.7695007324219 84.00656127929688 323.2485656738281 78.69327545166016 C 336.0343933105469 84.14720916748047 345.6979675292969 93.03077697753906 351.5726013183594 109.4686050415039" fill="rgb(182, 255, 179)" opacity="0.11370345" stroke="rgb(0, 0, 0)" stroke-linecap="round" stroke-linejoin="round" stroke-opacity="1.0" stroke-width="0"/>
    <path d="M 139.2185516357422 74.61479949951172 C 148.60858154296875 90.15754699707031 134.54664611816406 95.35719299316406 132.09146118164062 91.69840240478516 C 111.86808013916016 86.95477294921875 99.5792465209961 85.6401138305664 105.23905944824219 69.45146942138672 C 106.13780975341797 62.92387390136719 109.97581481933594 52.04090118408203 129.6082763671875 40.947593688964844 C 134.9061737060547 51.67669677734375 136.7432403564453 66.6519546508789 139.2185516357422 74.61479949951172" fill="rgb(90, 197, 55)" opacity="0.9963971" stroke="rgb(0, 0, 0)" stroke-linecap="round" stroke-linejoin="round" stroke-opacity="1.0" stroke-width="0"/>
  </g>
</svg>
