<?xml version="1.0" ?>
<svg height="512" style="background-color: rgb(242, 245, 223, 0.04529254510998726)" version="1.1" width="512" xmlns="http://www.w3.org/2000/svg">
  <defs/>
  <g>
    <path d="M 486.8086242675781 483.9759216308594 C 482.3956298828125 494.468994140625 521.3762817382812 563.2000122070312 489.9654541015625 501.6742858886719 C 377.9309997558594 433.8919982910156 384.7239685058594 535.9148559570312 432.52667236328125 467.59210205078125 C 404.52581787109375 411.529541015625 424.9494934082031 416.8080749511719 407.79400634765625 445.6929626464844 C 436.7561950683594 459.1572570800781 487.21728515625 476.4254455566406 486.8086242675781 483.9759216308594" fill="rgb(73, 29, 71)" opacity="0.3631083" stroke="rgb(0, 0, 0)" stroke-linecap="round" stroke-linejoin="round" stroke-opacity="1.0" stroke-width="0"/>
    <path d="M 132.39353942871094 422.5863952636719 C 143.54835510253906 261.1646423339844 7.676620960235596 381.5520324707031 222.0523681640625 398.77630615234375 C 50.342105865478516 450.01611328125 151.55784606933594 342.1903076171875 44.38825225830078 400.7466125488281 C 53.81546401977539 340.63360595703125 131.63706970214844 324.51116943359375 87.3176040649414 340.0411376953125 C 149.72117614746094 289.4825744628906 155.3974609375 475.7123718261719 132.39353942871094 422.5863952636719" fill="rgb(85, 71, 126)" opacity="0.039912187" stroke="rgb(0, 0, 0)" stroke-linecap="round" stroke-linejoin="round" stroke-opacity="1.0" stroke-width="0"/>
    <path d="M 163.9757843017578 295.8677978515625 C 181.69908142089844 331.029296875 153.52322387695312 310.2174072265625 125.03299713134766 319.2293701171875 C 35.46987533569336 169.63693237304688 -27.284202575683594 357.75567626953125 -0.1273108422756195 262.1139831542969 C 96.48895263671875 225.12240600585938 138.44891357421875 333.7198791503906 148.690185546875 273.19183349609375 C 120.03470611572266 183.36936950683594 205.34364318847656 284.4848937988281 163.9757843017578 295.8677978515625" fill="rgb(0, 28, 47)" opacity="1.0" stroke="rgb(0, 0, 0)" stroke-linecap="round" stroke-linejoin="round" stroke-opacity="1.0" stroke-width="0"/>
    <path d="M 136.07196044921875 88.12198638916016 C 191.3825225830078 242.84136962890625 119.86454010009766 139.16583251953125 122.5317153930664 106.2070541381836 C 116.80985260009766 71.517578125 73.94918823242188 69.47638702392578 40.0318489074707 110.26837921142578 C 33.420162200927734 52.862247467041016 71.83505249023438 -23.23118019104004 67.68057250976562 47.182918548583984 C 168.67910766601562 17.66676902770996 53.75410079956055 16.566810607910156 136.07196044921875 88.12198638916016" fill="rgb(2, 0, 32)" opacity="1.0" stroke="rgb(0, 0, 0)" stroke-linecap="round" stroke-linejoin="round" stroke-opacity="1.0" stroke-width="0"/>
    <path d="M 435.16265869140625 289.02001953125 C 426.77178955078125 211.8860321044922 470.0852355957031 282.9917907714844 361.42523193359375 316.195556640625 C 334.7628173828125 114.2433853149414 455.614013671875 227.92800903320312 390.6682434082031 179.16656494140625 C 364.7799987792969 185.90679931640625 353.32537841796875 214.23727416992188 395.543212890625 102.84149169921875 C 508.6611633300781 19.36821174621582 532.3716430664062 258.6116638183594 435.16265869140625 289.02001953125" fill="rgb(40, 45, 93)" opacity="0.8572234" stroke="rgb(0, 0, 0)" stroke-linecap="round" stroke-linejoin="round" stroke-opacity="1.0" stroke-width="0"/>
    <path d="M 156.8451385498047 142.47056579589844 C 162.8056182861328 255.5764617919922 182.469482421875 176.6497039794922 96.7229995727539 210.292236328125 C 5.450671672821045 312.9859313964844 7.604776382446289 -11.675326347351074 156.67041015625 203.1515350341797 C 77.49812316894531 92.94632720947266 67.32498168945312 182.5775604248047 81.27462005615234 145.22531127929688 C 135.97686767578125 94.2824935913086 136.17465209960938 130.1831512451172 156.8451385498047 142.47056579589844" fill="rgb(4, 126, 255)" opacity="0.14768006" stroke="rgb(0, 0, 0)" stroke-linecap="round" stroke-linejoin="round" stroke-opacity="1.0" stroke-width="0"/>
    <path d="M 488.574951171875 241.44952392578125 C 480.9497985839844 307.5111083984375 490.6779479980469 223.3206024169922 433.7809753417969 285.85491943359375 C 410.4714050292969 326.73626708984375 374.5381164550781 309.410400390625 440.193359375 157.56214904785156 C 326.88916015625 205.47451782226562 418.8499450683594 175.3907012939453 451.6536865234375 218.13429260253906 C 496.5585632324219 199.31861877441406 501.32830810546875 208.11843872070312 488.574951171875 241.44952392578125" fill="rgb(81, 117, 122)" opacity="0.99741113" stroke="rgb(0, 0, 0)" stroke-linecap="round" stroke-linejoin="round" stroke-opacity="1.0" stroke-width="0"/>
    <path d="M 321.9242858886719 339.0661315917969 C 247.86355590820312 285.667236328125 313.5552062988281 301.146728515625 289.3924865722656 370.955810546875 C 148.11279296875 304.2183532714844 359.3528137207031 277.53094482421875 261.613037109375 248.17955017089844 C 330.2274169921875 173.222412109375 229.07855224609375 195.77694702148438 273.0577392578125 218.39617919921875 C 335.8713073730469 156.8260040283203 335.9939270019531 282.0429992675781 321.9242858886719 339.0661315917969" fill="rgb(8, 183, 255)" opacity="0.3023128" stroke="rgb(0, 0, 0)" stroke-linecap="round" stroke-linejoin="round" stroke-opacity="1.0" stroke-width="0"/>
    <path d="M 385.9961242675781 206.72726440429688 C 349.78961181640625 183.25579833984375 357.91168212890625 213.5531768798828 353.9867858886719 178.6450653076172 C 355.0902099609375 196.5995330810547 343.14569091796875 221.30517578125 314.9098205566406 209.7218780517578 C 340.87457275390625 165.86737060546875 374.43170166015625 233.0231170654297 388.52142333984375 169.31959533691406 C 331.75323486328125 168.22718811035156 332.8559265136719 247.27455139160156 385.9961242675781 206.72726440429688" fill="rgb(92, 118, 179)" opacity="0.5141099" stroke="rgb(0, 0, 0)" stroke-linecap="round" stroke-linejoin="round" stroke-opacity="1.0" stroke-width="0"/>
    <path d="M 48.16419982910156 82.77206420898438 C 54.036502838134766 92.64763641357422 58.77665710449219 75.13414764404297 50.05521011352539 123.2510757446289 C 13.282508850097656 148.27732849121094 -7.610479831695557 208.9215850830078 9.492615699768066 130.74159240722656 C 49.9405517578125 77.74056243896484 52.928836822509766 89.64588928222656 39.550594329833984 78.70750427246094 C 49.833412170410156 88.90764617919922 39.05806350708008 85.08700561523438 48.16419982910156 82.77206420898438" fill="rgb(11, 10, 87)" opacity="1.0" stroke="rgb(0, 0, 0)" stroke-linecap="round" stroke-linejoin="round" stroke-opacity="1.0" stroke-width="0"/>
    <path d="M 354.801513671875 81.77919006347656 C 136.98748779296875 140.9495086669922 337.04644775390625 101.30821228027344 245.843505859375 184.0674591064453 C 205.4378662109375 56.229408264160156 183.94285583496094 125.02640533447266 195.7998504638672 133.0365753173828 C 259.39593505859375 63.813899993896484 168.93545532226562 127.88809967041016 266.90533447265625 56.48640441894531 C 301.58367919921875 96.3914794921875 246.2513885498047 50.38557815551758 354.801513671875 81.77919006347656" fill="rgb(35, 238, 215)" opacity="0.11321517" stroke="rgb(0, 0, 0)" stroke-linecap="round" stroke-linejoin="round" stroke-opacity="1.0" stroke-width="0"/>
    <path d="M 161.11619567871094 367.7939758300781 C 176.4099884033203 390.7816467285156 270.60430908203125 315.61846923828125 201.1852569580078 441.5111389160156 C 178.63934326171875 334.9272766113281 179.5578155517578 368.8763732910156 183.57382202148438 373.90081787109375 C 183.63873291015625 345.5888366699219 189.70370483398438 349.96624755859375 183.96104431152344 349.0521240234375 C 246.89976501464844 303.50830078125 204.61981201171875 379.4765930175781 161.11619567871094 367.7939758300781" fill="rgb(32, 17, 36)" opacity="0.9571565" stroke="rgb(0, 0, 0)" stroke-linecap="round" stroke-linejoin="round" stroke-opacity="1.0" stroke-width="0"/>
    <path d="M 461.5525817871094 93.17192077636719 C 489.30023193359375 62.82085418701172 449.06842041015625 47.70519256591797 452.9126281738281 83.3354721069336 C 410.87506103515625 153.72084045410156 354.2283020019531 49.546844482421875 350.9474182128906 120.08967590332031 C 493.0687561035156 42.191001892089844 394.3179016113281 32.57661437988281 420.8026123046875 23.900503158569336 C 489.55474853515625 17.159568786621094 492.4884948730469 131.6907501220703 461.5525817871094 93.17192077636719" fill="rgb(0, 0, 30)" opacity="1.0" stroke="rgb(0, 0, 0)" stroke-linecap="round" stroke-linejoin="round" stroke-opacity="1.0" stroke-width="0"/>
    <path d="M 499.751708984375 354.8792419433594 C 480.7437744140625 405.9834899902344 490.9498596191406 397.82275390625 451.08038330078125 398.80804443359375 C 316.7031555175781 369.38232421875 382.340087890625 408.3620910644531 419.56591796875 351.2052307128906 C 394.3000183105469 357.21160888671875 482.80615234375 368.4991760253906 445.5457458496094 320.3267822265625 C 472.2786560058594 317.2996826171875 496.5858459472656 349.9300231933594 499.751708984375 354.8792419433594" fill="rgb(63, 23, 108)" opacity="0.25223175" stroke="rgb(0, 0, 0)" stroke-linecap="round" stroke-linejoin="round" stroke-opacity="1.0" stroke-width="0"/>
    <path d="M 408.974365234375 47.04375076293945 C 371.0382385253906 167.28253173828125 451.438232421875 16.988208770751953 356.24737548828125 94.08743286132812 C 355.2776184082031 145.33694458007812 389.3594055175781 107.94668579101562 376.56219482421875 53.09221267700195 C 376.4687194824219 62.98630905151367 380.7738342285156 36.352210998535156 410.56365966796875 25.39419937133789 C 459.9357604980469 14.276530265808105 416.19140625 49.11556625366211 408.974365234375 47.04375076293945" fill="rgb(4, 1, 38)" opacity="1.0" stroke="rgb(0, 0, 0)" stroke-linecap="round" stroke-linejoin="round" stroke-opacity="1.0" stroke-width="0"/>
    <path d="M 455.86553955078125 433.7721862792969 C 445.0276184082031 424.4216003417969 482.6013488769531 429.0643005371094 471.3684997558594 451.65362548828125 C 381.11297607421875 468.2267761230469 386.40789794921875 415.1015930175781 414.23114013671875 409.0151672363281 C 446.6268615722656 416.5093994140625 414.8498229980469 399.3189697265625 462.028076171875 363.517578125 C 527.8192749023438 397.8706359863281 510.9577331542969 442.9427490234375 455.86553955078125 433.7721862792969" fill="rgb(133, 161, 231)" opacity="0.57813543" stroke="rgb(0, 0, 0)" stroke-linecap="round" stroke-linejoin="round" stroke-opacity="1.0" stroke-width="0"/>
    <path d="M 313.5345153808594 477.0675048828125 C 259.51348876953125 494.52825927734375 358.540283203125 506.361328125 184.3345947265625 484.4591979980469 C 256.15582275390625 399.75030517578125 228.0492706298828 459.9332580566406 227.41311645507812 451.92572021484375 C 201.9394989013672 433.0863342285156 290.323974609375 458.6420593261719 276.7139892578125 426.93609619140625 C 271.48004150390625 376.6416015625 315.7953796386719 382.536376953125 313.5345153808594 477.0675048828125" fill="rgb(32, 69, 236)" opacity="0.32628313" stroke="rgb(0, 0, 0)" stroke-linecap="round" stroke-linejoin="round" stroke-opacity="1.0" stroke-width="0"/>
    <path d="M 401.8147888183594 472.5187683105469 C 382.27984619140625 453.8516845703125 343.9830017089844 496.7158203125 391.4710388183594 481.5142517089844 C 373.56292724609375 554.0550537109375 341.9525146484375 519.6683959960938 398.8327941894531 515.016845703125 C 376.84710693359375 489.2608947753906 387.7369079589844 426.2952575683594 442.0824279785156 458.39215087890625 C 401.34295654296875 442.2990417480469 403.1180114746094 463.95068359375 401.8147888183594 472.5187683105469" fill="rgb(168, 56, 71)" opacity="0.38286966" stroke="rgb(0, 0, 0)" stroke-linecap="round" stroke-linejoin="round" stroke-opacity="1.0" stroke-width="0"/>
    <path d="M 250.50390625 82.77590942382812 C 271.4942932128906 63.83530044555664 198.54180908203125 34.35681915283203 204.166748046875 127.89700317382812 C 209.91944885253906 79.718017578125 185.0217742919922 174.57318115234375 182.45350646972656 67.28915405273438 C 196.6488800048828 46.349525451660156 207.26406860351562 32.622901916503906 250.00665283203125 40.65985870361328 C 217.9427490234375 24.753585815429688 332.8775329589844 71.10257720947266 250.50390625 82.77590942382812" fill="rgb(0, 1, 33)" opacity="0.9999399" stroke="rgb(0, 0, 0)" stroke-linecap="round" stroke-linejoin="round" stroke-opacity="1.0" stroke-width="0"/>
    <path d="M 527.2650146484375 418.6076354980469 C 462.5293273925781 386.5050964355469 474.2030029296875 405.5162353515625 476.6076354980469 380.494873046875 C 432.9041442871094 327.7712097167969 431.7638244628906 395.3627624511719 434.813232421875 410.5072021484375 C 429.92608642578125 384.53582763671875 462.3907470703125 331.13055419921875 490.3280944824219 371.3614501953125 C 477.727783203125 376.4701232910156 500.37054443359375 384.2802429199219 527.2650146484375 418.6076354980469" fill="rgb(21, 32, 80)" opacity="0.9330111" stroke="rgb(0, 0, 0)" stroke-linecap="round" stroke-linejoin="round" stroke-opacity="1.0" stroke-width="0"/>
    <path d="M 115.72200012207031 413.8489990234375 C 53.398536682128906 439.7893371582031 272.98199462890625 532.2133178710938 16.019088745117188 489.7182922363281 C 28.966840744018555 449.3533020019531 115.62165069580078 401.2737121582031 4.233253002166748 421.240234375 C -15.453099250793457 388.92529296875 37.32823944091797 355.5204772949219 58.6359977722168 382.7982482910156 C 3.9142813682556152 497.8416748046875 66.95719909667969 390.99066162109375 115.72200012207031 413.8489990234375" fill="rgb(16, 72, 204)" opacity="0.16391991" stroke="rgb(0, 0, 0)" stroke-linecap="round" stroke-linejoin="round" stroke-opacity="1.0" stroke-width="0"/>
    <path d="M 310.1802673339844 402.5591735839844 C 379.1031494140625 423.3763427734375 367.96923828125 478.1978454589844 262.10565185546875 382.3984375 C 115.82319641113281 389.832275390625 243.95742797851562 372.7074279785156 226.4120635986328 349.7768859863281 C 160.97911071777344 368.0556640625 218.19493103027344 282.69464111328125 272.8146667480469 390.14923095703125 C 251.73179626464844 252.68470764160156 250.23794555664062 375.6776123046875 310.1802673339844 402.5591735839844" fill="rgb(12, 8, 62)" opacity="1.0" stroke="rgb(0, 0, 0)" stroke-linecap="round" stroke-linejoin="round" stroke-opacity="1.0" stroke-width="0"/>
    <path d="M 472.2786865234375 131.5231170654297 C 540.7982177734375 185.33253479003906 328.65460205078125 156.83168029785156 367.3360595703125 204.74180603027344 C 403.826171875 203.67066955566406 417.38665771484375 185.70396423339844 389.5684509277344 167.72801208496094 C 358.12908935546875 172.72052001953125 417.84619140625 68.8198013305664 380.1734313964844 141.93978881835938 C 372.1967468261719 209.9159698486328 382.06427001953125 162.60162353515625 472.2786865234375 131.5231170654297" fill="rgb(110, 149, 184)" opacity="0.7061397" stroke="rgb(0, 0, 0)" stroke-linecap="round" stroke-linejoin="round" stroke-opacity="1.0" stroke-width="0"/>
    <path d="M 138.55264282226562 295.95123291015625 C 133.32315063476562 357.36260986328125 82.54756927490234 315.224853515625 98.49571990966797 317.6490478515625 C 89.60780334472656 297.3283996582031 100.83275604248047 251.07444763183594 20.554153442382812 257.6905517578125 C 170.3187255859375 179.7486114501953 183.374267578125 285.29296875 126.87814331054688 244.24801635742188 C 96.1929931640625 254.5293426513672 124.77525329589844 274.8645935058594 138.55264282226562 295.95123291015625" fill="rgb(1, 3, 42)" opacity="1.0" stroke="rgb(0, 0, 0)" stroke-linecap="round" stroke-linejoin="round" stroke-opacity="1.0" stroke-width="0"/>
    <path d="M 136.071533203125 67.15058898925781 C 116.06126403808594 34.84033203125 154.4359588623047 87.3740234375 150.58958435058594 61.39021301269531 C 153.74461364746094 94.771728515625 116.17285919189453 29.044755935668945 57.04796600341797 26.10238265991211 C 82.04183959960938 -6.260978698730469 125.03590393066406 17.356670379638672 117.14669036865234 43.6060905456543 C 141.2576446533203 67.37449645996094 164.75103759765625 73.2567138671875 136.071533203125 67.15058898925781" fill="rgb(12, 21, 63)" opacity="0.91552836" stroke="rgb(0, 0, 0)" stroke-linecap="round" stroke-linejoin="round" stroke-opacity="1.0" stroke-width="0"/>
    <path d="M 115.94271087646484 548.8394165039062 C 85.5357666015625 554.8057861328125 87.40509796142578 513.1780395507812 68.90418243408203 508.0419616699219 C 104.69914245605469 506.2496337890625 -28.68351173400879 482.7950134277344 50.25363540649414 464.6277160644531 C 124.99699401855469 462.3951110839844 73.97277069091797 536.7120971679688 126.25460815429688 523.1238403320312 C 88.92682647705078 519.49267578125 106.13639068603516 500.4765625 115.94271087646484 548.8394165039062" fill="rgb(151, 170, 255)" opacity="0.6161726" stroke="rgb(0, 0, 0)" stroke-linecap="round" stroke-linejoin="round" stroke-opacity="1.0" stroke-width="0"/>
    <path d="M 313.4817810058594 185.5006103515625 C 350.08740234375 196.94989013671875 368.37420654296875 261.4802551269531 273.9610595703125 177.1521453857422 C 203.42507934570312 192.54473876953125 242.10423278808594 189.21917724609375 213.0233612060547 200.8984375 C 268.4331970214844 107.72076416015625 241.60052490234375 148.14419555664062 288.8927307128906 82.92530059814453 C 296.4415283203125 176.9313507080078 269.7760009765625 146.33045959472656 313.4817810058594 185.5006103515625" fill="rgb(0, 28, 51)" opacity="0.93657005" stroke="rgb(0, 0, 0)" stroke-linecap="round" stroke-linejoin="round" stroke-opacity="1.0" stroke-width="0"/>
    <path d="M 101.04708862304688 353.8829345703125 C 117.79580688476562 350.7352600097656 100.75005340576172 362.9681701660156 89.83929443359375 343.29901123046875 C 77.09815979003906 354.10491943359375 83.72926330566406 320.8506774902344 82.1231918334961 295.2598571777344 C 104.26464080810547 291.2023010253906 96.08506774902344 308.0790100097656 99.76726531982422 313.5281066894531 C 135.24159240722656 326.237060546875 109.22338104248047 332.6640625 101.04708862304688 353.8829345703125" fill="rgb(0, 106, 98)" opacity="0.25664747" stroke="rgb(0, 0, 0)" stroke-linecap="round" stroke-linejoin="round" stroke-opacity="1.0" stroke-width="0"/>
    <path d="M 116.66770935058594 463.6380310058594 C 153.10498046875 453.72552490234375 181.72776794433594 483.8311462402344 171.5597381591797 490.842529296875 C 98.08670806884766 456.2752380371094 -6.223618507385254 440.3294982910156 130.32762145996094 480.86627197265625 C 106.23030090332031 403.4681091308594 150.74183654785156 467.94598388671875 107.8898696899414 406.15814208984375 C 162.8704071044922 393.02398681640625 163.22525024414062 478.8060607910156 116.66770935058594 463.6380310058594" fill="rgb(84, 35, 91)" opacity="0.3228979" stroke="rgb(0, 0, 0)" stroke-linecap="round" stroke-linejoin="round" stroke-opacity="1.0" stroke-width="0"/>
    <path d="M 230.09573364257812 103.89120483398438 C 248.2134552001953 89.2998275756836 240.45729064941406 83.22570037841797 268.71563720703125 68.97870635986328 C 264.9538269042969 113.04478454589844 257.6084899902344 111.3614501953125 240.3184051513672 128.43238830566406 C 177.09048461914062 117.87512969970703 194.80384826660156 86.98178100585938 197.5654754638672 82.45983123779297 C 204.05064392089844 78.8544921875 211.9342498779297 83.0162582397461 230.09573364257812 103.89120483398438" fill="rgb(0, 5, 40)" opacity="1.0" stroke="rgb(0, 0, 0)" stroke-linecap="round" stroke-linejoin="round" stroke-opacity="1.0" stroke-width="0"/>
    <path d="M 96.49760437011719 228.3791046142578 C 78.16834259033203 168.7838134765625 7.841269493103027 214.6605987548828 62.2258415222168 248.4447021484375 C 81.92083740234375 233.76278686523438 64.83450317382812 233.18634033203125 34.7060432434082 254.85031127929688 C 25.147594451904297 264.16021728515625 16.387834548950195 232.27566528320312 69.29277038574219 239.2861328125 C 86.55400848388672 198.19888305664062 101.98796844482422 232.61013793945312 96.49760437011719 228.3791046142578" fill="rgb(3, 17, 233)" opacity="0.2657363" stroke="rgb(0, 0, 0)" stroke-linecap="round" stroke-linejoin="round" stroke-opacity="1.0" stroke-width="0"/>
    <path d="M 250.7083740234375 132.0441131591797 C 231.0741424560547 178.7037353515625 154.6856689453125 351.6889953613281 167.54750061035156 224.1364288330078 C 243.14976501464844 131.93775939941406 136.48806762695312 107.27977752685547 164.71812438964844 206.27694702148438 C 125.87034606933594 207.73033142089844 145.18701171875 120.5428695678711 217.12451171875 152.36398315429688 C 256.0573425292969 108.20430755615234 198.25852966308594 174.20750427246094 250.7083740234375 132.0441131591797" fill="rgb(10, 37, 65)" opacity="0.9959697" stroke="rgb(0, 0, 0)" stroke-linecap="round" stroke-linejoin="round" stroke-opacity="1.0" stroke-width="0"/>
    <path d="M 72.86681365966797 115.48760223388672 C 23.85143280029297 120.47745513916016 89.17568969726562 150.55592346191406 51.453975677490234 129.5199737548828 C 54.70719909667969 115.80437469482422 53.053977966308594 108.73078918457031 45.3035774230957 114.3777084350586 C 33.93239974975586 140.1001434326172 31.78730010986328 150.99795532226562 37.930931091308594 206.73178100585938 C 45.66987991333008 148.43649291992188 48.83472442626953 114.44581604003906 72.86681365966797 115.48760223388672" fill="rgb(1, 4, 30)" opacity="0.9881091" stroke="rgb(0, 0, 0)" stroke-linecap="round" stroke-linejoin="round" stroke-opacity="1.0" stroke-width="0"/>
    <path d="M 353.8513488769531 319.9248962402344 C 319.2538146972656 382.6415710449219 332.189697265625 340.2152099609375 308.0361633300781 360.0630187988281 C 272.517822265625 395.5933532714844 256.7333679199219 422.30023193359375 264.8612060546875 344.5607604980469 C 322.9988708496094 358.287353515625 265.4046630859375 297.4906311035156 282.22430419921875 355.1585388183594 C 293.1115417480469 326.0459899902344 308.30706787109375 287.9310607910156 353.8513488769531 319.9248962402344" fill="rgb(103, 157, 255)" opacity="0.4743699" stroke="rgb(0, 0, 0)" stroke-linecap="round" stroke-linejoin="round" stroke-opacity="1.0" stroke-width="0"/>
    <path d="M 23.610090255737305 495.8838806152344 C 2.7813313007354736 515.6397705078125 8.33687973022461 550.6509399414062 -2.3957061767578125 545.7235107421875 C -9.364206314086914 527.7437133789062 -16.68471336364746 520.4232177734375 -18.880956649780273 510.5154724121094 C -18.52771759033203 502.37347412109375 -23.388015747070312 509.98614501953125 -18.742494583129883 501.6428527832031 C 45.64114761352539 458.95770263671875 51.39661407470703 486.7647399902344 23.610090255737305 495.8838806152344" fill="rgb(234, 196, 111)" opacity="0.0" stroke="rgb(0, 0, 0)" stroke-linecap="round" stroke-linejoin="round" stroke-opacity="1.0" stroke-width="0"/>
    <path d="M 324.9288635253906 416.03546142578125 C 327.4927673339844 438.00244140625 306.2868957519531 442.65234375 290.23602294921875 447.9774475097656 C 281.23736572265625 450.12451171875 288.5190734863281 435.42950439453125 290.41961669921875 428.2304992675781 C 280.0978088378906 416.4691467285156 263.9203186035156 406.1109313964844 281.80126953125 407.18280029296875 C 321.8714904785156 400.1112060546875 341.8719482421875 419.86456298828125 324.9288635253906 416.03546142578125" fill="rgb(70, 53, 129)" opacity="0.7357477" stroke="rgb(0, 0, 0)" stroke-linecap="round" stroke-linejoin="round" stroke-opacity="1.0" stroke-width="0"/>
    <path d="M 288.8581848144531 445.4536437988281 C 265.5054931640625 447.15484619140625 245.2806396484375 452.7120361328125 225.62078857421875 436.474853515625 C 233.33221435546875 431.1893310546875 232.12631225585938 453.9035949707031 195.56678771972656 438.9869689941406 C 217.50743103027344 391.8623962402344 235.28871154785156 444.45379638671875 267.0754089355469 414.8601989746094 C 292.80084228515625 408.8005065917969 290.1343688964844 439.882568359375 288.8581848144531 445.4536437988281" fill="rgb(110, 204, 255)" opacity="0.45931786" stroke="rgb(0, 0, 0)" stroke-linecap="round" stroke-linejoin="round" stroke-opacity="1.0" stroke-width="0"/>
    <path d="M 162.01394653320312 203.5880584716797 C 149.54135131835938 227.22579956054688 154.28131103515625 205.90353393554688 150.4892120361328 186.0386199951172 C 168.8457489013672 258.1317138671875 109.95866394042969 239.3790740966797 97.09468841552734 175.83566284179688 C 135.75978088378906 181.1697998046875 146.8401641845703 169.6625518798828 133.4351806640625 148.2728271484375 C 144.61074829101562 209.39901733398438 156.24777221679688 204.705322265625 162.01394653320312 203.5880584716797" fill="rgb(113, 157, 254)" opacity="0.0071072164" stroke="rgb(0, 0, 0)" stroke-linecap="round" stroke-linejoin="round" stroke-opacity="1.0" stroke-width="0"/>
    <path d="M 505.8213195800781 425.06793212890625 C 523.0487060546875 411.1263427734375 503.6772155761719 404.09307861328125 497.0975646972656 410.1180114746094 C 500.7898864746094 417.9347229003906 493.26824951171875 417.31201171875 506.0019226074219 409.3061828613281 C 514.9735107421875 431.0198974609375 520.6061401367188 418.7176208496094 498.755126953125 389.7824401855469 C 467.3060607910156 360.773681640625 466.0286560058594 411.48980712890625 505.8213195800781 425.06793212890625" fill="rgb(90, 59, 152)" opacity="0.07133903" stroke="rgb(0, 0, 0)" stroke-linecap="round" stroke-linejoin="round" stroke-opacity="1.0" stroke-width="0"/>
    <path d="M 296.0725402832031 290.07769775390625 C 310.47540283203125 306.8492431640625 312.7902526855469 313.0735168457031 294.0269775390625 323.52789306640625 C 280.90325927734375 319.2250061035156 281.3041687011719 310.91973876953125 234.40394592285156 268.49835205078125 C 257.4378356933594 233.774658203125 294.60369873046875 250.25563049316406 306.5854797363281 267.45794677734375 C 310.1301574707031 305.2692565917969 290.9385070800781 286.06072998046875 296.0725402832031 290.07769775390625" fill="rgb(166, 251, 255)" opacity="0.06403781" stroke="rgb(0, 0, 0)" stroke-linecap="round" stroke-linejoin="round" stroke-opacity="1.0" stroke-width="0"/>
    <path d="M 277.3398742675781 411.6508483886719 C 289.2958679199219 421.9693603515625 279.60491943359375 436.1308898925781 249.9501495361328 425.56500244140625 C 268.3404846191406 427.822509765625 240.95596313476562 433.612060546875 231.5876922607422 411.87060546875 C 248.5594482421875 402.17132568359375 258.6285095214844 388.0635070800781 266.6464538574219 369.5047607421875 C 279.91400146484375 398.5737609863281 279.712890625 411.9498596191406 277.3398742675781 411.6508483886719" fill="rgb(164, 218, 255)" opacity="0.08853271" stroke="rgb(0, 0, 0)" stroke-linecap="round" stroke-linejoin="round" stroke-opacity="1.0" stroke-width="0"/>
    <path d="M 242.16629028320312 469.949462890625 C 274.7950744628906 522.0114135742188 166.14627075195312 457.70001220703125 175.8251953125 516.9049072265625 C 184.193603515625 533.96875 160.63414001464844 547.5975341796875 184.0177459716797 485.7286071777344 C 175.1983184814453 357.7239990234375 274.4876708984375 466.9831237792969 182.40765380859375 408.95587158203125 C 168.03810119628906 438.4333801269531 211.6263427734375 451.1369934082031 242.16629028320312 469.949462890625" fill="rgb(250, 114, 58)" opacity="0.08495922" stroke="rgb(0, 0, 0)" stroke-linecap="round" stroke-linejoin="round" stroke-opacity="1.0" stroke-width="0"/>
    <path d="M 298.474853515625 397.70465087890625 C 285.07647705078125 419.3143310546875 269.80072021484375 395.119384765625 261.4649353027344 388.65325927734375 C 242.29576110839844 371.1078186035156 227.60525512695312 395.2606201171875 219.13319396972656 385.6838684082031 C 229.42735290527344 323.0865173339844 252.4757843017578 351.4254455566406 242.36602783203125 355.0339660644531 C 283.9428405761719 367.1492004394531 264.9466552734375 373.9933166503906 298.474853515625 397.70465087890625" fill="rgb(3, 17, 50)" opacity="0.95504165" stroke="rgb(0, 0, 0)" stroke-linecap="round" stroke-linejoin="round" stroke-opacity="1.0" stroke-width="0"/>
    <path d="M 128.0772247314453 279.6203918457031 C 139.242919921875 296.0078430175781 214.4285888671875 285.2388610839844 178.28988647460938 355.6981201171875 C 127.58724212646484 310.67169189453125 116.19524383544922 261.7939147949219 159.726806640625 300.909912109375 C 159.69725036621094 283.0428466796875 146.910888671875 290.8780517578125 152.78884887695312 285.6317443847656 C 141.0091552734375 286.7235412597656 146.0322265625 272.68133544921875 128.0772247314453 279.6203918457031" fill="rgb(236, 78, 0)" opacity="1.0" stroke="rgb(0, 0, 0)" stroke-linecap="round" stroke-linejoin="round" stroke-opacity="1.0" stroke-width="0"/>
    <path d="M 270.5895690917969 113.64463806152344 C 283.810791015625 112.41854095458984 250.0064239501953 119.23574829101562 260.7315979003906 125.67823791503906 C 274.66680908203125 92.54920959472656 222.89016723632812 175.2236785888672 246.12730407714844 114.75133514404297 C 288.4312744140625 95.16600799560547 254.59054565429688 117.24785614013672 284.95538330078125 97.77439880371094 C 298.0303039550781 96.12425231933594 250.71388244628906 95.60368347167969 270.5895690917969 113.64463806152344" fill="rgb(133, 253, 207)" opacity="0.53954184" stroke="rgb(0, 0, 0)" stroke-linecap="round" stroke-linejoin="round" stroke-opacity="1.0" stroke-width="0"/>
    <path d="M 263.58917236328125 99.4593734741211 C 230.02162170410156 148.0622100830078 199.20172119140625 157.2620086669922 185.5196533203125 122.5167465209961 C 178.6739501953125 100.76390075683594 224.9669647216797 89.12162780761719 137.4093017578125 119.03584289550781 C 142.13931274414062 88.4554443359375 189.09132385253906 88.345458984375 186.35934448242188 77.17515563964844 C 202.5815887451172 98.1589584350586 157.24078369140625 85.38656616210938 263.58917236328125 99.4593734741211" fill="rgb(0, 0, 0)" opacity="1.0" stroke="rgb(0, 0, 0)" stroke-linecap="round" stroke-linejoin="round" stroke-opacity="1.0" stroke-width="0"/>
    <path d="M 416.19281005859375 87.90174102783203 C 411.42578125 91.8887710571289 393.6527404785156 106.48108673095703 392.1925964355469 113.07949829101562 C 388.6620788574219 95.46540069580078 390.697998046875 126.9404525756836 360.36126708984375 117.75670623779297 C 389.45751953125 66.57112884521484 396.33355712890625 47.38405990600586 362.66400146484375 101.02347564697266 C 366.35345458984375 116.16655731201172 418.12841796875 29.466304779052734 416.19281005859375 87.90174102783203" fill="rgb(253, 45, 0)" opacity="1.0" stroke="rgb(0, 0, 0)" stroke-linecap="round" stroke-linejoin="round" stroke-opacity="1.0" stroke-width="0"/>
    <path d="M 487.91387939453125 267.8145751953125 C 472.4126892089844 315.1540832519531 471.810546875 340.7633056640625 434.53631591796875 327.0282287597656 C 380.8150939941406 313.5691833496094 364.64056396484375 289.2528381347656 379.8476257324219 276.2632751464844 C 417.60943603515625 267.2210388183594 427.6164245605469 252.62286376953125 445.3977355957031 266.0972595214844 C 451.53369140625 246.8917694091797 465.2674255371094 237.4989471435547 487.91387939453125 267.8145751953125" fill="rgb(102, 140, 157)" opacity="0.92898196" stroke="rgb(0, 0, 0)" stroke-linecap="round" stroke-linejoin="round" stroke-opacity="1.0" stroke-width="0"/>
    <path d="M 511.29864501953125 95.4508056640625 C 528.783447265625 140.86318969726562 506.0103454589844 132.11575317382812 489.0203857421875 130.13302612304688 C 485.7745666503906 102.61697387695312 487.13226318359375 104.6266860961914 471.1143798828125 112.10271453857422 C 466.70172119140625 67.52559661865234 456.5902404785156 83.98743438720703 464.146240234375 69.56153869628906 C 476.8297119140625 82.03872680664062 463.4503479003906 104.88209533691406 511.29864501953125 95.4508056640625" fill="rgb(178, 230, 232)" opacity="0.01890705" stroke="rgb(0, 0, 0)" stroke-linecap="round" stroke-linejoin="round" stroke-opacity="1.0" stroke-width="0"/>
    <path d="M 313.09613037109375 191.15867614746094 C 310.7347412109375 194.6334686279297 290.9505615234375 188.6777801513672 279.38665771484375 186.91551208496094 C 286.630126953125 195.85537719726562 284.025146484375 162.70753479003906 265.08502197265625 166.8383331298828 C 268.166748046875 156.3406982421875 270.88690185546875 150.36900329589844 271.3285217285156 125.16897583007812 C 296.2672424316406 126.90028381347656 306.9073486328125 158.7353515625 313.09613037109375 191.15867614746094" fill="rgb(0, 0, 34)" opacity="1.0" stroke="rgb(0, 0, 0)" stroke-linecap="round" stroke-linejoin="round" stroke-opacity="1.0" stroke-width="0"/>
    <path d="M 378.4300231933594 257.7864990234375 C 381.41107177734375 280.68109130859375 373.90435791015625 277.5389709472656 352.671142578125 269.2239685058594 C 314.3908996582031 281.4851379394531 303.8058776855469 284.26397705078125 306.1083984375 255.36380004882812 C 304.628173828125 233.2274627685547 321.70556640625 225.78582763671875 347.5753479003906 223.63584899902344 C 380.979736328125 222.6377410888672 383.52093505859375 224.4014129638672 378.4300231933594 257.7864990234375" fill="rgb(150, 41, 189)" opacity="0.03838464" stroke="rgb(0, 0, 0)" stroke-linecap="round" stroke-linejoin="round" stroke-opacity="1.0" stroke-width="0"/>
    <path d="M 197.32481384277344 369.8313293457031 C 195.4527130126953 380.1655578613281 172.6163330078125 380.9717102050781 159.75669860839844 388.74365234375 C 148.6232147216797 379.337646484375 136.20449829101562 392.7437744140625 126.49230194091797 357.93865966796875 C 175.50006103515625 361.9834899902344 198.71221923828125 351.2248229980469 201.61656188964844 374.2695617675781 C 166.1438446044922 382.3438415527344 205.75918579101562 374.0921936035156 197.32481384277344 369.8313293457031" fill="rgb(255, 117, 68)" opacity="0.5439946" stroke="rgb(0, 0, 0)" stroke-linecap="round" stroke-linejoin="round" stroke-opacity="1.0" stroke-width="0"/>
    <path d="M 145.1790313720703 54.29423522949219 C 133.75259399414062 65.56704711914062 137.79000854492188 60.31748580932617 126.41004180908203 61.233245849609375 C 112.19925689697266 64.99161529541016 98.72096252441406 58.00349426269531 81.36963653564453 49.3286018371582 C 75.970703125 36.548622131347656 98.8626708984375 47.165077209472656 108.57139587402344 33.96476745605469 C 109.6845932006836 31.45781135559082 130.04776000976562 37.07938766479492 145.1790313720703 54.29423522949219" fill="rgb(255, 67, 1)" opacity="0.99734515" stroke="rgb(0, 0, 0)" stroke-linecap="round" stroke-linejoin="round" stroke-opacity="1.0" stroke-width="0"/>
    <path d="M 189.24502563476562 293.3033142089844 C 181.43711853027344 308.1847839355469 191.821533203125 322.3645935058594 190.4875030517578 327.9905700683594 C 170.8752899169922 284.4527893066406 164.9689178466797 270.80853271484375 168.78611755371094 281.1305847167969 C 162.14187622070312 248.0855255126953 157.54769897460938 237.37156677246094 165.023193359375 230.99810791015625 C 199.72914123535156 225.7460479736328 191.8638916015625 236.95668029785156 189.24502563476562 293.3033142089844" fill="rgb(5, 0, 62)" opacity="1.0" stroke="rgb(0, 0, 0)" stroke-linecap="round" stroke-linejoin="round" stroke-opacity="1.0" stroke-width="0"/>
    <path d="M 223.50282287597656 97.75529479980469 C 202.45506286621094 113.39949798583984 200.37017822265625 126.42598724365234 140.135498046875 140.23219299316406 C 135.2986602783203 120.42822265625 154.28756713867188 103.06482696533203 172.18939208984375 96.50076293945312 C 150.05262756347656 100.42372131347656 185.19407653808594 90.59323120117188 190.9835205078125 81.92108154296875 C 191.36085510253906 86.94194793701172 194.7793731689453 92.87521362304688 223.50282287597656 97.75529479980469" fill="rgb(255, 60, 0)" opacity="1.0" stroke="rgb(0, 0, 0)" stroke-linecap="round" stroke-linejoin="round" stroke-opacity="1.0" stroke-width="0"/>
    <path d="M 508.6894836425781 454.852783203125 C 506.722900390625 439.3324890136719 494.4445495605469 438.1430358886719 468.4944763183594 446.91058349609375 C 494.3660888671875 456.8428955078125 493.6475830078125 448.04949951171875 497.8919677734375 445.0493469238281 C 495.4169006347656 428.31231689453125 497.611572265625 418.25042724609375 494.2424621582031 418.2776184082031 C 503.16546630859375 445.00457763671875 497.8772888183594 462.7948913574219 508.6894836425781 454.852783203125" fill="rgb(240, 205, 239)" opacity="0.0062840786" stroke="rgb(0, 0, 0)" stroke-linecap="round" stroke-linejoin="round" stroke-opacity="1.0" stroke-width="0"/>
    <path d="M 377.5710144042969 246.36782836914062 C 321.97357177734375 233.7076416015625 324.0794372558594 232.7379608154297 329.8622131347656 271.36798095703125 C 326.6361389160156 262.1836242675781 324.51495361328125 240.7826385498047 320.9414367675781 232.7730255126953 C 309.424072265625 207.60098266601562 307.59356689453125 200.2080535888672 344.91363525390625 195.9606475830078 C 366.2335205078125 213.16583251953125 381.0594177246094 213.44650268554688 377.5710144042969 246.36782836914062" fill="rgb(0, 1, 50)" opacity="1.0" stroke="rgb(0, 0, 0)" stroke-linecap="round" stroke-linejoin="round" stroke-opacity="1.0" stroke-width="0"/>
    <path d="M 457.22406005859375 407.4981689453125 C 457.6983337402344 411.0462341308594 444.2414855957031 410.1329040527344 429.37060546875 430.079833984375 C 446.0492858886719 428.9275207519531 434.30389404296875 417.16790771484375 443.8551025390625 408.3673095703125 C 433.0468444824219 397.9405822753906 430.9169616699219 376.84234619140625 440.0960693359375 370.398193359375 C 453.4911804199219 401.11865234375 459.7265625 410.8859558105469 457.22406005859375 407.4981689453125" fill="rgb(194, 222, 208)" opacity="0.13270357" stroke="rgb(0, 0, 0)" stroke-linecap="round" stroke-linejoin="round" stroke-opacity="1.0" stroke-width="0"/>
    <path d="M 211.1308135986328 400.0467529296875 C 196.1634521484375 422.3135070800781 188.75799560546875 424.0948791503906 168.33778381347656 421.45892333984375 C 169.55078125 418.10797119140625 170.29791259765625 403.6062927246094 134.7621612548828 394.17120361328125 C 132.11463928222656 376.8459167480469 144.75233459472656 377.60662841796875 171.80369567871094 378.1194763183594 C 193.9066619873047 376.8856201171875 202.27337646484375 384.96002197265625 211.1308135986328 400.0467529296875" fill="rgb(194, 191, 231)" opacity="0.96350706" stroke="rgb(0, 0, 0)" stroke-linecap="round" stroke-linejoin="round" stroke-opacity="1.0" stroke-width="0"/>
    <path d="M 314.66046142578125 405.73089599609375 C 300.27191162109375 416.016845703125 305.0702209472656 420.6554870605469 291.670166015625 433.3055419921875 C 283.06024169921875 423.7973327636719 278.23614501953125 410.6850891113281 264.2899475097656 401.3635559082031 C 263.3089904785156 386.1358642578125 266.52294921875 369.7619934082031 274.9072570800781 372.53094482421875 C 308.043701171875 381.5328674316406 313.0147705078125 387.6933288574219 314.66046142578125 405.73089599609375" fill="rgb(40, 48, 69)" opacity="0.9719559" stroke="rgb(0, 0, 0)" stroke-linecap="round" stroke-linejoin="round" stroke-opacity="1.0" stroke-width="0"/>
    <path d="M 396.900146484375 18.466737747192383 C 379.9128112792969 15.021469116210938 371.87713623046875 24.95553207397461 362.6885681152344 29.410511016845703 C 370.15911865234375 25.12910270690918 363.8933410644531 27.270320892333984 345.2908935546875 13.55226993560791 C 351.824462890625 6.465515613555908 362.7333984375 0.4581943452358246 373.7461853027344 -6.631853103637695 C 388.2431640625 5.484974384307861 401.70050048828125 16.989957809448242 396.900146484375 18.466737747192383" fill="rgb(167, 202, 229)" opacity="0.11709892" stroke="rgb(0, 0, 0)" stroke-linecap="round" stroke-linejoin="round" stroke-opacity="1.0" stroke-width="0"/>
    <path d="M 431.5753173828125 399.2174377441406 C 415.82769775390625 410.80029296875 401.103515625 412.6994934082031 405.3191223144531 417.004150390625 C 388.257080078125 411.0850830078125 381.2166442871094 407.7366638183594 378.6429443359375 398.2155456542969 C 375.6969909667969 388.3853759765625 390.44140625 386.040283203125 390.8877868652344 388.5508728027344 C 399.91522216796875 393.316650390625 424.1990051269531 383.89959716796875 431.5753173828125 399.2174377441406" fill="rgb(183, 143, 164)" opacity="0.09953871" stroke="rgb(0, 0, 0)" stroke-linecap="round" stroke-linejoin="round" stroke-opacity="1.0" stroke-width="0"/>
    <path d="M 128.95533752441406 90.60676574707031 C 142.25955200195312 80.32147979736328 132.38015747070312 96.25968933105469 128.9179229736328 94.12413024902344 C 121.23455810546875 93.32222747802734 116.97747802734375 86.78876495361328 116.47855377197266 91.5799560546875 C 110.285400390625 76.24266815185547 106.93354797363281 56.80423355102539 113.05496215820312 54.53296661376953 C 126.3209457397461 63.94825744628906 122.92027282714844 82.23371124267578 128.95533752441406 90.60676574707031" fill="rgb(1, 52, 223)" opacity="0.43524402" stroke="rgb(0, 0, 0)" stroke-linecap="round" stroke-linejoin="round" stroke-opacity="1.0" stroke-width="0"/>
    <path d="M 365.4084777832031 385.4309997558594 C 354.39520263671875 398.9427490234375 340.8523864746094 400.6896667480469 329.9516906738281 407.1795654296875 C 321.7091064453125 409.23388671875 308.1622009277344 407.365234375 297.44635009765625 391.0687561035156 C 311.28936767578125 373.58148193359375 312.79486083984375 360.5939025878906 332.50482177734375 356.0850830078125 C 352.2972717285156 361.8791198730469 357.3865661621094 374.84490966796875 365.4084777832031 385.4309997558594" fill="rgb(126, 154, 255)" opacity="0.48604453" stroke="rgb(0, 0, 0)" stroke-linecap="round" stroke-linejoin="round" stroke-opacity="1.0" stroke-width="0"/>
  </g>
</svg>
