<?xml version="1.0" encoding="iso-8859-1"?>
<!-- Uploaded to: SVG Repo, www.svgrepo.com, Generator: SVG Repo Mixer Tools -->
<!DOCTYPE svg PUBLIC "-//W3C//DTD SVG 1.1//EN" "http://www.w3.org/Graphics/SVG/1.1/DTD/svg11.dtd">
<svg fill="#000000" height="800px" width="800px" version="1.1" id="Capa_1" xmlns="http://www.w3.org/2000/svg" xmlns:xlink="http://www.w3.org/1999/xlink" 
	 viewBox="0 0 200.624 200.624" xml:space="preserve">
<path d="M20.861,200.624c-0.382,0-0.765-0.011-1.148-0.032c-5.919-0.327-11.456-3.19-15.191-7.855
	c-5.998-7.493-6.022-18.387-0.059-25.905c2.194-2.764,4.921-4.865,8.105-6.244c5.618-2.431,11.108-5.581,16.584-9.525
	c0.111-0.097,0.229-0.182,0.353-0.255c3.564-2.591,7.124-5.52,10.708-8.806l27.093-24.117c0.014-0.012,0.026-0.024,0.04-0.036
	l11.63-10.353c-8.567-11.538-13.196-25.459-13.196-40.093c0-18.012,7.015-34.947,19.752-47.683
	c26.294-26.294,69.076-26.292,95.366,0c26.293,26.292,26.293,69.074,0,95.367c-23.616,23.616-60.532,26.021-86.858,7.213
	l-35.904,39.159c-0.006,0.007-0.013,0.013-0.019,0.02c-2.845,3.036-5.554,6.362-8.148,10.014c-0.014,0.019-0.027,0.039-0.041,0.057
	c-3.662,5.161-7.1,10.972-10.382,17.537c-1,2.001-2.317,3.827-3.914,5.423C31.71,198.43,26.381,200.624,20.861,200.624z
	 M30.518,156.222c-5.252,3.644-10.545,6.611-15.963,8.955c-2.421,1.048-4.498,2.65-6.175,4.763
	c-4.528,5.708-4.51,13.982,0.045,19.672c2.89,3.609,6.996,5.735,11.563,5.987c4.512,0.244,8.919-1.438,12.107-4.625
	c1.216-1.216,2.217-2.603,2.977-4.123c3.042-6.083,6.221-11.554,9.588-16.486L30.518,156.222z M34.608,153.241l13.002,13.003
	c2.197-2.924,4.477-5.643,6.849-8.175l23.594-25.732l-9.166-9.166l-25.322,22.541C40.575,148.453,37.595,150.96,34.608,153.241z
	 M85.482,27.149c-9.518,11.247-14.703,25.352-14.703,40.253c0,16.677,6.494,32.356,18.287,44.148
	c23.05,23.049,59.785,24.273,84.29,3.675h-16.898c-1.381,0-2.5-1.119-2.5-2.5V92.66h-20.273c-1.381,0-2.5-1.119-2.5-2.5V69.472
	h-20.48c-1.381,0-2.5-1.119-2.5-2.5V47.028H87.982c-1.381,0-2.5-1.119-2.5-2.5V27.149z M72.628,119.841l8.807,8.807l8.079-8.812
	l-7.949-7.95L72.628,119.841z M158.958,110.226h19.691c1.773-1.88,3.406-3.842,4.901-5.877h-14.924c-1.381,0-2.5-1.119-2.5-2.5
	V81.358h-20.702c-1.381,0-2.5-1.119-2.5-2.5V57.734h-20.913c-1.381,0-2.5-1.119-2.5-2.5V34.868h-20.65c-1.381,0-2.5-1.119-2.5-2.5
	V16.999c-2.034,1.489-3.999,3.118-5.879,4.884v20.146h20.222c1.381,0,2.5,1.119,2.5,2.5v19.944h20.48c1.381,0,2.5,1.119,2.5,2.5
	V87.66h20.273c1.381,0,2.5,1.119,2.5,2.5V110.226z M171.127,99.349h15.738c14.266-23.962,11.098-55.494-9.503-76.094
	c-20.574-20.573-52.05-23.76-76.001-9.558v16.171h20.65c1.381,0,2.5,1.119,2.5,2.5v20.366h20.913c1.381,0,2.5,1.119,2.5,2.5v21.124
	h20.702c1.381,0,2.5,1.119,2.5,2.5V99.349z"/>
</svg>