<?xml version="1.0" ?>
<svg height="600" version="1.1" width="600" xmlns="http://www.w3.org/2000/svg">
  <defs/>
  <g>
    <path d="M 515.2029418945312 561.6328735351562 C 501.1134033203125 513.5728759765625 533.1477661132812 502.6712951660156 455.33172607421875 567.806396484375 C 417.0055236816406 578.5982055664062 442.0972900390625 587.1610717773438 432.2492980957031 610.9100341796875 C 391.2148742675781 595.5225219726562 292.0552673339844 579.6425170898438 231.77346801757812 544.4334106445312 C 235.02085876464844 505.3761291503906 231.97781372070312 552.8900146484375 269.9819641113281 594.6064453125 C 247.3153839111328 584.4872436523438 237.9727325439453 568.416015625 213.2364044189453 518.6710815429688" fill="none" stroke="rgb(0, 0, 0)" stroke-linecap="round" stroke-linejoin="round" stroke-opacity="1.0" stroke-width="12"/>
    <path d="M 584.2233276367188 363.2754211425781 C 660.0 360.20147705078125 660.0 366.796142578125 660.0 320.1752624511719 C 646.3761596679688 205.59571838378906 660.0 199.15521240234375 660.0 176.74798583984375 C 660.0 198.24322509765625 660.0 202.0596466064453 660.0 212.21746826171875 C 660.0 256.693603515625 660.0 244.50479125976562 660.0 236.71258544921875 C 660.0 256.09539794921875 660.0 212.8101043701172 660.0 162.2458038330078" fill="none" stroke="rgb(0, 0, 0)" stroke-linecap="round" stroke-linejoin="round" stroke-opacity="1.0" stroke-width="12"/>
    <path d="M 87.62135314941406 405.8797607421875 C 80.82284545898438 414.16204833984375 66.36560821533203 427.47271728515625 54.773101806640625 433.87677001953125 C 96.1541976928711 396.9153137207031 120.16749572753906 402.49908447265625 -42.97004699707031 432.6768493652344 C -30.073556900024414 335.6400146484375 140.18096923828125 358.3465270996094 63.67223358154297 330.8481140136719 C -56.00339126586914 311.7018737792969 -56.4385871887207 362.7998046875 -59.44856262207031 361.97149658203125 C -8.776098251342773 305.6331481933594 -60.0 302.1543884277344 -60.0 330.43182373046875" fill="none" stroke="rgb(0, 0, 0)" stroke-linecap="round" stroke-linejoin="round" stroke-opacity="1.0" stroke-width="12"/>
    <path d="M 609.3538818359375 463.1234130859375 C 660.0 449.8349304199219 660.0 403.6359558105469 660.0 330.5683898925781 C 596.697998046875 319.085205078125 650.6073608398438 278.6790466308594 660.0 316.2896423339844 C 660.0 262.0948486328125 660.0 242.05535888671875 660.0 186.18038940429688 C 660.0 223.3249969482422 660.0 174.09439086914062 660.0 210.9553680419922 C 660.0 197.98805236816406 644.8748779296875 216.32366943359375 634.0479736328125 219.7301788330078" fill="none" stroke="rgb(0, 0, 0)" stroke-linecap="round" stroke-linejoin="round" stroke-opacity="1.0" stroke-width="12"/>
    <path d="M 517.4267578125 606.2091064453125 C 478.346435546875 601.2977905273438 459.6541748046875 593.6005249023438 537.6427612304688 604.3729248046875 C 491.32391357421875 634.1805419921875 543.9063110351562 530.09521484375 467.12005615234375 440.37701416015625 C 500.55712890625 487.75750732421875 524.807373046875 549.6236572265625 512.2921142578125 602.4793701171875 C 402.19598388671875 582.6766967773438 369.4491271972656 574.4703979492188 284.5614929199219 552.2837524414062 C 376.4742431640625 569.1707763671875 347.0783996582031 577.4277954101562 246.21658325195312 542.2899780273438" fill="none" stroke="rgb(0, 0, 0)" stroke-linecap="round" stroke-linejoin="round" stroke-opacity="1.0" stroke-width="12"/>
    <path d="M 199.79177856445312 543.960205078125 C 148.11920166015625 568.607421875 98.27593994140625 576.9664306640625 167.70230102539062 561.5557861328125 C 197.9946746826172 563.4760131835938 152.0620574951172 573.3643798828125 91.04776763916016 588.8640747070312 C 120.85057830810547 579.9471435546875 24.13764190673828 613.6265258789062 1.711869716644287 620.519287109375 C -60.0 491.3908386230469 -60.0 460.1947021484375 -16.68854331970215 506.4908447265625 C -60.0 463.0289611816406 -55.02985763549805 515.222412109375 -60.0 482.2934265136719" fill="none" stroke="rgb(0, 0, 0)" stroke-linecap="round" stroke-linejoin="round" stroke-opacity="1.0" stroke-width="12"/>
    <path d="M 211.30081176757812 23.957429885864258 C 124.31827545166016 -46.61532211303711 244.78057861328125 -60.0 223.02886962890625 19.051088333129883 C 210.34799194335938 73.77027893066406 177.83987426757812 136.5702667236328 183.0465850830078 124.30874633789062 C 218.24583435058594 42.914710998535156 228.77850341796875 -4.39652681350708 226.2567138671875 7.619509220123291 C 207.64772033691406 112.0512466430664 150.49412536621094 108.58747100830078 224.5482177734375 218.2089385986328 C 166.4486846923828 307.87115478515625 200.47021484375 274.82568359375 128.29811096191406 208.95291137695312" fill="none" stroke="rgb(0, 0, 0)" stroke-linecap="round" stroke-linejoin="round" stroke-opacity="1.0" stroke-width="12"/>
    <path d="M 108.6375732421875 65.03955841064453 C 123.570068359375 24.5726261138916 130.66195678710938 46.21179962158203 62.768104553222656 32.516151428222656 C 140.39295959472656 43.02309799194336 113.673095703125 41.721473693847656 121.52398681640625 -4.556825637817383 C 85.75535583496094 -39.648563385009766 89.08820343017578 -42.83540344238281 108.27985382080078 -53.73857498168945 C 72.8752212524414 -20.41501235961914 65.05059051513672 -48.065975189208984 42.55359649658203 -3.1136882305145264 C 27.179759979248047 -37.06218338012695 -31.05422592163086 -60.0 -24.825958251953125 -59.99352264404297" fill="none" stroke="rgb(0, 0, 0)" stroke-linecap="round" stroke-linejoin="round" stroke-opacity="1.0" stroke-width="12"/>
    <path d="M -9.828644752502441 503.6618347167969 C 0.6620859503746033 501.6333312988281 -33.69044876098633 518.225830078125 -60.0 515.036865234375 C -60.0 590.3954467773438 -60.0 634.189208984375 -60.0 651.7127685546875 C -60.0 646.0194702148438 -60.0 620.097900390625 -60.0 660.0 C -60.0 660.0 -60.0 660.0 -16.8504638671875 660.0 C -16.742637634277344 660.0 -59.24513244628906 660.0 -60.0 660.0" fill="none" stroke="rgb(0, 0, 0)" stroke-linecap="round" stroke-linejoin="round" stroke-opacity="1.0" stroke-width="12"/>
    <path d="M 144.16812133789062 617.85400390625 C 179.08697509765625 589.0654296875 216.7808380126953 551.853759765625 202.63563537597656 568.7417602539062 C 224.41090393066406 541.1458740234375 234.9302520751953 541.9254760742188 236.94647216796875 491.2052917480469 C 228.68374633789062 461.0694580078125 239.6918182373047 539.8075561523438 181.88052368164062 565.0048217773438 C 227.06704711914062 518.4743041992188 249.3018341064453 403.92608642578125 225.89578247070312 499.71331787109375 C 220.11656188964844 512.87451171875 224.24098205566406 537.0211181640625 297.8385009765625 556.2273559570312" fill="none" stroke="rgb(0, 0, 0)" stroke-linecap="round" stroke-linejoin="round" stroke-opacity="1.0" stroke-width="12"/>
    <path d="M 159.0247802734375 247.07298278808594 C 184.9965362548828 282.8113098144531 219.55555725097656 293.0539245605469 228.0508270263672 335.0565490722656 C 214.0584259033203 299.0068664550781 208.00543212890625 313.5788269042969 240.70103454589844 266.1210632324219 C 271.6966857910156 187.89462280273438 268.2135009765625 197.809814453125 237.985107421875 265.3680419921875 C 224.3350830078125 306.278076171875 227.3904266357422 269.7991638183594 248.2392578125 338.5174865722656 C 279.42962646484375 348.1230163574219 253.08615112304688 333.3563232421875 389.8910217285156 312.6957702636719" fill="none" stroke="rgb(0, 0, 0)" stroke-linecap="round" stroke-linejoin="round" stroke-opacity="1.0" stroke-width="12"/>
    <path d="M 29.299270629882812 159.8395538330078 C 133.59307861328125 216.908203125 113.22300720214844 206.51309204101562 -37.811771392822266 198.6699676513672 C -59.820640563964844 128.6625213623047 -60.0 118.19693756103516 -60.0 109.73153686523438 C -60.0 74.16942596435547 -60.0 96.71989440917969 -60.0 143.68447875976562 C -60.0 181.4354248046875 -60.0 200.37696838378906 -60.0 199.760498046875 C -60.0 160.8790740966797 -60.0 196.5903778076172 -30.979223251342773 249.82904052734375" fill="none" stroke="rgb(0, 0, 0)" stroke-linecap="round" stroke-linejoin="round" stroke-opacity="1.0" stroke-width="12"/>
    <path d="M 498.8272705078125 365.9778137207031 C 501.43902587890625 300.77825927734375 496.3624267578125 290.5294189453125 496.14129638671875 356.6217956542969 C 492.7236633300781 399.11712646484375 507.953125 362.2425231933594 605.2929077148438 363.01495361328125 C 589.1589965820312 363.3076477050781 495.2740478515625 359.4637756347656 473.86065673828125 405.8197326660156 C 454.0749816894531 445.4787292480469 487.40350341796875 376.8023376464844 501.4618835449219 373.37384033203125 C 501.36798095703125 380.0973815917969 506.0790100097656 375.7784118652344 535.4762573242188 368.595947265625" fill="none" stroke="rgb(0, 0, 0)" stroke-linecap="round" stroke-linejoin="round" stroke-opacity="1.0" stroke-width="12"/>
    <path d="M 95.11363220214844 126.2029037475586 C 180.353759765625 114.22434997558594 146.62826538085938 142.64353942871094 162.3438720703125 67.8370132446289 C 157.63328552246094 91.22181701660156 153.9641876220703 105.90150451660156 162.69496154785156 149.29061889648438 C 258.1512756347656 196.7621612548828 253.6901092529297 261.2944030761719 267.8091125488281 181.90216064453125 C 333.2480773925781 136.9793701171875 335.8913269042969 154.41981506347656 390.0743408203125 42.17224884033203 C 334.4104309082031 -58.330352783203125 327.89337158203125 -60.0 289.20770263671875 -60.0" fill="none" stroke="rgb(0, 0, 0)" stroke-linecap="round" stroke-linejoin="round" stroke-opacity="1.0" stroke-width="12"/>
    <path d="M 251.74046325683594 339.7675476074219 C 241.59652709960938 469.6322021484375 212.74658203125 507.586181640625 233.00091552734375 410.650146484375 C 244.96035766601562 293.3778991699219 212.43743896484375 284.6775207519531 174.08128356933594 377.7746887207031 C 207.6906280517578 401.36273193359375 253.9000244140625 398.31756591796875 247.4048614501953 447.0227355957031 C 226.23440551757812 485.8725280761719 237.53179931640625 515.8305053710938 252.2823486328125 455.63836669921875 C 243.7037353515625 532.2844848632812 233.7126922607422 548.1740112304688 230.16177368164062 500.7234802246094" fill="none" stroke="rgb(0, 0, 0)" stroke-linecap="round" stroke-linejoin="round" stroke-opacity="1.0" stroke-width="12"/>
    <path d="M 311.0609130859375 580.1254272460938 C 382.8900451660156 600.13671875 443.5080261230469 605.3258666992188 427.48193359375 619.8515625 C 492.55267333984375 607.624267578125 464.303955078125 607.4013061523438 574.6085205078125 608.804931640625 C 500.677490234375 634.119873046875 495.505615234375 660.0 475.91326904296875 660.0 C 482.9066467285156 660.0 503.09619140625 660.0 510.6255187988281 660.0 C 460.450439453125 660.0 438.8175354003906 660.0 467.3301086425781 624.4385986328125" fill="none" stroke="rgb(0, 0, 0)" stroke-linecap="round" stroke-linejoin="round" stroke-opacity="1.0" stroke-width="12"/>
  </g>
</svg>
