<svg width="307" height="307" viewBox="0 0 307 307" fill="none" xmlns="http://www.w3.org/2000/svg">
<circle cx="153" cy="153" r="150" fill="white"/>
<path d="M187.826 109.758C176.692 109.758 167.662 100.728 167.662 89.5941C167.662 78.4603 176.692 69.4304 187.826 69.4304C198.96 69.4304 207.99 78.4603 207.99 89.5941C207.968 100.728 198.96 109.758 187.826 109.758ZM191.486 210.335C191.486 231.594 174.238 248.843 152.978 248.843C131.719 248.843 114.47 231.594 114.47 210.335C114.47 189.075 131.719 171.827 152.978 171.827C174.259 171.827 191.486 189.075 191.486 210.335ZM153 3C70.1537 3 3 70.1537 3 153C3 235.846 70.1537 303 153 303C235.846 303 303 235.846 303 153C302.978 70.1537 235.824 3 153 3ZM233.808 152.89C230.279 152.89 226.97 151.904 224.143 150.195L191.486 180.922C197.733 189.075 201.437 199.267 201.437 210.335C201.437 237.096 179.739 258.793 152.978 258.793C126.217 258.793 104.52 237.096 104.52 210.335C104.52 199.267 108.224 189.075 114.47 180.922L81.8136 150.195C79.0082 151.904 75.6987 152.89 72.1481 152.89C61.8691 152.89 53.5406 144.562 53.5406 134.283C53.5406 124.004 61.8691 115.675 72.1481 115.675C82.4272 115.675 90.7557 124.004 90.7557 134.283C90.7557 137.417 89.9886 140.376 88.6078 142.962L121.264 173.69C125.275 170.227 129.856 167.399 134.831 165.383L121.615 119.511C120.475 119.642 119.335 119.708 118.152 119.708C101.517 119.708 88.038 106.229 88.038 89.5941C88.038 72.9591 101.517 59.4801 118.152 59.4801C134.787 59.4801 148.288 72.9591 148.288 89.5941C148.288 101.561 141.296 111.906 131.171 116.771L144.387 162.643C147.17 162.139 150.041 161.876 152.978 161.876C155.915 161.876 158.764 162.139 161.57 162.643L174.785 116.771C164.66 111.928 157.668 101.583 157.668 89.5941C157.668 72.9591 171.147 59.4801 187.782 59.4801C204.417 59.4801 217.896 72.9591 217.896 89.5941C217.896 106.229 204.417 119.708 187.782 119.708C186.621 119.708 185.459 119.642 184.319 119.511L171.103 165.383C176.101 167.399 180.681 170.205 184.67 173.69L217.326 142.962C215.968 140.376 215.179 137.417 215.179 134.283C215.179 124.004 223.507 115.675 233.786 115.675C244.065 115.675 252.394 124.004 252.394 134.283C252.394 144.562 244.087 152.89 233.808 152.89Z" fill="black"/>
</svg>
